<?xml version="1.0" encoding="UTF-8"?>
<svg width="88px" height="88px" viewBox="0 0 88 88" version="1.1" xmlns="http://www.w3.org/2000/svg" xmlns:xlink="http://www.w3.org/1999/xlink">
    <!-- Generator: Sketch 51.2 (57519) - http://www.bohemiancoding.com/sketch -->
    <title>Chat bot</title>
    <desc>Created with Sketch.</desc>
    <defs>
        <circle id="path-1" cx="40" cy="40" r="40"></circle>
        <filter x="-8.8%" y="-6.2%" width="117.5%" height="117.5%" filterUnits="objectBoundingBox" id="filter-2">
            <feOffset dx="0" dy="2" in="SourceAlpha" result="shadowOffsetOuter1"></feOffset>
            <feGaussianBlur stdDeviation="2" in="shadowOffsetOuter1" result="shadowBlurOuter1"></feGaussianBlur>
            <feColorMatrix values="0 0 0 0 0.642139668   0 0 0 0 0.642139668   0 0 0 0 0.642139668  0 0 0 0.5 0" type="matrix" in="shadowBlurOuter1"></feColorMatrix>
        </filter>
    </defs>
    <g id="Page-1" stroke="none" stroke-width="1" fill="none" fill-rule="evenodd">
        <g id="Chat-bot" transform="translate(4.000000, 2.000000)">
            <g id="Oval">
                <use fill="black" fill-opacity="1" filter="url(#filter-2)" xlink:href="#path-1"></use>
                <use fill="#4361EF" fill-rule="evenodd" xlink:href="#path-1"></use>
            </g>
            <path d="M44.0708661,35.1616998 C44.0708661,34.1993965 44.8381034,33.4197779 45.7862385,33.4197779 C46.7318258,33.4197779 47.4996169,34.1993965 47.4996169,35.1616998 C47.4996169,36.1236685 46.7318258,36.903845 45.7862385,36.903845 C44.8379927,36.9033986 44.0708661,36.1232221 44.0708661,35.1616998 Z M38.7350998,20.3226091 L38.7209204,20.3226091 L38.7209204,22.7103446 L40.8964579,22.7103446 L40.8964579,20.392469 C41.6450848,20.0101368 42.1640721,19.2320805 42.1640721,18.3226742 C42.1640721,17.0395287 41.1413845,16 39.8782014,16 C38.6154613,16 37.5916659,17.0395287 37.5916659,18.3226742 C37.5912228,19.1811921 38.0539358,19.9210821 38.7350998,20.3226091 Z M33.9747061,36.9033986 C34.9206256,36.9033986 35.688306,36.1232221 35.688306,35.1609186 C35.688306,34.1989501 34.9205149,33.4192199 33.9747061,33.4192199 C33.026571,33.4192199 32.2593337,34.1989501 32.2593337,35.1609186 C32.2593337,36.1232221 33.026571,36.9033986 33.9747061,36.9033986 Z M39.8782014,64 C42.4588482,64 44.6524422,62.3324018 45.485259,60.0000186 L34.2707006,60.0000186 C35.1038498,62.3322902 37.2967792,64 39.8782014,64 Z M22,56.9229467 C22,56.0010415 22.5325021,55.2114907 23.2987424,54.836524 L23.2987424,44.9604991 C23.2987424,43.0125686 24.791565,41.4219726 26.6788623,41.2958677 L26.6788623,36.5167141 C26.6788623,36.5167141 27.1380305,27.8065461 34.2708113,25.0971873 C36.3895206,24.2927941 38.3238979,23.967488 39.9999446,23.9063327 C41.6772098,23.967488 43.6116979,24.2927941 45.7283025,25.0967409 C52.8624126,27.8060997 53.3221346,36.5162677 53.3221346,36.5162677 L53.3221346,41.2949749 C55.2081026,41.4215262 56.7012577,43.0126802 56.7012577,44.9600527 L56.7012577,54.8366356 C57.4673872,55.2116023 58,56.0017111 58,56.9230583 C58,58.2053111 56.9763153,59.2449513 55.7137969,59.2449513 C54.4512784,59.2449513 53.4275937,58.2054227 53.4275937,56.9230583 C53.4275937,56.0011531 53.9606498,55.2116023 54.7252285,54.8366356 L54.7252285,48.2345402 C54.3002901,48.4553913 53.8235085,48.5887501 53.3225778,48.623122 L53.3225778,50.9177853 C53.3355386,51.1032601 53.3504934,51.2871724 53.3504934,51.4772226 C53.3504934,51.6783208 53.3376434,51.8771872 53.3225778,52.0761652 L53.3225778,52.1292854 L53.3201407,52.1292854 C53.0156164,55.9522735 50.0712907,59.0147262 46.3394558,59.4324349 L46.3425575,59.4845507 L39.9999446,59.4845507 L33.6565563,59.4845507 L33.6607658,59.4324349 C29.9290416,59.0147262 26.9854914,55.9521619 26.6809671,52.1292854 L26.6788623,52.1292854 L26.6788623,52.0761652 C26.6646829,51.8771872 26.6509467,51.6783208 26.6509467,51.4772226 C26.6509467,51.2876188 26.6651261,51.1032601 26.6788623,50.9177853 L26.6788623,48.6234568 C26.1760483,48.5886385 25.6993775,48.4562841 25.2744393,48.2344286 L25.2744393,54.8376398 C26.0403472,55.2126067 26.5731817,56.0022691 26.5731817,56.9230583 C26.5731817,58.2064271 25.5497186,59.2455093 24.2864247,59.2455093 C23.0243493,59.2452861 22,58.2063155 22,56.9229467 Z M43.8154158,44.776029 C43.8154158,44.1594539 43.3232363,43.6582705 42.7151846,43.6582705 C42.1061361,43.6582705 41.6139566,44.1587843 41.6139566,44.776029 C41.6139566,45.3937199 42.1061361,45.8947917 42.7151846,45.8947917 C43.3232363,45.8947917 43.8154158,45.3937199 43.8154158,44.776029 Z M46.5244523,44.776029 C46.5244523,44.1594539 46.0322728,43.6582705 45.4242213,43.6582705 C44.8161697,43.6582705 44.3231039,44.1587843 44.3231039,44.776029 C44.3231039,45.3937199 44.8162804,45.8947917 45.4242213,45.8947917 C46.0321621,45.8947917 46.5244523,45.3937199 46.5244523,44.776029 Z M49.2345967,44.776029 C49.2345967,44.1594539 48.7424173,43.6582705 48.1343656,43.6582705 C47.5253171,43.6582705 47.0332483,44.1587843 47.0332483,44.776029 C47.0332483,45.3937199 47.5253171,45.8947917 48.1343656,45.8947917 C48.7424173,45.8947917 49.2345967,45.3937199 49.2345967,44.776029 Z M30.7352721,35.4843275 C30.7352721,38.4518109 33.0216968,38.6458785 33.0216968,38.6458785 C33.8174036,38.9013247 35.4988784,38.7745502 36.2596906,38.6458785 C36.9599082,38.5257998 39.5292558,38.3002617 39.9383529,38.2635463 C39.9539725,38.2651086 39.9786755,38.267787 39.9993907,38.2686798 C40.0211029,38.2676754 40.0454737,38.2651086 40.0598747,38.2635463 C40.469415,38.2997039 43.0378763,38.5257998 43.7388693,38.6458785 C44.5010109,38.7745502 46.181267,38.9013247 46.977417,38.6458785 C46.977417,38.6458785 49.2630662,38.4523689 49.2630662,35.4843275 C49.2630662,35.4843275 49.2630662,32.1937701 46.977417,30.1937236 C44.7604492,28.2539396 41.4284061,27.8331063 40.1208016,27.8081085 L40.1208016,27.8059881 C40.1021911,27.8059881 40.079482,27.8075505 40.0597639,27.8075505 C40.0407103,27.8075505 40.0168934,27.8059881 39.99928,27.8059881 C39.9806695,27.8059881 39.9574065,27.8075505 39.9382422,27.8075505 C39.9188563,27.8075505 39.8955933,27.8059881 39.8775367,27.8059881 L39.8775367,27.8081085 C38.5712615,27.8331063 35.2382215,28.2539396 33.021586,30.1937236 C30.7352721,32.1937701 30.7352721,35.4843275 30.7352721,35.4843275 Z" id="Roboto" fill="#FFFFFF" fill-rule="nonzero"></path>
        </g>
    </g>
</svg>