<?xml version="1.0" encoding="iso-8859-1"?>
<!-- Generator: Adobe Illustrator 18.1.1, SVG Export Plug-In . SVG Version: 6.00 Build 0)  -->
<svg version="1.1" id="Capa_1" xmlns="http://www.w3.org/2000/svg" xmlns:xlink="http://www.w3.org/1999/xlink" x="0px" y="0px"
	 viewBox="0 0 92 92" style="enable-background:new 0 0 92 92;" xml:space="preserve">
<g>
	<path style="fill:#030104;" d="M43.826,33.104C37.033,21.031,29.772,11.19,29.239,10.469C18.283,15.646,10.107,25.737,7.557,37.9
		C8.588,37.919,24.96,38.116,43.826,33.104z M48.719,46.301c0.514-0.163,1.029-0.318,1.549-0.467
		c-0.986-2.234-2.062-4.47-3.188-6.676c-20.229,6.054-39.643,5.615-40.332,5.598C6.736,45.169,6.717,45.581,6.717,46
		c0,10.102,3.816,19.308,10.078,26.267c-0.012-0.013-0.027-0.034-0.027-0.034S27.521,53.157,48.719,46.301z M21.855,76.969
		l0.006-0.016c-0.291-0.229-0.604-0.438-0.889-0.676C21.494,76.695,21.855,76.969,21.855,76.969z M36.59,7.859
		c-0.035,0.008-0.07,0.017-0.104,0.024c0.061-0.015,0.097-0.021,0.097-0.021L36.59,7.859z M71.945,16.518
		C65.027,10.422,55.947,6.716,46,6.716c-3.191,0-6.287,0.391-9.256,1.107c0.598,0.792,7.971,10.589,14.686,22.918
		C66.242,25.188,71.842,16.679,71.945,16.518z M46,92C20.596,92,0,71.403,0,46C0,20.596,20.596,0,46,0c25.406,0,46,20.596,46,46
		C92,71.403,71.406,92,46,92z M52.684,52.429c-23.057,8.033-30.668,24.193-30.822,24.524c6.664,5.204,15.029,8.331,24.139,8.331
		c5.441,0,10.623-1.107,15.335-3.108c-0.582-3.444-2.867-15.476-8.392-29.835C52.857,52.371,52.771,52.396,52.684,52.429z
		 M54.451,36.594c0.918,1.874,1.795,3.777,2.611,5.698c0.291,0.678,0.572,1.355,0.848,2.029c13.568-1.706,26.925,1.189,27.362,1.284
		c-0.093-9.323-3.423-17.869-8.935-24.56C76.258,21.163,69.956,30.263,54.451,36.594z M60.305,50.523
		c5.16,14.177,7.25,25.709,7.646,28.059c8.82-5.956,15.088-15.397,16.834-26.351C84.004,51.979,73.006,48.49,60.305,50.523z"/>
</g>
<g>
</g>
<g>
</g>
<g>
</g>
<g>
</g>
<g>
</g>
<g>
</g>
<g>
</g>
<g>
</g>
<g>
</g>
<g>
</g>
<g>
</g>
<g>
</g>
<g>
</g>
<g>
</g>
<g>
</g>
</svg>
