<svg width="21" height="21" viewBox="0 0 21 21" fill="none" xmlns="http://www.w3.org/2000/svg">
<path fill-rule="evenodd" clip-rule="evenodd" d="M3.71875 6.12524C3.71875 4.79631 4.79606 3.71899 6.125 3.71899H8.96875V5.03149H6.125C5.52094 5.03149 5.03125 5.52118 5.03125 6.12524V14.8752C5.03125 15.4793 5.52094 15.969 6.125 15.969H14.875C15.4791 15.969 15.9688 15.4793 15.9688 14.8752V11.6912H17.2813V14.8752C17.2813 16.2042 16.2039 17.2815 14.875 17.2815H6.125C4.79607 17.2815 3.71875 16.2042 3.71875 14.8752V6.12524Z" fill="#1E1E1E"/>
<path fill-rule="evenodd" clip-rule="evenodd" d="M16.2955 3.95486L13.0358 3.96959L13.0299 2.65711L18.5489 2.63217L18.5016 8.1315L17.1891 8.1202L17.217 4.88953L11.6301 10.4763L10.7021 9.54826L16.2955 3.95486Z" fill="#1E1E1E"/>
</svg>
