<?xml version="1.0" encoding="iso-8859-1"?>
<!-- Generator: Adobe Illustrator 19.1.0, SVG Export Plug-In . SVG Version: 6.00 Build 0)  -->
<svg version="1.1" id="Capa_1" xmlns="http://www.w3.org/2000/svg" xmlns:xlink="http://www.w3.org/1999/xlink" x="0px" y="0px"
	 viewBox="0 0 288.861 288.861" style="enable-background:new 0 0 288.861 288.861;" xml:space="preserve">
<g>
	<path d="M167.172,288.861h-62.16V159.347H70.769v-59.48h34.242v-33.4C105.011,35.804,124.195,0,178.284,0
		c19.068,0,33.066,1.787,33.651,1.864l5.739,0.746l-1.382,55.663l-6.324-0.058c-0.013,0-14.223-0.135-29.724-0.135
		c-11.536,0-13.066,2.847-13.066,14.171v27.629h50.913l-2.821,59.48h-48.086v129.501H167.172z M117.858,276.007h36.453V146.5h48.677
		l1.607-33.779h-50.284V72.238c0-13.368,3.078-27.025,25.919-27.025c9.178,0,17.899,0.045,23.509,0.09l0.778-31.292
		c-5.675-0.508-15.116-1.157-26.247-1.157c-44.544,0-60.419,27.693-60.419,53.613v46.254H83.61V146.5h34.242v129.507H117.858z"/>
</g>
<g>
</g>
<g>
</g>
<g>
</g>
<g>
</g>
<g>
</g>
<g>
</g>
<g>
</g>
<g>
</g>
<g>
</g>
<g>
</g>
<g>
</g>
<g>
</g>
<g>
</g>
<g>
</g>
<g>
</g>
</svg>
