<svg width="201" height="122" viewBox="0 0 201 122" fill="none" xmlns="http://www.w3.org/2000/svg">
    <path d="M157.477 76.922C158.353 93.0649 126.793 125.889 87.892 113.74C69.7997 108.089 71.3322 98.7092 57.5751 86.3477C49.3749 78.9801 37.5928 73.4091 34.3159 62.6995C31.4851 53.4558 33.2211 43.5203 38.1288 37.0577C49.1665 22.5237 71.4494 12.5716 93.4048 35.4708C115.36 58.37 155.213 35.2883 157.477 76.922Z" fill="url(#paint0_linear_285_614)"/>
    <path d="M143.782 35.5714C140.89 40.733 134.556 41.4422 124.408 40.4612C116.777 39.7221 109.817 39.1503 102.185 34.989C96.8428 32.0785 92.6141 28.1408 89.5279 24.3161C86.1834 20.173 81.515 15.4444 83.8036 10.7465C86.9484 4.2935 105.135 -1.14183 122.795 7.74617C142.195 17.5127 146.611 30.5265 143.782 35.5714Z" fill="url(#paint1_linear_285_614)"/>
    <path fill-rule="evenodd" clip-rule="evenodd" d="M73.7296 100.076C72.767 100.593 71.6786 100.829 70.5886 100.757C69.4985 100.685 68.4505 100.309 67.564 99.6702C66.6774 99.0319 65.988 98.1574 65.5742 97.1464C65.1604 96.1354 65.0389 95.0284 65.2235 93.9517L69.4426 69.5366L51.5748 52.2375C50.8008 51.476 50.2546 50.5137 49.9978 49.4588C49.741 48.4038 49.7837 47.2982 50.1211 46.2662C50.4585 45.2342 51.0772 44.3168 51.9076 43.6174C52.7381 42.9179 53.7472 42.4641 54.8216 42.307L79.5235 38.7442L90.5572 16.5117C91.0458 15.5353 91.7966 14.7143 92.7255 14.1404C93.6544 13.5666 94.7246 13.2627 95.8165 13.2627C96.9083 13.2627 97.9785 13.5666 98.9074 14.1404C99.8363 14.7143 100.587 15.5353 101.076 16.5117L112.109 38.7442L136.811 42.307C137.886 42.4639 138.895 42.9175 139.726 43.617C140.556 44.3164 141.175 45.2338 141.513 46.2658C141.85 47.2979 141.893 48.4037 141.636 49.4587C141.379 50.5138 140.833 51.4761 140.058 52.2375L122.181 69.527L126.4 93.9421C126.586 95.0195 126.466 96.1275 126.053 97.1398C125.64 98.1521 124.951 99.028 124.064 99.6675C123.177 100.307 122.128 100.684 121.037 100.757C119.946 100.829 118.857 100.593 117.894 100.076L95.8069 88.5612L73.7296 100.076ZM16.1462 100.434C15.67 100.689 15.1315 100.806 14.5922 100.771C14.0528 100.735 13.5343 100.549 13.0956 100.233C12.6569 99.9174 12.3158 99.4847 12.111 98.9845C11.9063 98.4842 11.8462 97.9366 11.9375 97.4038L14.025 85.3246L5.18429 76.7661C4.8012 76.3894 4.53087 75.9133 4.40374 75.3913C4.2766 74.8693 4.29772 74.3222 4.4647 73.8116C4.63169 73.3009 4.93791 72.847 5.34889 72.501C5.75987 72.155 6.25929 71.9305 6.79092 71.853L19.013 70.0903L24.4723 59.091C24.7141 58.608 25.0856 58.2018 25.5452 57.918C26.0048 57.6341 26.5343 57.4838 27.0744 57.4838C27.6146 57.4838 28.1441 57.6341 28.6037 57.918C29.0633 58.2018 29.4348 58.608 29.6766 59.091L35.1359 70.0903L47.3582 71.853C47.8898 71.9306 48.3892 72.155 48.8002 72.5011C49.2111 72.8471 49.5173 73.301 49.6843 73.8117C49.8512 74.3223 49.8723 74.8694 49.7452 75.3914C49.618 75.9133 49.3477 76.3895 48.9646 76.7661L40.1191 85.3198L42.2066 97.399C42.299 97.9321 42.2397 98.4805 42.0354 98.9815C41.8311 99.4825 41.49 99.916 41.0512 100.232C40.6123 100.549 40.0933 100.736 39.5534 100.771C39.0135 100.807 38.4745 100.69 37.9979 100.434L27.0698 94.737L16.1462 100.434ZM153.61 100.434C153.134 100.689 152.596 100.806 152.056 100.771C151.517 100.735 150.998 100.549 150.56 100.233C150.121 99.9174 149.78 99.4847 149.575 98.9845C149.37 98.4842 149.31 97.9366 149.402 97.4038L151.489 85.3246L142.648 76.7661C142.265 76.3894 141.995 75.9133 141.868 75.3913C141.741 74.8693 141.762 74.3222 141.929 73.8116C142.096 73.3009 142.402 72.847 142.813 72.501C143.224 72.155 143.723 71.9305 144.255 71.853L156.477 70.0903L161.936 59.091C162.178 58.608 162.55 58.2018 163.009 57.918C163.469 57.6341 163.998 57.4838 164.538 57.4838C165.079 57.4838 165.608 57.6341 166.068 57.918C166.527 58.2018 166.899 58.608 167.141 59.091L172.6 70.0903L184.822 71.853C185.354 71.9306 185.853 72.1551 186.264 72.5012C186.675 72.8472 186.981 73.3011 187.148 73.8117C187.315 74.3223 187.336 74.8693 187.209 75.3913C187.082 75.9133 186.812 76.3894 186.429 76.7661L177.583 85.3198L179.671 97.399C179.763 97.9321 179.704 98.4804 179.499 98.9813C179.295 99.4822 178.954 99.9156 178.515 100.232C178.076 100.548 177.557 100.735 177.017 100.771C176.478 100.806 175.939 100.69 175.462 100.434L164.534 94.737L153.61 100.434Z" fill="#63A18F" stroke="#63A18F" stroke-width="7.28784" stroke-linecap="round" stroke-linejoin="round"/>
    <path d="M103.909 55.3918L93.7842 65.5166L87.7036 59.4408" stroke="white" stroke-width="4" stroke-linecap="round" stroke-linejoin="round"/>
    <path d="M171.755 54.0817C165.947 55.4577 159.805 50.5321 159.805 50.5321C159.805 50.5321 163.082 43.3787 168.892 42.0069C174.7 40.631 180.841 45.5523 180.841 45.5523C180.841 45.5523 177.563 52.7058 171.755 54.0817Z" fill="url(#paint2_linear_285_614)"/>
    <path d="M192.205 95.3401C195.64 97.7064 200.889 96.0524 200.889 96.0524C200.889 96.0524 200.564 90.5622 197.126 88.1981C193.691 85.8319 188.444 87.4836 188.444 87.4836C188.444 87.4836 188.769 92.9738 192.205 95.3401Z" fill="url(#paint3_linear_285_614)"/>
    <path d="M50.8889 112.929C53.5397 115.627 58.4968 115.058 58.4968 115.058C58.4968 115.058 59.1525 110.115 56.4995 107.419C53.8487 104.721 48.8942 105.288 48.8942 105.288C48.8942 105.288 48.2382 110.231 50.8889 112.929Z" fill="url(#paint4_linear_285_614)"/>
    <path d="M177.416 72.4417C175.073 72.4417 173.174 74.2584 173.174 76.4994C173.174 78.7404 175.073 80.5571 177.416 80.5571C179.759 80.5571 181.658 78.7404 181.658 76.4994C181.658 74.2584 179.759 72.4417 177.416 72.4417Z" fill="#63A18F"/>
    <path d="M95.9941 110.91C92.8362 110.91 90.2762 113.387 90.2762 116.443C90.2762 119.499 92.8362 121.976 95.9941 121.976C99.152 121.976 101.712 119.499 101.712 116.443C101.712 113.387 99.152 110.91 95.9941 110.91Z" fill="#63A18F"/>
    <path d="M31.216 40.3153C28.9164 40.3153 27.0521 38.4511 27.0521 36.1514C27.0521 33.8518 28.9164 31.9875 31.216 31.9875C33.5157 31.9875 35.3799 33.8518 35.3799 36.1514C35.3799 38.4511 33.5157 40.3153 31.216 40.3153Z" fill="#63A18F"/>
    <path d="M122.227 25.5148C120.088 25.5148 118.354 23.7806 118.354 21.6413C118.354 19.502 120.088 17.7678 122.227 17.7678C124.366 17.7678 126.101 19.502 126.101 21.6413C126.101 23.7806 124.366 25.5148 122.227 25.5148Z" fill="#63A18F"/>
    <path d="M168.916 116.566C166.992 116.566 165.432 115.007 165.432 113.083C165.432 111.159 166.992 109.599 168.916 109.599C170.84 109.599 172.399 111.159 172.399 113.083C172.399 115.007 170.84 116.566 168.916 116.566Z" fill="#E1E4E5"/>
    <path d="M15.0275 99.3983C13.7844 99.3983 12.7767 98.3906 12.7767 97.1475C12.7767 95.9044 13.7844 94.8967 15.0275 94.8967C16.2706 94.8967 17.2783 95.9044 17.2783 97.1475C17.2783 98.3906 16.2706 99.3983 15.0275 99.3983Z" fill="white"/>
    <path d="M75.6491 121.473C74.652 121.473 73.8436 120.664 73.8436 119.667C73.8436 118.67 74.652 117.862 75.6491 117.862C76.6462 117.862 77.4546 118.67 77.4546 119.667C77.4546 120.664 76.6462 121.473 75.6491 121.473Z" fill="#E1E4E5"/>
    <path d="M150.632 25.5628C149.11 25.5628 147.877 24.3291 147.877 22.8073C147.877 21.2855 149.11 20.0518 150.632 20.0518C152.154 20.0518 153.388 21.2855 153.388 22.8073C153.388 24.3291 152.154 25.5628 150.632 25.5628Z" fill="#E1E4E5"/>
    <path d="M32.9186 67.7775C33.1763 68.739 32.6057 69.7273 31.6442 69.9849C30.6827 70.2426 29.6943 69.672 29.4367 68.7105C29.1791 67.7489 29.7497 66.7606 30.7112 66.503C31.6727 66.2454 32.661 66.816 32.9186 67.7775Z" fill="white"/>
    <path d="M68.9733 28.8027C67.649 28.8027 66.5754 27.7292 66.5754 26.4049C66.5754 25.0806 67.649 24.0071 68.9733 24.0071C70.2975 24.0071 71.3711 25.0806 71.3711 26.4049C71.3711 27.7292 70.2975 28.8027 68.9733 28.8027Z" fill="#E1E4E5"/>
    <path d="M148.054 74.3598C147.035 74.3598 146.21 73.6991 146.21 72.8841C146.21 72.0691 147.035 71.4084 148.054 71.4084C149.073 71.4084 149.898 72.0691 149.898 72.8841C149.898 73.6991 149.073 74.3598 148.054 74.3598Z" fill="white"/>
    <path d="M177.845 99.7371C176.355 100.464 174.682 100.1 174.108 98.9234C173.534 97.7471 174.277 96.2041 175.767 95.4772C177.257 94.7502 178.93 95.1145 179.504 96.2909C180.078 97.4672 179.335 99.0102 177.845 99.7371Z" fill="white"/>
    <path d="M114.04 3.99403C114.539 5.8562 113.433 7.77028 111.571 8.26925C109.709 8.76821 107.795 7.66312 107.296 5.80095C106.797 3.93878 107.902 2.02471 109.764 1.52574C111.626 1.02677 113.541 2.13187 114.04 3.99403Z" fill="#E1E4E5"/>
    <path d="M191.177 55.4113H191.225C191.511 59.4597 194.521 59.5219 194.521 59.5219C194.521 59.5219 191.201 59.5867 191.201 64.2646C191.201 59.5867 187.881 59.5219 187.881 59.5219C187.881 59.5219 190.891 59.4597 191.177 55.4113ZM53.2905 4.73071H53.3736C53.8657 11.8155 59.0509 11.9245 59.0509 11.9245C59.0509 11.9245 53.3331 12.038 53.3331 20.2241C53.3331 12.038 47.6152 11.9245 47.6152 11.9245C47.6152 11.9245 52.7985 11.8155 53.2905 4.73071Z" fill="#E1E4E5"/>
    <defs>
        <linearGradient id="paint0_linear_285_614" x1="119.756" y1="173.685" x2="60.7199" y2="-92.6641" gradientUnits="userSpaceOnUse">
            <stop stop-color="white"/>
            <stop offset="1" stop-color="#EEEEEE"/>
        </linearGradient>
        <linearGradient id="paint1_linear_285_614" x1="124.299" y1="69.023" x2="98.5207" y2="-46.813" gradientUnits="userSpaceOnUse">
            <stop stop-color="white"/>
            <stop offset="1" stop-color="#EEEEEE"/>
        </linearGradient>
        <linearGradient id="paint2_linear_285_614" x1="149.884" y1="57.5026" x2="200.726" y2="33.4834" gradientUnits="userSpaceOnUse">
            <stop stop-color="white"/>
            <stop offset="1" stop-color="#EEEEEE"/>
        </linearGradient>
        <linearGradient id="paint3_linear_285_614" x1="205.588" y1="103.105" x2="178.544" y2="74.5877" gradientUnits="userSpaceOnUse">
            <stop stop-color="white"/>
            <stop offset="1" stop-color="#EEEEEE"/>
        </linearGradient>
        <linearGradient id="paint4_linear_285_614" x1="61.465" y1="122.145" x2="42.3015" y2="92.104" gradientUnits="userSpaceOnUse">
            <stop stop-color="white"/>
            <stop offset="1" stop-color="#EEEEEE"/>
        </linearGradient>
    </defs>
</svg>
