<svg width="254" height="169" viewBox="0 0 254 169" fill="none" xmlns="http://www.w3.org/2000/svg">
<path d="M180.477 98.9223C181.353 115.065 149.793 147.889 110.892 135.74C92.7997 130.089 94.3322 120.709 80.5751 108.348C72.3749 100.98 60.5928 95.4093 57.3159 84.6998C54.4851 75.456 56.2211 65.5205 61.1288 59.058C72.1665 44.524 94.4494 34.5718 116.405 57.4711C138.36 80.3703 178.213 57.2885 180.477 98.9223Z" fill="url(#paint0_linear_233_495)"/>
<path d="M166.782 57.5714C163.89 62.733 157.556 63.4422 147.408 62.4612C139.777 61.7221 132.817 61.1503 125.185 56.989C119.843 54.0785 115.614 50.1408 112.528 46.3161C109.183 42.173 104.515 37.4444 106.804 32.7465C109.948 26.2935 128.135 20.8582 145.795 29.7462C165.195 39.5127 169.611 52.5265 166.782 57.5714Z" fill="url(#paint1_linear_233_495)"/>
<path fill-rule="evenodd" clip-rule="evenodd" d="M96.7296 122.076C95.767 122.593 94.6786 122.829 93.5886 122.757C92.4985 122.685 91.4505 122.309 90.564 121.67C89.6774 121.032 88.988 120.157 88.5742 119.146C88.1604 118.135 88.0389 117.028 88.2235 115.952L92.4426 91.5366L74.5748 74.2375C73.8008 73.476 73.2546 72.5137 72.9978 71.4588C72.741 70.4038 72.7837 69.2982 73.1211 68.2662C73.4585 67.2342 74.0772 66.3168 74.9076 65.6174C75.7381 64.9179 76.7472 64.4641 77.8216 64.307L102.523 60.7442L113.557 38.5117C114.046 37.5353 114.797 36.7143 115.726 36.1404C116.654 35.5666 117.725 35.2627 118.816 35.2627C119.908 35.2627 120.979 35.5666 121.907 36.1404C122.836 36.7143 123.587 37.5353 124.076 38.5117L135.109 60.7442L159.811 64.307C160.886 64.4639 161.895 64.9175 162.726 65.617C163.556 66.3164 164.175 67.2338 164.513 68.2658C164.85 69.2979 164.893 70.4037 164.636 71.4587C164.379 72.5138 163.833 73.4761 163.058 74.2375L145.181 91.527L149.4 115.942C149.586 117.019 149.466 118.128 149.053 119.14C148.64 120.152 147.951 121.028 147.064 121.668C146.177 122.307 145.128 122.684 144.037 122.757C142.946 122.829 141.857 122.593 140.894 122.076L118.807 110.561L96.7296 122.076ZM39.1462 122.434C38.67 122.689 38.1315 122.806 37.5922 122.771C37.0528 122.735 36.5343 122.549 36.0956 122.233C35.6569 121.917 35.3158 121.485 35.111 120.984C34.9063 120.484 34.8462 119.937 34.9375 119.404L37.025 107.325L28.1843 98.7661C27.8012 98.3894 27.5309 97.9133 27.4037 97.3913C27.2766 96.8693 27.2977 96.3222 27.4647 95.8116C27.6317 95.3009 27.9379 94.847 28.3489 94.501C28.7599 94.155 29.2593 93.9305 29.7909 93.853L42.013 92.0903L47.4723 81.091C47.7141 80.608 48.0856 80.2018 48.5452 79.918C49.0048 79.6341 49.5343 79.4838 50.0744 79.4838C50.6146 79.4838 51.1441 79.6341 51.6037 79.918C52.0633 80.2018 52.4348 80.608 52.6766 81.091L58.1359 92.0903L70.3582 93.853C70.8898 93.9306 71.3892 94.155 71.8002 94.5011C72.2111 94.8471 72.5173 95.301 72.6843 95.8117C72.8512 96.3223 72.8723 96.8694 72.7452 97.3914C72.618 97.9133 72.3477 98.3895 71.9646 98.7661L63.1191 107.32L65.2066 119.399C65.299 119.932 65.2397 120.48 65.0354 120.981C64.8311 121.483 64.49 121.916 64.0512 122.232C63.6123 122.549 63.0933 122.736 62.5534 122.771C62.0135 122.807 61.4745 122.69 60.9979 122.434L50.0698 116.737L39.1462 122.434ZM176.61 122.434C176.134 122.689 175.596 122.806 175.056 122.771C174.517 122.735 173.998 122.549 173.56 122.233C173.121 121.917 172.78 121.485 172.575 120.984C172.37 120.484 172.31 119.937 172.402 119.404L174.489 107.325L165.648 98.7661C165.265 98.3894 164.995 97.9133 164.868 97.3913C164.741 96.8693 164.762 96.3222 164.929 95.8116C165.096 95.3009 165.402 94.847 165.813 94.501C166.224 94.155 166.723 93.9305 167.255 93.853L179.477 92.0903L184.936 81.091C185.178 80.608 185.55 80.2018 186.009 79.918C186.469 79.6341 186.998 79.4838 187.538 79.4838C188.079 79.4838 188.608 79.6341 189.068 79.918C189.527 80.2018 189.899 80.608 190.141 81.091L195.6 92.0903L207.822 93.853C208.354 93.9306 208.853 94.1551 209.264 94.5012C209.675 94.8472 209.981 95.3011 210.148 95.8117C210.315 96.3223 210.336 96.8693 210.209 97.3913C210.082 97.9133 209.812 98.3894 209.429 98.7661L200.583 107.32L202.671 119.399C202.763 119.932 202.704 120.48 202.499 120.981C202.295 121.482 201.954 121.916 201.515 122.232C201.076 122.548 200.557 122.735 200.017 122.771C199.478 122.806 198.939 122.69 198.462 122.434L187.534 116.737L176.61 122.434Z" fill="#575FF3" stroke="#575FF3" stroke-width="7.28784" stroke-linecap="round" stroke-linejoin="round"/>
<path d="M126.909 77.3918L116.784 87.5166L110.704 81.4408" stroke="white" stroke-width="7.28784" stroke-linecap="round" stroke-linejoin="round"/>
<path d="M194.755 76.082C188.947 77.4579 182.805 72.5324 182.805 72.5324C182.805 72.5324 186.082 65.3789 191.892 64.0072C197.7 62.6313 203.841 67.5525 203.841 67.5525C203.841 67.5525 200.563 74.706 194.755 76.082Z" fill="url(#paint2_linear_233_495)"/>
<path d="M215.205 117.34C218.64 119.706 223.889 118.052 223.889 118.052C223.889 118.052 223.564 112.562 220.126 110.198C216.691 107.832 211.444 109.484 211.444 109.484C211.444 109.484 211.769 114.974 215.205 117.34Z" fill="url(#paint3_linear_233_495)"/>
<path d="M73.8889 134.929C76.5397 137.627 81.4968 137.058 81.4968 137.058C81.4968 137.058 82.1525 132.115 79.4995 129.419C76.8487 126.721 71.8942 127.288 71.8942 127.288C71.8942 127.288 71.2382 132.231 73.8889 134.929Z" fill="url(#paint4_linear_233_495)"/>
<path d="M200.416 94.4417C198.073 94.4417 196.174 96.2584 196.174 98.4994C196.174 100.74 198.073 102.557 200.416 102.557C202.759 102.557 204.658 100.74 204.658 98.4994C204.658 96.2584 202.759 94.4417 200.416 94.4417Z" fill="#575FF3"/>
<path d="M118.994 132.91C115.836 132.91 113.276 135.387 113.276 138.443C113.276 141.499 115.836 143.977 118.994 143.977C122.152 143.977 124.712 141.499 124.712 138.443C124.712 135.387 122.152 132.91 118.994 132.91Z" fill="#575FF3"/>
<path d="M54.216 62.3153C51.9164 62.3153 50.0521 60.4511 50.0521 58.1514C50.0521 55.8518 51.9164 53.9875 54.216 53.9875C56.5157 53.9875 58.3799 55.8518 58.3799 58.1514C58.3799 60.4511 56.5157 62.3153 54.216 62.3153Z" fill="#575FF3"/>
<path d="M145.227 47.515C143.088 47.515 141.354 45.7808 141.354 43.6415C141.354 41.5023 143.088 39.7681 145.227 39.7681C147.366 39.7681 149.101 41.5023 149.101 43.6415C149.101 45.7808 147.366 47.515 145.227 47.515Z" fill="#575FF3"/>
<path d="M191.916 138.566C189.992 138.566 188.432 137.007 188.432 135.083C188.432 133.159 189.992 131.599 191.916 131.599C193.84 131.599 195.399 133.159 195.399 135.083C195.399 137.007 193.84 138.566 191.916 138.566Z" fill="#E1E4E5"/>
<path d="M38.0275 121.398C36.7844 121.398 35.7767 120.391 35.7767 119.148C35.7767 117.904 36.7844 116.897 38.0275 116.897C39.2706 116.897 40.2783 117.904 40.2783 119.148C40.2783 120.391 39.2706 121.398 38.0275 121.398Z" fill="white"/>
<path d="M98.6491 143.473C97.652 143.473 96.8436 142.664 96.8436 141.667C96.8436 140.67 97.652 139.862 98.6491 139.862C99.6462 139.862 100.455 140.67 100.455 141.667C100.455 142.664 99.6462 143.473 98.6491 143.473Z" fill="#E1E4E5"/>
<path d="M173.632 47.5628C172.11 47.5628 170.877 46.3291 170.877 44.8073C170.877 43.2855 172.11 42.0518 173.632 42.0518C175.154 42.0518 176.388 43.2855 176.388 44.8073C176.388 46.3291 175.154 47.5628 173.632 47.5628Z" fill="#E1E4E5"/>
<path d="M55.9186 89.7777C56.1763 90.7392 55.6057 91.7275 54.6442 91.9852C53.6827 92.2428 52.6943 91.6722 52.4367 90.7107C52.1791 89.7492 52.7497 88.7609 53.7112 88.5032C54.6727 88.2456 55.661 88.8162 55.9186 89.7777Z" fill="white"/>
<path d="M91.9733 50.8027C90.649 50.8027 89.5754 49.7292 89.5754 48.4049C89.5754 47.0806 90.649 46.0071 91.9733 46.0071C93.2975 46.0071 94.3711 47.0806 94.3711 48.4049C94.3711 49.7292 93.2975 50.8027 91.9733 50.8027Z" fill="#E1E4E5"/>
<path d="M171.054 96.3598C170.035 96.3598 169.21 95.6991 169.21 94.8841C169.21 94.0691 170.035 93.4084 171.054 93.4084C172.073 93.4084 172.898 94.0691 172.898 94.8841C172.898 95.6991 172.073 96.3598 171.054 96.3598Z" fill="white"/>
<path d="M200.845 121.737C199.355 122.464 197.682 122.1 197.108 120.923C196.534 119.747 197.277 118.204 198.767 117.477C200.257 116.75 201.93 117.115 202.504 118.291C203.078 119.467 202.335 121.01 200.845 121.737Z" fill="white"/>
<path d="M137.04 25.994C137.539 27.8562 136.433 29.7703 134.571 30.2692C132.709 30.7682 130.795 29.6631 130.296 27.801C129.797 25.9388 130.902 24.0247 132.764 23.5257C134.626 23.0268 136.541 24.1319 137.04 25.994Z" fill="#E1E4E5"/>
<path d="M214.177 77.4113H214.225C214.511 81.4597 217.521 81.5219 217.521 81.5219C217.521 81.5219 214.201 81.5867 214.201 86.2646C214.201 81.5867 210.881 81.5219 210.881 81.5219C210.881 81.5219 213.891 81.4597 214.177 77.4113ZM76.2905 26.7307H76.3736C76.8657 33.8155 82.0509 33.9245 82.0509 33.9245C82.0509 33.9245 76.3331 34.038 76.3331 42.2241C76.3331 34.038 70.6152 33.9245 70.6152 33.9245C70.6152 33.9245 75.7985 33.8155 76.2905 26.7307Z" fill="#E1E4E5"/>
<defs>
<linearGradient id="paint0_linear_233_495" x1="142.756" y1="195.685" x2="83.7199" y2="-70.6639" gradientUnits="userSpaceOnUse">
<stop stop-color="white"/>
<stop offset="1" stop-color="#EEEEEE"/>
</linearGradient>
<linearGradient id="paint1_linear_233_495" x1="147.299" y1="91.023" x2="121.521" y2="-24.813" gradientUnits="userSpaceOnUse">
<stop stop-color="white"/>
<stop offset="1" stop-color="#EEEEEE"/>
</linearGradient>
<linearGradient id="paint2_linear_233_495" x1="172.884" y1="79.5028" x2="223.726" y2="55.4837" gradientUnits="userSpaceOnUse">
<stop stop-color="white"/>
<stop offset="1" stop-color="#EEEEEE"/>
</linearGradient>
<linearGradient id="paint3_linear_233_495" x1="228.588" y1="125.105" x2="201.544" y2="96.5877" gradientUnits="userSpaceOnUse">
<stop stop-color="white"/>
<stop offset="1" stop-color="#EEEEEE"/>
</linearGradient>
<linearGradient id="paint4_linear_233_495" x1="84.465" y1="144.145" x2="65.3015" y2="114.104" gradientUnits="userSpaceOnUse">
<stop stop-color="white"/>
<stop offset="1" stop-color="#EEEEEE"/>
</linearGradient>
</defs>
</svg>
