<?xml version="1.0" encoding="iso-8859-1"?>
<!-- Generator: Adobe Illustrator 19.1.0, SVG Export Plug-In . SVG Version: 6.00 Build 0)  -->
<svg version="1.1" id="Capa_1" xmlns="http://www.w3.org/2000/svg" xmlns:xlink="http://www.w3.org/1999/xlink" x="0px" y="0px"
	 viewBox="0 0 305.538 305.538" style="enable-background:new 0 0 305.538 305.538;" xml:space="preserve">
<g>
	<path d="M292.575,41.852h-25.193v-25.2V3.798h-12.854h-19.03h-12.854v12.854v25.2h-25.193h-12.854v12.854v4.569
		c-1.363-5.431-3.252-10.566-5.713-15.251l2.815-2.956l18.426-19.351L220.807,0h-29.988h-82.463
		C59.795,0,18.773,35.566,18.773,77.668c0,41.17,26.716,70.798,66.029,74.744c-0.096,1.118-0.141,2.237-0.141,3.342
		c0,3.329,0.424,6.35,1.157,9.107c-51.633,3.824-85.715,41.684-85.715,77.173c0,37.385,41.62,63.504,101.203,63.504
		c63.272,0,101.081-38.143,101.081-75.014c0-30.605-8.689-46.453-37.173-67.822l-1.755-1.311
		c-3.728-2.77-14.698-10.913-17.359-15.142c0.148-3.104,1.382-5.219,11.594-13.194c16.735-13.091,26.575-29.03,28.818-46.46h10.945
		h25.193v25.2v12.854h12.854h19.03h12.854v-12.854v-25.2h25.193h12.854V73.741v-19.03V41.858h-12.86V41.852z M149.777,122.92
		c-13.914,10.868-16.556,15.424-16.556,24.679c0,7.892,16.633,19.66,24.281,25.38c26.639,19.981,32.031,32.545,32.031,57.539
		c0,31.17-33.599,62.16-88.228,62.16c-47.918,0-88.35-19.48-88.35-50.65c0-31.659,33.548-64.635,81.46-64.635
		c5.225,0,10.007-0.129,14.962-0.129c-6.562-6.388-11.864-11.89-11.864-21.523c0-5.72,1.825-11.176,4.383-16.074
		c-2.609,0.186-5.257,0.328-8.001,0.328c-39.352,0-62.263-27.655-62.263-62.34c0-33.947,34.872-64.815,76.73-64.815
		c21.562,0,82.469,0,82.469,0L172.4,32.198h-21.652c15.27,8.753,23.407,26.774,23.407,46.64
		C174.154,97.064,164.039,111.763,149.777,122.92z M292.575,73.735h-38.047v38.053h-19.03V73.735h-38.047v-19.03h38.047V16.652
		h19.03v38.053h38.047V73.735z M95.933,26.266c-0.321-0.006-0.636-0.013-0.951-0.013c-21.691,0-36.132,22.121-32.34,50.901
		c3.843,29.184,24.962,49.577,47.192,50.239c0.386,0.013,0.758,0.013,1.138,0.013c21.523,0,33.818-18.638,30.045-47.334
		C137.181,50.888,118.151,26.935,95.933,26.266z M123.151,109.578c-2.943,3.355-6.928,4.981-12.185,4.981l-0.752-0.006
		c-16.993-0.508-31.967-17.307-34.827-39.069c-1.626-12.352,0.906-23.715,6.774-30.412c3.47-3.953,7.783-5.958,12.828-5.964
		l0.572,0.006c15.007,0.45,29.686,19.576,32.713,42.636C129.861,93.909,127.997,104.044,123.151,109.578z M105.272,187.156
		c-0.289-0.006-0.578-0.006-0.868-0.006c-32.732,0-60.322,21.144-60.322,45.611c0,25.193,23.921,46.158,57.038,46.158
		c46.562,0,62.803-19.685,62.803-44.872c0-3.04-0.392-6.016-1.054-8.888c-3.638-14.261-18.149-22.07-36.138-34.57
		C120.195,188.473,112.997,187.227,105.272,187.156z M150.414,228.333c0.411,1.787,0.656,3.805,0.656,5.707
		c0,7.918,0,32.018-49.949,32.018c-24.775,0-44.184-14.627-44.184-33.304c0-17.14,22.629-32.758,47.469-32.758l0.72,0.006
		c5.508,0.051,10.861,0.823,15.945,2.275c2.069,1.433,4.094,2.796,6.054,4.126C140.78,215.64,148.601,221.212,150.414,228.333z"/>
</g>
<g>
</g>
<g>
</g>
<g>
</g>
<g>
</g>
<g>
</g>
<g>
</g>
<g>
</g>
<g>
</g>
<g>
</g>
<g>
</g>
<g>
</g>
<g>
</g>
<g>
</g>
<g>
</g>
<g>
</g>
</svg>
