<svg width="128" height="128" viewBox="0 0 128 128" fill="none" xmlns="http://www.w3.org/2000/svg">
<rect x="0.566372" y="0.566372" width="126.867" height="126.867" rx="3.9646" fill="#F0B316" stroke="#F0B316" stroke-width="1.13274"/>
<path d="M81.6476 35.3334H31.0664V85.9146H81.6476V35.3334Z" fill="white"/>
<path d="M47.4354 53.1374C48.2282 53.1374 48.8708 52.4948 48.8708 51.702C48.8708 50.9092 48.2282 50.2666 47.4354 50.2666C46.6426 50.2666 46 50.9092 46 51.702C46 52.4948 46.6426 53.1374 47.4354 53.1374Z" fill="#111111"/>
<path d="M53.6698 53.1374C54.4626 53.1374 55.1052 52.4948 55.1052 51.702C55.1052 50.9092 54.4626 50.2666 53.6698 50.2666C52.877 50.2666 52.2344 50.9092 52.2344 51.702C52.2344 52.4948 52.877 53.1374 53.6698 53.1374Z" fill="#111111"/>
<path d="M59.9032 53.1374C60.696 53.1374 61.3386 52.4948 61.3386 51.702C61.3386 50.9092 60.696 50.2666 59.9032 50.2666C59.1104 50.2666 58.4678 50.9092 58.4678 51.702C58.4678 52.4948 59.1104 53.1374 59.9032 53.1374Z" fill="#111111"/>
<path d="M66.1356 53.1374C66.9284 53.1374 67.571 52.4948 67.571 51.702C67.571 50.9092 66.9284 50.2666 66.1356 50.2666C65.3428 50.2666 64.7002 50.9092 64.7002 51.702C64.7002 52.4948 65.3428 53.1374 66.1356 53.1374Z" fill="#111111"/>
<path d="M72.37 53.1374C73.1628 53.1374 73.8054 52.4948 73.8054 51.702C73.8054 50.9092 73.1628 50.2666 72.37 50.2666C71.5772 50.2666 70.9346 50.9092 70.9346 51.702C70.9346 52.4948 71.5772 53.1374 72.37 53.1374Z" fill="#111111"/>
<path d="M78.6034 53.1374C79.3962 53.1374 80.0388 52.4948 80.0388 51.702C80.0388 50.9092 79.3962 50.2666 78.6034 50.2666C77.8106 50.2666 77.168 50.9092 77.168 51.702C77.168 52.4948 77.8106 53.1374 78.6034 53.1374Z" fill="#111111"/>
<path d="M84.8377 53.1374C85.6305 53.1374 86.2731 52.4948 86.2731 51.702C86.2731 50.9092 85.6305 50.2666 84.8377 50.2666C84.0449 50.2666 83.4023 50.9092 83.4023 51.702C83.4023 52.4948 84.0449 53.1374 84.8377 53.1374Z" fill="#111111"/>
<path d="M91.0721 53.1374C91.8649 53.1374 92.5075 52.4948 92.5075 51.702C92.5075 50.9092 91.8649 50.2666 91.0721 50.2666C90.2793 50.2666 89.6367 50.9092 89.6367 51.702C89.6367 52.4948 90.2793 53.1374 91.0721 53.1374Z" fill="#111111"/>
<path d="M47.4354 59.3866C48.2282 59.3866 48.8708 58.7438 48.8708 57.951C48.8708 57.1582 48.2282 56.5156 47.4354 56.5156C46.6426 56.5156 46 57.1582 46 57.951C46 58.7438 46.6426 59.3866 47.4354 59.3866Z" fill="#111111"/>
<path d="M53.6698 59.3866C54.4626 59.3866 55.1052 58.7438 55.1052 57.951C55.1052 57.1582 54.4626 56.5156 53.6698 56.5156C52.877 56.5156 52.2344 57.1582 52.2344 57.951C52.2344 58.7438 52.877 59.3866 53.6698 59.3866Z" fill="#111111"/>
<path d="M59.9032 59.3866C60.696 59.3866 61.3386 58.7438 61.3386 57.951C61.3386 57.1582 60.696 56.5156 59.9032 56.5156C59.1104 56.5156 58.4678 57.1582 58.4678 57.951C58.4678 58.7438 59.1104 59.3866 59.9032 59.3866Z" fill="#111111"/>
<path d="M66.1356 59.3866C66.9284 59.3866 67.571 58.7438 67.571 57.951C67.571 57.1582 66.9284 56.5156 66.1356 56.5156C65.3428 56.5156 64.7002 57.1582 64.7002 57.951C64.7002 58.7438 65.3428 59.3866 66.1356 59.3866Z" fill="#111111"/>
<path d="M72.37 59.3866C73.1628 59.3866 73.8054 58.7438 73.8054 57.951C73.8054 57.1582 73.1628 56.5156 72.37 56.5156C71.5772 56.5156 70.9346 57.1582 70.9346 57.951C70.9346 58.7438 71.5772 59.3866 72.37 59.3866Z" fill="#111111"/>
<path d="M78.6034 59.3866C79.3962 59.3866 80.0388 58.7438 80.0388 57.951C80.0388 57.1582 79.3962 56.5156 78.6034 56.5156C77.8106 56.5156 77.168 57.1582 77.168 57.951C77.168 58.7438 77.8106 59.3866 78.6034 59.3866Z" fill="#111111"/>
<path d="M84.8377 59.3866C85.6305 59.3866 86.2731 58.7438 86.2731 57.951C86.2731 57.1582 85.6305 56.5156 84.8377 56.5156C84.0449 56.5156 83.4023 57.1582 83.4023 57.951C83.4023 58.7438 84.0449 59.3866 84.8377 59.3866Z" fill="#111111"/>
<path d="M91.0721 59.3866C91.8649 59.3866 92.5075 58.7438 92.5075 57.951C92.5075 57.1582 91.8649 56.5156 91.0721 56.5156C90.2793 56.5156 89.6367 57.1582 89.6367 57.951C89.6367 58.7438 90.2793 59.3866 91.0721 59.3866Z" fill="#111111"/>
<path d="M47.4354 65.635C48.2282 65.635 48.8708 64.9924 48.8708 64.1996C48.8708 63.4068 48.2282 62.7642 47.4354 62.7642C46.6426 62.7642 46 63.4068 46 64.1996C46 64.9924 46.6426 65.635 47.4354 65.635Z" fill="#111111"/>
<path d="M53.6698 65.635C54.4626 65.635 55.1052 64.9924 55.1052 64.1996C55.1052 63.4068 54.4626 62.7642 53.6698 62.7642C52.877 62.7642 52.2344 63.4068 52.2344 64.1996C52.2344 64.9924 52.877 65.635 53.6698 65.635Z" fill="#111111"/>
<path d="M59.9032 65.635C60.696 65.635 61.3386 64.9924 61.3386 64.1996C61.3386 63.4068 60.696 62.7642 59.9032 62.7642C59.1104 62.7642 58.4678 63.4068 58.4678 64.1996C58.4678 64.9924 59.1104 65.635 59.9032 65.635Z" fill="#111111"/>
<path d="M66.1356 65.635C66.9284 65.635 67.571 64.9924 67.571 64.1996C67.571 63.4068 66.9284 62.7642 66.1356 62.7642C65.3428 62.7642 64.7002 63.4068 64.7002 64.1996C64.7002 64.9924 65.3428 65.635 66.1356 65.635Z" fill="#111111"/>
<path d="M72.37 65.635C73.1628 65.635 73.8054 64.9924 73.8054 64.1996C73.8054 63.4068 73.1628 62.7642 72.37 62.7642C71.5772 62.7642 70.9346 63.4068 70.9346 64.1996C70.9346 64.9924 71.5772 65.635 72.37 65.635Z" fill="#111111"/>
<path d="M78.6034 65.635C79.3962 65.635 80.0388 64.9924 80.0388 64.1996C80.0388 63.4068 79.3962 62.7642 78.6034 62.7642C77.8106 62.7642 77.168 63.4068 77.168 64.1996C77.168 64.9924 77.8106 65.635 78.6034 65.635Z" fill="#111111"/>
<path d="M84.8377 65.635C85.6305 65.635 86.2731 64.9924 86.2731 64.1996C86.2731 63.4068 85.6305 62.7642 84.8377 62.7642C84.0449 62.7642 83.4023 63.4068 83.4023 64.1996C83.4023 64.9924 84.0449 65.635 84.8377 65.635Z" fill="#111111"/>
<path d="M91.0721 65.635C91.8649 65.635 92.5075 64.9924 92.5075 64.1996C92.5075 63.4068 91.8649 62.7642 91.0721 62.7642C90.2793 62.7642 89.6367 63.4068 89.6367 64.1996C89.6367 64.9924 90.2793 65.635 91.0721 65.635Z" fill="#111111"/>
<path d="M47.4354 71.884C48.2282 71.884 48.8708 71.2414 48.8708 70.4486C48.8708 69.6558 48.2282 69.0132 47.4354 69.0132C46.6426 69.0132 46 69.6558 46 70.4486C46 71.2414 46.6426 71.884 47.4354 71.884Z" fill="#111111"/>
<path d="M53.6698 71.884C54.4626 71.884 55.1052 71.2414 55.1052 70.4486C55.1052 69.6558 54.4626 69.0132 53.6698 69.0132C52.877 69.0132 52.2344 69.6558 52.2344 70.4486C52.2344 71.2414 52.877 71.884 53.6698 71.884Z" fill="#111111"/>
<path d="M59.9032 71.884C60.696 71.884 61.3386 71.2414 61.3386 70.4486C61.3386 69.6558 60.696 69.0132 59.9032 69.0132C59.1104 69.0132 58.4678 69.6558 58.4678 70.4486C58.4678 71.2414 59.1104 71.884 59.9032 71.884Z" fill="#111111"/>
<path d="M66.1356 71.884C66.9284 71.884 67.571 71.2414 67.571 70.4486C67.571 69.6558 66.9284 69.0132 66.1356 69.0132C65.3428 69.0132 64.7002 69.6558 64.7002 70.4486C64.7002 71.2414 65.3428 71.884 66.1356 71.884Z" fill="#111111"/>
<path d="M72.37 71.884C73.1628 71.884 73.8054 71.2414 73.8054 70.4486C73.8054 69.6558 73.1628 69.0132 72.37 69.0132C71.5772 69.0132 70.9346 69.6558 70.9346 70.4486C70.9346 71.2414 71.5772 71.884 72.37 71.884Z" fill="#111111"/>
<path d="M78.6034 71.884C79.3962 71.884 80.0388 71.2414 80.0388 70.4486C80.0388 69.6558 79.3962 69.0132 78.6034 69.0132C77.8106 69.0132 77.168 69.6558 77.168 70.4486C77.168 71.2414 77.8106 71.884 78.6034 71.884Z" fill="#111111"/>
<path d="M84.8377 71.884C85.6305 71.884 86.2731 71.2414 86.2731 70.4486C86.2731 69.6558 85.6305 69.0132 84.8377 69.0132C84.0449 69.0132 83.4023 69.6558 83.4023 70.4486C83.4023 71.2414 84.0449 71.884 84.8377 71.884Z" fill="#111111"/>
<path d="M91.0721 71.884C91.8649 71.884 92.5075 71.2414 92.5075 70.4486C92.5075 69.6558 91.8649 69.0132 91.0721 69.0132C90.2793 69.0132 89.6367 69.6558 89.6367 70.4486C89.6367 71.2414 90.2793 71.884 91.0721 71.884Z" fill="#111111"/>
<path d="M47.4354 78.1336C48.2282 78.1336 48.8708 77.491 48.8708 76.6982C48.8708 75.9054 48.2282 75.2626 47.4354 75.2626C46.6426 75.2626 46 75.9054 46 76.6982C46 77.491 46.6426 78.1336 47.4354 78.1336Z" fill="#111111"/>
<path d="M53.6698 78.1336C54.4626 78.1336 55.1052 77.491 55.1052 76.6982C55.1052 75.9054 54.4626 75.2626 53.6698 75.2626C52.877 75.2626 52.2344 75.9054 52.2344 76.6982C52.2344 77.491 52.877 78.1336 53.6698 78.1336Z" fill="#111111"/>
<path d="M59.9032 78.1336C60.696 78.1336 61.3386 77.491 61.3386 76.6982C61.3386 75.9054 60.696 75.2626 59.9032 75.2626C59.1104 75.2626 58.4678 75.9054 58.4678 76.6982C58.4678 77.491 59.1104 78.1336 59.9032 78.1336Z" fill="#111111"/>
<path d="M66.1356 78.1336C66.9284 78.1336 67.571 77.491 67.571 76.6982C67.571 75.9054 66.9284 75.2626 66.1356 75.2626C65.3428 75.2626 64.7002 75.9054 64.7002 76.6982C64.7002 77.491 65.3428 78.1336 66.1356 78.1336Z" fill="#111111"/>
<path d="M72.37 78.1336C73.1628 78.1336 73.8054 77.491 73.8054 76.6982C73.8054 75.9054 73.1628 75.2626 72.37 75.2626C71.5772 75.2626 70.9346 75.9054 70.9346 76.6982C70.9346 77.491 71.5772 78.1336 72.37 78.1336Z" fill="#111111"/>
<path d="M78.6034 78.1336C79.3962 78.1336 80.0388 77.491 80.0388 76.6982C80.0388 75.9054 79.3962 75.2626 78.6034 75.2626C77.8106 75.2626 77.168 75.9054 77.168 76.6982C77.168 77.491 77.8106 78.1336 78.6034 78.1336Z" fill="#111111"/>
<path d="M84.8377 78.1336C85.6305 78.1336 86.2731 77.491 86.2731 76.6982C86.2731 75.9054 85.6305 75.2626 84.8377 75.2626C84.0449 75.2626 83.4023 75.9054 83.4023 76.6982C83.4023 77.491 84.0449 78.1336 84.8377 78.1336Z" fill="#111111"/>
<path d="M91.0721 78.1336C91.8649 78.1336 92.5075 77.491 92.5075 76.6982C92.5075 75.9054 91.8649 75.2626 91.0721 75.2626C90.2793 75.2626 89.6367 75.9054 89.6367 76.6982C89.6367 77.491 90.2793 78.1336 91.0721 78.1336Z" fill="#111111"/>
<path d="M47.4354 84.3822C48.2282 84.3822 48.8708 83.7394 48.8708 82.9466C48.8708 82.1538 48.2282 81.5112 47.4354 81.5112C46.6426 81.5112 46 82.1538 46 82.9466C46 83.7394 46.6426 84.3822 47.4354 84.3822Z" fill="#111111"/>
<path d="M53.6698 84.3822C54.4626 84.3822 55.1052 83.7394 55.1052 82.9466C55.1052 82.1538 54.4626 81.5112 53.6698 81.5112C52.877 81.5112 52.2344 82.1538 52.2344 82.9466C52.2344 83.7394 52.877 84.3822 53.6698 84.3822Z" fill="#111111"/>
<path d="M59.9032 84.3822C60.696 84.3822 61.3386 83.7394 61.3386 82.9466C61.3386 82.1538 60.696 81.5112 59.9032 81.5112C59.1104 81.5112 58.4678 82.1538 58.4678 82.9466C58.4678 83.7394 59.1104 84.3822 59.9032 84.3822Z" fill="#111111"/>
<path d="M66.1356 84.3822C66.9284 84.3822 67.571 83.7394 67.571 82.9466C67.571 82.1538 66.9284 81.5112 66.1356 81.5112C65.3428 81.5112 64.7002 82.1538 64.7002 82.9466C64.7002 83.7394 65.3428 84.3822 66.1356 84.3822Z" fill="#111111"/>
<path d="M72.37 84.3822C73.1628 84.3822 73.8054 83.7394 73.8054 82.9466C73.8054 82.1538 73.1628 81.5112 72.37 81.5112C71.5772 81.5112 70.9346 82.1538 70.9346 82.9466C70.9346 83.7394 71.5772 84.3822 72.37 84.3822Z" fill="#111111"/>
<path d="M78.6034 84.3822C79.3962 84.3822 80.0388 83.7394 80.0388 82.9466C80.0388 82.1538 79.3962 81.5112 78.6034 81.5112C77.8106 81.5112 77.168 82.1538 77.168 82.9466C77.168 83.7394 77.8106 84.3822 78.6034 84.3822Z" fill="#111111"/>
<path d="M84.8377 84.3822C85.6305 84.3822 86.2731 83.7394 86.2731 82.9466C86.2731 82.1538 85.6305 81.5112 84.8377 81.5112C84.0449 81.5112 83.4023 82.1538 83.4023 82.9466C83.4023 83.7394 84.0449 84.3822 84.8377 84.3822Z" fill="#111111"/>
<path d="M91.0721 84.3822C91.8649 84.3822 92.5075 83.7394 92.5075 82.9466C92.5075 82.1538 91.8649 81.5112 91.0721 81.5112C90.2793 81.5112 89.6367 82.1538 89.6367 82.9466C89.6367 83.7394 90.2793 84.3822 91.0721 84.3822Z" fill="#111111"/>
<path d="M47.4354 90.6313C48.2282 90.6313 48.8708 89.9885 48.8708 89.1957C48.8708 88.4031 48.2282 87.7603 47.4354 87.7603C46.6426 87.7603 46 88.4031 46 89.1957C46 89.9885 46.6426 90.6313 47.4354 90.6313Z" fill="#111111"/>
<path d="M53.6698 90.6313C54.4626 90.6313 55.1052 89.9885 55.1052 89.1957C55.1052 88.4031 54.4626 87.7603 53.6698 87.7603C52.877 87.7603 52.2344 88.4031 52.2344 89.1957C52.2344 89.9885 52.877 90.6313 53.6698 90.6313Z" fill="#111111"/>
<path d="M59.9032 90.6313C60.696 90.6313 61.3386 89.9885 61.3386 89.1957C61.3386 88.4031 60.696 87.7603 59.9032 87.7603C59.1104 87.7603 58.4678 88.4031 58.4678 89.1957C58.4678 89.9885 59.1104 90.6313 59.9032 90.6313Z" fill="#111111"/>
<path d="M66.1356 90.6313C66.9284 90.6313 67.571 89.9885 67.571 89.1957C67.571 88.4031 66.9284 87.7603 66.1356 87.7603C65.3428 87.7603 64.7002 88.4031 64.7002 89.1957C64.7002 89.9885 65.3428 90.6313 66.1356 90.6313Z" fill="#111111"/>
<path d="M72.37 90.6313C73.1628 90.6313 73.8054 89.9885 73.8054 89.1957C73.8054 88.4031 73.1628 87.7603 72.37 87.7603C71.5772 87.7603 70.9346 88.4031 70.9346 89.1957C70.9346 89.9885 71.5772 90.6313 72.37 90.6313Z" fill="#111111"/>
<path d="M78.6034 90.6313C79.3962 90.6313 80.0388 89.9885 80.0388 89.1957C80.0388 88.4031 79.3962 87.7603 78.6034 87.7603C77.8106 87.7603 77.168 88.4031 77.168 89.1957C77.168 89.9885 77.8106 90.6313 78.6034 90.6313Z" fill="#111111"/>
<path d="M84.8377 90.6313C85.6305 90.6313 86.2731 89.9885 86.2731 89.1957C86.2731 88.4031 85.6305 87.7603 84.8377 87.7603C84.0449 87.7603 83.4023 88.4031 83.4023 89.1957C83.4023 89.9885 84.0449 90.6313 84.8377 90.6313Z" fill="#111111"/>
<path d="M91.0721 90.6313C91.8649 90.6313 92.5075 89.9885 92.5075 89.1957C92.5075 88.4031 91.8649 87.7603 91.0721 87.7603C90.2793 87.7603 89.6367 88.4031 89.6367 89.1957C89.6367 89.9885 90.2793 90.6313 91.0721 90.6313Z" fill="#111111"/>
<path d="M47.4354 96.8796C48.2282 96.8796 48.8708 96.237 48.8708 95.4442C48.8708 94.6514 48.2282 94.0088 47.4354 94.0088C46.6426 94.0088 46 94.6514 46 95.4442C46 96.237 46.6426 96.8796 47.4354 96.8796Z" fill="#111111"/>
<path d="M53.6698 96.8796C54.4626 96.8796 55.1052 96.237 55.1052 95.4442C55.1052 94.6514 54.4626 94.0088 53.6698 94.0088C52.877 94.0088 52.2344 94.6514 52.2344 95.4442C52.2344 96.237 52.877 96.8796 53.6698 96.8796Z" fill="#111111"/>
<path d="M59.9032 96.8796C60.696 96.8796 61.3386 96.237 61.3386 95.4442C61.3386 94.6514 60.696 94.0088 59.9032 94.0088C59.1104 94.0088 58.4678 94.6514 58.4678 95.4442C58.4678 96.237 59.1104 96.8796 59.9032 96.8796Z" fill="#111111"/>
<path d="M66.1356 96.8796C66.9284 96.8796 67.571 96.237 67.571 95.4442C67.571 94.6514 66.9284 94.0088 66.1356 94.0088C65.3428 94.0088 64.7002 94.6514 64.7002 95.4442C64.7002 96.237 65.3428 96.8796 66.1356 96.8796Z" fill="#111111"/>
<path d="M72.37 96.8796C73.1628 96.8796 73.8054 96.237 73.8054 95.4442C73.8054 94.6514 73.1628 94.0088 72.37 94.0088C71.5772 94.0088 70.9346 94.6514 70.9346 95.4442C70.9346 96.237 71.5772 96.8796 72.37 96.8796Z" fill="#111111"/>
<path d="M78.6034 96.8796C79.3962 96.8796 80.0388 96.237 80.0388 95.4442C80.0388 94.6514 79.3962 94.0088 78.6034 94.0088C77.8106 94.0088 77.168 94.6514 77.168 95.4442C77.168 96.237 77.8106 96.8796 78.6034 96.8796Z" fill="#111111"/>
<path d="M84.8377 96.8796C85.6305 96.8796 86.2731 96.237 86.2731 95.4442C86.2731 94.6514 85.6305 94.0088 84.8377 94.0088C84.0449 94.0088 83.4023 94.6514 83.4023 95.4442C83.4023 96.237 84.0449 96.8796 84.8377 96.8796Z" fill="#111111"/>
<path d="M91.0721 96.8796C91.8649 96.8796 92.5075 96.237 92.5075 95.4442C92.5075 94.6514 91.8649 94.0088 91.0721 94.0088C90.2793 94.0088 89.6367 94.6514 89.6367 95.4442C89.6367 96.237 90.2793 96.8796 91.0721 96.8796Z" fill="#111111"/>
</svg>
