<svg width="48" height="48" viewBox="0 0 64 64" fill="none" xmlns="http://www.w3.org/2000/svg">
<circle cx="31.2083" cy="32.7916" r="31.075" fill="#F0B316"/>
<path d="M40.8238 17.6667H15.5332V42.9573H40.8238V17.6667Z" fill="white"/>
<path d="M23.7177 26.5687C24.1141 26.5687 24.4354 26.2474 24.4354 25.851C24.4354 25.4546 24.1141 25.1333 23.7177 25.1333C23.3213 25.1333 23 25.4546 23 25.851C23 26.2474 23.3213 26.5687 23.7177 26.5687Z" fill="#111111"/>
<path d="M26.8349 26.5687C27.2313 26.5687 27.5526 26.2474 27.5526 25.851C27.5526 25.4546 27.2313 25.1333 26.8349 25.1333C26.4385 25.1333 26.1172 25.4546 26.1172 25.851C26.1172 26.2474 26.4385 26.5687 26.8349 26.5687Z" fill="#111111"/>
<path d="M29.9516 26.5687C30.348 26.5687 30.6693 26.2474 30.6693 25.851C30.6693 25.4546 30.348 25.1333 29.9516 25.1333C29.5552 25.1333 29.2339 25.4546 29.2339 25.851C29.2339 26.2474 29.5552 26.5687 29.9516 26.5687Z" fill="#111111"/>
<path d="M33.0678 26.5687C33.4642 26.5687 33.7855 26.2474 33.7855 25.851C33.7855 25.4546 33.4642 25.1333 33.0678 25.1333C32.6714 25.1333 32.3501 25.4546 32.3501 25.851C32.3501 26.2474 32.6714 26.5687 33.0678 26.5687Z" fill="#111111"/>
<path d="M36.185 26.5687C36.5814 26.5687 36.9027 26.2474 36.9027 25.851C36.9027 25.4546 36.5814 25.1333 36.185 25.1333C35.7886 25.1333 35.4673 25.4546 35.4673 25.851C35.4673 26.2474 35.7886 26.5687 36.185 26.5687Z" fill="#111111"/>
<path d="M39.3017 26.5687C39.6981 26.5687 40.0194 26.2474 40.0194 25.851C40.0194 25.4546 39.6981 25.1333 39.3017 25.1333C38.9053 25.1333 38.584 25.4546 38.584 25.851C38.584 26.2474 38.9053 26.5687 39.3017 26.5687Z" fill="#111111"/>
<path d="M42.4189 26.5687C42.8153 26.5687 43.1366 26.2474 43.1366 25.851C43.1366 25.4546 42.8153 25.1333 42.4189 25.1333C42.0225 25.1333 41.7012 25.4546 41.7012 25.851C41.7012 26.2474 42.0225 26.5687 42.4189 26.5687Z" fill="#111111"/>
<path d="M45.5361 26.5687C45.9325 26.5687 46.2538 26.2474 46.2538 25.851C46.2538 25.4546 45.9325 25.1333 45.5361 25.1333C45.1397 25.1333 44.8184 25.4546 44.8184 25.851C44.8184 26.2474 45.1397 26.5687 45.5361 26.5687Z" fill="#111111"/>
<path d="M23.7177 29.6933C24.1141 29.6933 24.4354 29.3719 24.4354 28.9755C24.4354 28.5791 24.1141 28.2578 23.7177 28.2578C23.3213 28.2578 23 28.5791 23 28.9755C23 29.3719 23.3213 29.6933 23.7177 29.6933Z" fill="#111111"/>
<path d="M26.8349 29.6933C27.2313 29.6933 27.5526 29.3719 27.5526 28.9755C27.5526 28.5791 27.2313 28.2578 26.8349 28.2578C26.4385 28.2578 26.1172 28.5791 26.1172 28.9755C26.1172 29.3719 26.4385 29.6933 26.8349 29.6933Z" fill="#111111"/>
<path d="M29.9516 29.6933C30.348 29.6933 30.6693 29.3719 30.6693 28.9755C30.6693 28.5791 30.348 28.2578 29.9516 28.2578C29.5552 28.2578 29.2339 28.5791 29.2339 28.9755C29.2339 29.3719 29.5552 29.6933 29.9516 29.6933Z" fill="#111111"/>
<path d="M33.0678 29.6933C33.4642 29.6933 33.7855 29.3719 33.7855 28.9755C33.7855 28.5791 33.4642 28.2578 33.0678 28.2578C32.6714 28.2578 32.3501 28.5791 32.3501 28.9755C32.3501 29.3719 32.6714 29.6933 33.0678 29.6933Z" fill="#111111"/>
<path d="M36.185 29.6933C36.5814 29.6933 36.9027 29.3719 36.9027 28.9755C36.9027 28.5791 36.5814 28.2578 36.185 28.2578C35.7886 28.2578 35.4673 28.5791 35.4673 28.9755C35.4673 29.3719 35.7886 29.6933 36.185 29.6933Z" fill="#111111"/>
<path d="M39.3017 29.6933C39.6981 29.6933 40.0194 29.3719 40.0194 28.9755C40.0194 28.5791 39.6981 28.2578 39.3017 28.2578C38.9053 28.2578 38.584 28.5791 38.584 28.9755C38.584 29.3719 38.9053 29.6933 39.3017 29.6933Z" fill="#111111"/>
<path d="M42.4189 29.6933C42.8153 29.6933 43.1366 29.3719 43.1366 28.9755C43.1366 28.5791 42.8153 28.2578 42.4189 28.2578C42.0225 28.2578 41.7012 28.5791 41.7012 28.9755C41.7012 29.3719 42.0225 29.6933 42.4189 29.6933Z" fill="#111111"/>
<path d="M45.5361 29.6933C45.9325 29.6933 46.2538 29.3719 46.2538 28.9755C46.2538 28.5791 45.9325 28.2578 45.5361 28.2578C45.1397 28.2578 44.8184 28.5791 44.8184 28.9755C44.8184 29.3719 45.1397 29.6933 45.5361 29.6933Z" fill="#111111"/>
<path d="M23.7177 32.8175C24.1141 32.8175 24.4354 32.4962 24.4354 32.0998C24.4354 31.7034 24.1141 31.3821 23.7177 31.3821C23.3213 31.3821 23 31.7034 23 32.0998C23 32.4962 23.3213 32.8175 23.7177 32.8175Z" fill="#111111"/>
<path d="M26.8349 32.8175C27.2313 32.8175 27.5526 32.4962 27.5526 32.0998C27.5526 31.7034 27.2313 31.3821 26.8349 31.3821C26.4385 31.3821 26.1172 31.7034 26.1172 32.0998C26.1172 32.4962 26.4385 32.8175 26.8349 32.8175Z" fill="#111111"/>
<path d="M29.9516 32.8175C30.348 32.8175 30.6693 32.4962 30.6693 32.0998C30.6693 31.7034 30.348 31.3821 29.9516 31.3821C29.5552 31.3821 29.2339 31.7034 29.2339 32.0998C29.2339 32.4962 29.5552 32.8175 29.9516 32.8175Z" fill="#111111"/>
<path d="M33.0678 32.8175C33.4642 32.8175 33.7855 32.4962 33.7855 32.0998C33.7855 31.7034 33.4642 31.3821 33.0678 31.3821C32.6714 31.3821 32.3501 31.7034 32.3501 32.0998C32.3501 32.4962 32.6714 32.8175 33.0678 32.8175Z" fill="#111111"/>
<path d="M36.185 32.8175C36.5814 32.8175 36.9027 32.4962 36.9027 32.0998C36.9027 31.7034 36.5814 31.3821 36.185 31.3821C35.7886 31.3821 35.4673 31.7034 35.4673 32.0998C35.4673 32.4962 35.7886 32.8175 36.185 32.8175Z" fill="#111111"/>
<path d="M39.3017 32.8175C39.6981 32.8175 40.0194 32.4962 40.0194 32.0998C40.0194 31.7034 39.6981 31.3821 39.3017 31.3821C38.9053 31.3821 38.584 31.7034 38.584 32.0998C38.584 32.4962 38.9053 32.8175 39.3017 32.8175Z" fill="#111111"/>
<path d="M42.4189 32.8175C42.8153 32.8175 43.1366 32.4962 43.1366 32.0998C43.1366 31.7034 42.8153 31.3821 42.4189 31.3821C42.0225 31.3821 41.7012 31.7034 41.7012 32.0998C41.7012 32.4962 42.0225 32.8175 42.4189 32.8175Z" fill="#111111"/>
<path d="M45.5361 32.8175C45.9325 32.8175 46.2538 32.4962 46.2538 32.0998C46.2538 31.7034 45.9325 31.3821 45.5361 31.3821C45.1397 31.3821 44.8184 31.7034 44.8184 32.0998C44.8184 32.4962 45.1397 32.8175 45.5361 32.8175Z" fill="#111111"/>
<path d="M23.7177 35.942C24.1141 35.942 24.4354 35.6207 24.4354 35.2243C24.4354 34.8279 24.1141 34.5066 23.7177 34.5066C23.3213 34.5066 23 34.8279 23 35.2243C23 35.6207 23.3213 35.942 23.7177 35.942Z" fill="#111111"/>
<path d="M26.8349 35.942C27.2313 35.942 27.5526 35.6207 27.5526 35.2243C27.5526 34.8279 27.2313 34.5066 26.8349 34.5066C26.4385 34.5066 26.1172 34.8279 26.1172 35.2243C26.1172 35.6207 26.4385 35.942 26.8349 35.942Z" fill="#111111"/>
<path d="M29.9516 35.942C30.348 35.942 30.6693 35.6207 30.6693 35.2243C30.6693 34.8279 30.348 34.5066 29.9516 34.5066C29.5552 34.5066 29.2339 34.8279 29.2339 35.2243C29.2339 35.6207 29.5552 35.942 29.9516 35.942Z" fill="#111111"/>
<path d="M33.0678 35.942C33.4642 35.942 33.7855 35.6207 33.7855 35.2243C33.7855 34.8279 33.4642 34.5066 33.0678 34.5066C32.6714 34.5066 32.3501 34.8279 32.3501 35.2243C32.3501 35.6207 32.6714 35.942 33.0678 35.942Z" fill="#111111"/>
<path d="M36.185 35.942C36.5814 35.942 36.9027 35.6207 36.9027 35.2243C36.9027 34.8279 36.5814 34.5066 36.185 34.5066C35.7886 34.5066 35.4673 34.8279 35.4673 35.2243C35.4673 35.6207 35.7886 35.942 36.185 35.942Z" fill="#111111"/>
<path d="M39.3017 35.942C39.6981 35.942 40.0194 35.6207 40.0194 35.2243C40.0194 34.8279 39.6981 34.5066 39.3017 34.5066C38.9053 34.5066 38.584 34.8279 38.584 35.2243C38.584 35.6207 38.9053 35.942 39.3017 35.942Z" fill="#111111"/>
<path d="M42.4189 35.942C42.8153 35.942 43.1366 35.6207 43.1366 35.2243C43.1366 34.8279 42.8153 34.5066 42.4189 34.5066C42.0225 34.5066 41.7012 34.8279 41.7012 35.2243C41.7012 35.6207 42.0225 35.942 42.4189 35.942Z" fill="#111111"/>
<path d="M45.5361 35.942C45.9325 35.942 46.2538 35.6207 46.2538 35.2243C46.2538 34.8279 45.9325 34.5066 45.5361 34.5066C45.1397 34.5066 44.8184 34.8279 44.8184 35.2243C44.8184 35.6207 45.1397 35.942 45.5361 35.942Z" fill="#111111"/>
<path d="M23.7177 39.0668C24.1141 39.0668 24.4354 38.7455 24.4354 38.3491C24.4354 37.9527 24.1141 37.6313 23.7177 37.6313C23.3213 37.6313 23 37.9527 23 38.3491C23 38.7455 23.3213 39.0668 23.7177 39.0668Z" fill="#111111"/>
<path d="M26.8349 39.0668C27.2313 39.0668 27.5526 38.7455 27.5526 38.3491C27.5526 37.9527 27.2313 37.6313 26.8349 37.6313C26.4385 37.6313 26.1172 37.9527 26.1172 38.3491C26.1172 38.7455 26.4385 39.0668 26.8349 39.0668Z" fill="#111111"/>
<path d="M29.9516 39.0668C30.348 39.0668 30.6693 38.7455 30.6693 38.3491C30.6693 37.9527 30.348 37.6313 29.9516 37.6313C29.5552 37.6313 29.2339 37.9527 29.2339 38.3491C29.2339 38.7455 29.5552 39.0668 29.9516 39.0668Z" fill="#111111"/>
<path d="M33.0678 39.0668C33.4642 39.0668 33.7855 38.7455 33.7855 38.3491C33.7855 37.9527 33.4642 37.6313 33.0678 37.6313C32.6714 37.6313 32.3501 37.9527 32.3501 38.3491C32.3501 38.7455 32.6714 39.0668 33.0678 39.0668Z" fill="#111111"/>
<path d="M36.185 39.0668C36.5814 39.0668 36.9027 38.7455 36.9027 38.3491C36.9027 37.9527 36.5814 37.6313 36.185 37.6313C35.7886 37.6313 35.4673 37.9527 35.4673 38.3491C35.4673 38.7455 35.7886 39.0668 36.185 39.0668Z" fill="#111111"/>
<path d="M39.3017 39.0668C39.6981 39.0668 40.0194 38.7455 40.0194 38.3491C40.0194 37.9527 39.6981 37.6313 39.3017 37.6313C38.9053 37.6313 38.584 37.9527 38.584 38.3491C38.584 38.7455 38.9053 39.0668 39.3017 39.0668Z" fill="#111111"/>
<path d="M42.4189 39.0668C42.8153 39.0668 43.1366 38.7455 43.1366 38.3491C43.1366 37.9527 42.8153 37.6313 42.4189 37.6313C42.0225 37.6313 41.7012 37.9527 41.7012 38.3491C41.7012 38.7455 42.0225 39.0668 42.4189 39.0668Z" fill="#111111"/>
<path d="M45.5361 39.0668C45.9325 39.0668 46.2538 38.7455 46.2538 38.3491C46.2538 37.9527 45.9325 37.6313 45.5361 37.6313C45.1397 37.6313 44.8184 37.9527 44.8184 38.3491C44.8184 38.7455 45.1397 39.0668 45.5361 39.0668Z" fill="#111111"/>
<path d="M23.7177 42.1911C24.1141 42.1911 24.4354 41.8697 24.4354 41.4733C24.4354 41.0769 24.1141 40.7556 23.7177 40.7556C23.3213 40.7556 23 41.0769 23 41.4733C23 41.8697 23.3213 42.1911 23.7177 42.1911Z" fill="#111111"/>
<path d="M26.8349 42.1911C27.2313 42.1911 27.5526 41.8697 27.5526 41.4733C27.5526 41.0769 27.2313 40.7556 26.8349 40.7556C26.4385 40.7556 26.1172 41.0769 26.1172 41.4733C26.1172 41.8697 26.4385 42.1911 26.8349 42.1911Z" fill="#111111"/>
<path d="M29.9516 42.1911C30.348 42.1911 30.6693 41.8697 30.6693 41.4733C30.6693 41.0769 30.348 40.7556 29.9516 40.7556C29.5552 40.7556 29.2339 41.0769 29.2339 41.4733C29.2339 41.8697 29.5552 42.1911 29.9516 42.1911Z" fill="#111111"/>
<path d="M33.0678 42.1911C33.4642 42.1911 33.7855 41.8697 33.7855 41.4733C33.7855 41.0769 33.4642 40.7556 33.0678 40.7556C32.6714 40.7556 32.3501 41.0769 32.3501 41.4733C32.3501 41.8697 32.6714 42.1911 33.0678 42.1911Z" fill="#111111"/>
<path d="M36.185 42.1911C36.5814 42.1911 36.9027 41.8697 36.9027 41.4733C36.9027 41.0769 36.5814 40.7556 36.185 40.7556C35.7886 40.7556 35.4673 41.0769 35.4673 41.4733C35.4673 41.8697 35.7886 42.1911 36.185 42.1911Z" fill="#111111"/>
<path d="M39.3017 42.1911C39.6981 42.1911 40.0194 41.8697 40.0194 41.4733C40.0194 41.0769 39.6981 40.7556 39.3017 40.7556C38.9053 40.7556 38.584 41.0769 38.584 41.4733C38.584 41.8697 38.9053 42.1911 39.3017 42.1911Z" fill="#111111"/>
<path d="M42.4189 42.1911C42.8153 42.1911 43.1366 41.8697 43.1366 41.4733C43.1366 41.0769 42.8153 40.7556 42.4189 40.7556C42.0225 40.7556 41.7012 41.0769 41.7012 41.4733C41.7012 41.8697 42.0225 42.1911 42.4189 42.1911Z" fill="#111111"/>
<path d="M45.5361 42.1911C45.9325 42.1911 46.2538 41.8697 46.2538 41.4733C46.2538 41.0769 45.9325 40.7556 45.5361 40.7556C45.1397 40.7556 44.8184 41.0769 44.8184 41.4733C44.8184 41.8697 45.1397 42.1911 45.5361 42.1911Z" fill="#111111"/>
<path d="M23.7177 45.3156C24.1141 45.3156 24.4354 44.9942 24.4354 44.5978C24.4354 44.2015 24.1141 43.8801 23.7177 43.8801C23.3213 43.8801 23 44.2015 23 44.5978C23 44.9942 23.3213 45.3156 23.7177 45.3156Z" fill="#111111"/>
<path d="M26.8349 45.3156C27.2313 45.3156 27.5526 44.9942 27.5526 44.5978C27.5526 44.2015 27.2313 43.8801 26.8349 43.8801C26.4385 43.8801 26.1172 44.2015 26.1172 44.5978C26.1172 44.9942 26.4385 45.3156 26.8349 45.3156Z" fill="#111111"/>
<path d="M29.9516 45.3156C30.348 45.3156 30.6693 44.9942 30.6693 44.5978C30.6693 44.2015 30.348 43.8801 29.9516 43.8801C29.5552 43.8801 29.2339 44.2015 29.2339 44.5978C29.2339 44.9942 29.5552 45.3156 29.9516 45.3156Z" fill="#111111"/>
<path d="M33.0678 45.3156C33.4642 45.3156 33.7855 44.9942 33.7855 44.5978C33.7855 44.2015 33.4642 43.8801 33.0678 43.8801C32.6714 43.8801 32.3501 44.2015 32.3501 44.5978C32.3501 44.9942 32.6714 45.3156 33.0678 45.3156Z" fill="#111111"/>
<path d="M36.185 45.3156C36.5814 45.3156 36.9027 44.9942 36.9027 44.5978C36.9027 44.2015 36.5814 43.8801 36.185 43.8801C35.7886 43.8801 35.4673 44.2015 35.4673 44.5978C35.4673 44.9942 35.7886 45.3156 36.185 45.3156Z" fill="#111111"/>
<path d="M39.3017 45.3156C39.6981 45.3156 40.0194 44.9942 40.0194 44.5978C40.0194 44.2015 39.6981 43.8801 39.3017 43.8801C38.9053 43.8801 38.584 44.2015 38.584 44.5978C38.584 44.9942 38.9053 45.3156 39.3017 45.3156Z" fill="#111111"/>
<path d="M42.4189 45.3156C42.8153 45.3156 43.1366 44.9942 43.1366 44.5978C43.1366 44.2015 42.8153 43.8801 42.4189 43.8801C42.0225 43.8801 41.7012 44.2015 41.7012 44.5978C41.7012 44.9942 42.0225 45.3156 42.4189 45.3156Z" fill="#111111"/>
<path d="M45.5361 45.3156C45.9325 45.3156 46.2538 44.9942 46.2538 44.5978C46.2538 44.2015 45.9325 43.8801 45.5361 43.8801C45.1397 43.8801 44.8184 44.2015 44.8184 44.5978C44.8184 44.9942 45.1397 45.3156 45.5361 45.3156Z" fill="#111111"/>
<path d="M23.7177 48.4398C24.1141 48.4398 24.4354 48.1185 24.4354 47.7221C24.4354 47.3257 24.1141 47.0044 23.7177 47.0044C23.3213 47.0044 23 47.3257 23 47.7221C23 48.1185 23.3213 48.4398 23.7177 48.4398Z" fill="#111111"/>
<path d="M26.8349 48.4398C27.2313 48.4398 27.5526 48.1185 27.5526 47.7221C27.5526 47.3257 27.2313 47.0044 26.8349 47.0044C26.4385 47.0044 26.1172 47.3257 26.1172 47.7221C26.1172 48.1185 26.4385 48.4398 26.8349 48.4398Z" fill="#111111"/>
<path d="M29.9516 48.4398C30.348 48.4398 30.6693 48.1185 30.6693 47.7221C30.6693 47.3257 30.348 47.0044 29.9516 47.0044C29.5552 47.0044 29.2339 47.3257 29.2339 47.7221C29.2339 48.1185 29.5552 48.4398 29.9516 48.4398Z" fill="#111111"/>
<path d="M33.0678 48.4398C33.4642 48.4398 33.7855 48.1185 33.7855 47.7221C33.7855 47.3257 33.4642 47.0044 33.0678 47.0044C32.6714 47.0044 32.3501 47.3257 32.3501 47.7221C32.3501 48.1185 32.6714 48.4398 33.0678 48.4398Z" fill="#111111"/>
<path d="M36.185 48.4398C36.5814 48.4398 36.9027 48.1185 36.9027 47.7221C36.9027 47.3257 36.5814 47.0044 36.185 47.0044C35.7886 47.0044 35.4673 47.3257 35.4673 47.7221C35.4673 48.1185 35.7886 48.4398 36.185 48.4398Z" fill="#111111"/>
<path d="M39.3017 48.4398C39.6981 48.4398 40.0194 48.1185 40.0194 47.7221C40.0194 47.3257 39.6981 47.0044 39.3017 47.0044C38.9053 47.0044 38.584 47.3257 38.584 47.7221C38.584 48.1185 38.9053 48.4398 39.3017 48.4398Z" fill="#111111"/>
<path d="M42.4189 48.4398C42.8153 48.4398 43.1366 48.1185 43.1366 47.7221C43.1366 47.3257 42.8153 47.0044 42.4189 47.0044C42.0225 47.0044 41.7012 47.3257 41.7012 47.7221C41.7012 48.1185 42.0225 48.4398 42.4189 48.4398Z" fill="#111111"/>
<path d="M45.5361 48.4398C45.9325 48.4398 46.2538 48.1185 46.2538 47.7221C46.2538 47.3257 45.9325 47.0044 45.5361 47.0044C45.1397 47.0044 44.8184 47.3257 44.8184 47.7221C44.8184 48.1185 45.1397 48.4398 45.5361 48.4398Z" fill="#111111"/>
</svg>
