<?xml version="1.0" encoding="UTF-8"?>
<svg width="438px" height="438px" viewBox="0 0 438 438" version="1.1" xmlns="http://www.w3.org/2000/svg" xmlns:xlink="http://www.w3.org/1999/xlink">
    <!-- Generator: Sketch 51.2 (57519) - http://www.bohemiancoding.com/sketch -->
    <title>information</title>
    <desc>Created with Sketch.</desc>
    <defs></defs>
    <g id="Page-1" stroke="none" stroke-width="1" fill="none" fill-rule="evenodd">
        <g id="information" fill="#0294FF" fill-rule="nonzero">
            <path d="M194,142.8 C194.8,144.4 195.6,146 196.4,147.2 C197.2,148.4 198.4,149.6 199.2,150.8 C200.4,152 201.6,153.2 203.2,154.4 C204.4,155.2 206,156.4 208,156.8 C209.6,157.6 211.2,158 213.2,158.4 C215.2,158.8 216.8,158.8 218.4,158.8 C220,158.8 222,158.8 223.6,158.4 C225.2,158 226.8,157.6 228,156.8 L228.4,156.8 C230,156 231.6,155.2 233.2,154 C234.4,153.2 235.6,152 236.8,150.8 L237.2,150.4 C238.4,149.2 239.2,148 240,146.8 C240.8,145.6 241.6,144.4 242,142.8 C242,142.4 242,142.4 242.4,142 C243.2,140.4 243.6,138.4 244,136.8 C244.4,135.2 244.4,133.2 244.4,131.6 C244.4,130 244.4,128 244,126.4 C243.6,124.8 243.2,123.2 242.4,121.2 C241.2,118.4 239.6,116 237.6,114 C237.2,113.6 237.2,113.6 236.8,113.2 C235.6,112 234.4,111.2 232.8,110 C231.2,109.2 230,108.4 228.4,107.6 C226.8,106.8 225.2,106.4 223.6,106 C221.6,105.6 220,105.6 218.4,105.6 C216.8,105.6 214.8,105.6 213.2,106 C211.6,106.4 210,106.8 208.4,107.6 L208,107.6 C206.4,108.4 204.8,109.2 203.6,110 C202,111.2 200.8,112 199.6,113.2 C198.4,114.4 197.2,115.6 196.4,116.8 C195.6,118 194.8,119.6 194,121.2 C193.2,122.8 192.8,124.4 192.4,126 C192,128 192,129.6 192,131.2 C192,132.8 192,134.8 192.4,136.4 C192.8,139.6 193.6,141.2 194,142.8 Z" id="Shape"></path>
            <path d="M249.6,289.2 L240.4,289.2 L240.4,191.2 C240.4,185.6 236,180.8 230,180.8 L188,180.8 C182.4,180.8 177.6,185.2 177.6,191.2 L177.6,212.8 C177.6,218.4 182,223.2 188,223.2 L196.4,223.2 L196.4,289.6 L188,289.6 C182.4,289.6 177.6,294 177.6,300 L177.6,321.6 C177.6,327.2 182,332 188,332 L249.6,332 C255.2,332 260,327.6 260,321.6 L260,300 C260,294 255.2,289.2 249.6,289.2 Z" id="Shape"></path>
            <path d="M218.8,0 C98,0 0,98 0,218.8 C0,339.6 98,437.6 218.8,437.6 C339.6,437.6 437.6,339.6 437.6,218.8 C437.6,98 339.6,0 218.8,0 Z M218.8,408.8 C114,408.8 28.8,323.6 28.8,218.8 C28.8,114 114,28.8 218.8,28.8 C323.6,28.8 408.8,114 408.8,218.8 C408.8,323.6 323.6,408.8 218.8,408.8 Z" id="Shape"></path>
        </g>
    </g>
</svg>