<?xml version="1.0" encoding="iso-8859-1"?>
<!-- Generator: Adobe Illustrator 19.0.0, SVG Export Plug-In . SVG Version: 6.00 Build 0)  -->
<svg version="1.1" id="Layer_1" xmlns="http://www.w3.org/2000/svg" xmlns:xlink="http://www.w3.org/1999/xlink" x="0px" y="0px"
	 viewBox="0 0 512 512" style="enable-background:new 0 0 512 512;" xml:space="preserve">
<g transform="translate(1)">
	<g>
		<g>
			<path d="M68.12,4.267c-18.773,0-35.84,6.827-48.64,19.627C5.827,37.547-1,54.613-1,72.533c0,18.773,7.68,35.84,20.48,48.64
				c12.8,12.8,30.72,20.48,47.787,19.627c0,0,0.853,0,1.707,0c17.067,0,33.28-6.827,46.08-19.627
				c12.8-12.8,20.48-29.867,20.48-48.64c0.853-17.92-6.827-34.987-19.627-47.787C103.107,11.093,86.04,4.267,68.12,4.267z
				 M103.107,109.227c-9.387,9.387-22.187,15.36-35.84,14.507c-12.8,0-26.453-5.12-35.84-14.507
				c-10.24-9.387-15.36-23.04-15.36-36.693s5.12-26.453,15.36-36.693c9.387-9.387,22.187-14.507,36.693-14.507
				c12.8,0,25.6,5.12,34.987,14.507c10.24,10.24,15.36,23.04,15.36,36.693S113.347,99.84,103.107,109.227z"/>
			<path d="M101.4,157.867H32.28c-13.653,0-24.747,11.093-24.747,25.6v298.667c0,13.653,11.947,25.6,25.6,25.6H101.4
				c13.653,0,25.6-11.947,25.6-24.747v-299.52C127,169.813,115.053,157.867,101.4,157.867z M109.933,482.987
				c0,4.267-4.267,7.68-8.533,7.68H33.133c-4.267,0-8.533-4.267-8.533-8.533V183.467c0-4.267,3.413-8.533,7.68-8.533h69.12
				c4.267,0,8.533,4.267,8.533,8.533V482.987z"/>
			<path d="M391.533,149.333h-17.92c-33.28,0-64.853,14.507-85.333,37.547v-11.947c0-8.533-8.533-17.067-17.067-17.067H185.88
				c-7.68,0-17.067,6.827-17.067,16.213v318.293c0,9.387,9.387,15.36,17.067,15.36h93.867c7.68,0,17.067-5.973,17.067-15.36v-184.32
				c0-28.16,20.48-50.347,46.933-50.347c13.653,0,26.453,5.12,35.84,14.507c8.533,7.68,11.947,19.627,11.947,34.987v183.467
				c0,8.533,8.533,17.067,17.067,17.067h85.333c8.533,0,17.067-8.533,17.067-17.067v-220.16
				C511,202.24,458.947,149.333,391.533,149.333z M493.933,489.813l-0.853,0.853h-83.627L408.6,307.2
				c0-20.48-5.12-35.84-16.213-46.933c-12.8-12.8-29.867-19.627-47.787-19.627c-35.84,0.853-64,29.867-64,67.413v182.613h-93.867
				V174.933h84.48l0.853,0.853v53.76l23.04-23.04l0.853-0.853c17.067-23.893,46.933-39.253,78.507-39.253h17.92
				c57.173,0,101.547,46.08,101.547,104.107V489.813z"/>
		</g>
	</g>
</g>
<g>
</g>
<g>
</g>
<g>
</g>
<g>
</g>
<g>
</g>
<g>
</g>
<g>
</g>
<g>
</g>
<g>
</g>
<g>
</g>
<g>
</g>
<g>
</g>
<g>
</g>
<g>
</g>
<g>
</g>
</svg>
