<svg width="52" height="51" viewBox="0 0 52 51" fill="none" xmlns="http://www.w3.org/2000/svg">
<g clip-path="url(#clip0_632_2542)">
<path d="M51.9682 24.0229C51.0561 24.5257 50.3844 25.7567 49.9001 26.471C50.3632 26.4502 51.0632 26.471 51.7561 26.3878C50.8697 32.5412 47.9456 38.2383 43.4341 42.6018C40.7507 45.2599 37.565 47.3799 34.0551 48.8433C27.3876 51.6173 20.0414 51.7387 13.8087 49.1103C11.1586 48.0063 8.7507 46.4109 6.71703 44.4118C3.15302 40.8933 0.870549 36.3208 0.222771 31.4018C1.24446 30.9822 1.9904 29.6056 2.49947 28.8428C1.67119 28.8434 0.844084 28.9037 0.0247965 29.0231C-0.261559 21.8107 2.61967 14.2168 8.55889 8.39491C17.0435 0.0729072 29.2189 -2.13242 38.6828 2.1014C38.2903 2.60418 37.9757 3.14165 37.7 3.54041C38.4636 3.4988 39.8211 3.56121 40.8145 3.19366C41.6149 3.65431 42.3826 4.16752 43.1124 4.72976C42.9392 4.99676 42.7589 5.24295 42.6352 5.451C42.9887 5.451 43.4553 5.451 43.968 5.40939C44.4169 5.78041 44.8588 6.17918 45.2795 6.59181C50.0451 11.2695 52.2546 17.5734 51.9682 24.0229Z" fill="#E8D3C9"/>
<path d="M11.2456 13.4054C10.1972 15.5831 9.8155 18.0123 10.1468 20.3986C10.4781 22.7848 11.5082 25.0255 13.1122 26.8489C15.053 28.9814 17.6833 30.3649 20.2569 31.7034C21.1832 32.1854 22.1448 32.6812 23.1947 32.7714C24.5629 32.8893 25.8921 32.3033 27.0835 31.6375C30.1592 29.928 32.9202 27.5459 34.5924 24.491C36.2645 21.4361 36.7418 17.667 35.4055 14.456C34.7161 12.8541 33.6586 11.4301 32.3157 10.295C29.8638 8.2348 26.7343 7.11511 23.5058 7.14309C21.9294 7.17612 20.3721 7.48982 18.91 8.06891C17.4959 8.5821 16.1101 8.65492 14.7985 9.45591C13.269 10.4298 12.0404 11.7956 11.2456 13.4054Z" fill="#D6AF99"/>
<path d="M34.062 48.8332C32.9391 49.2998 31.7865 49.6947 30.6116 50.0156C29.9611 50.1959 29.3036 50.3623 28.6354 50.4768C28.5577 50.4768 28.4905 50.5045 28.4127 50.5253C28.3845 50.522 28.356 50.522 28.3279 50.5253C26.0306 50.9571 23.6842 51.0819 21.3528 50.8963C20.6143 50.8422 19.8792 50.7508 19.1504 50.6224C19.0162 50.6084 18.8828 50.5875 18.7509 50.56H18.7084L18.4009 50.4976C17.7751 50.3728 17.16 50.2236 16.5484 50.0503C15.6177 49.7884 14.705 49.4687 13.8157 49.0932C13.6365 48.3971 13.5451 47.6821 13.5434 46.9642C13.402 43.8816 13.2677 40.8094 13.1369 37.7268C13.0445 36.8455 13.1079 35.9551 13.3243 35.0949C13.4802 34.6052 13.7347 34.1512 14.0727 33.7597C14.4107 33.3682 14.8254 33.0472 15.2922 32.8157C15.7589 32.5842 16.2683 32.4469 16.7901 32.4119C17.312 32.377 17.8357 32.4451 18.3302 32.6122C22.4523 31.9534 26.7087 31.3188 30.7672 32.2655C31.7005 32.4839 32.6798 32.8341 33.2207 33.6143C33.6626 34.2593 33.7191 35.0707 33.7686 35.8474C33.9572 39.0444 34.1457 42.2438 34.3343 45.4454C34.405 46.607 34.4615 47.7825 34.062 48.8332Z" fill="#F4816B"/>
<path d="M32.8778 20.8046C33.0687 19.0708 31.294 17.4792 29.5193 17.6838C28.9423 17.775 28.3831 17.9528 27.8612 18.2109C27.3766 18.4015 26.8652 18.5185 26.3446 18.5576C25.528 18.7241 24.7467 19.0708 23.93 19.1194C23.223 19.1783 22.3003 19.2615 21.6109 19.0327L19.6913 18.4016L19.2458 18.2421C18.736 18.022 18.1987 17.8693 17.6479 17.7878C15.6399 17.5902 13.7945 19.6672 14.4273 21.6021C15.0601 23.537 17.4923 23.8906 19.2246 23.426C19.9529 23.2318 20.6387 22.9336 21.3811 22.7637C22.6488 22.5215 23.953 22.5309 25.2169 22.7914C26.486 23.0064 27.734 23.3324 29.0102 23.4849C30.6753 23.6999 32.4783 22.736 32.8353 21.0334C32.8495 20.9641 32.8778 20.8878 32.8778 20.8046Z" fill="#E8D3C9"/>
<path d="M21.3529 39.9874V50.9169C20.6144 50.8628 19.8793 50.7714 19.1504 50.643V39.9874C19.151 39.5441 19.2496 39.1062 19.4394 38.704C19.6292 38.3017 19.9057 37.9446 20.2499 37.6572C20.595 37.9439 20.8724 38.3008 21.0629 38.7032C21.2534 39.1056 21.3523 39.5438 21.3529 39.9874Z" fill="#D87768"/>
<path d="M30.6115 44.3321V50.0222C29.961 50.2025 29.3035 50.369 28.6353 50.4834C28.5575 50.4834 28.4904 50.5112 28.4126 50.532V44.3321C28.4133 43.2855 28.8044 42.2754 29.5121 41.4922C30.2212 42.2746 30.6125 43.2852 30.6115 44.3321Z" fill="#F59085"/>
<path d="M20.5363 16.5847C20.3505 16.685 20.1917 16.8273 20.0731 16.9997C19.9544 17.1722 19.8793 17.3698 19.854 17.5764C19.8594 17.7194 19.8994 17.859 19.9707 17.9838C20.042 18.1087 20.1426 18.215 20.2641 18.2942C20.5094 18.4509 20.799 18.5273 21.0913 18.5126C21.5839 18.4787 22.0546 18.2999 22.4418 17.9994C22.8286 17.7011 23.184 17.3653 23.5024 16.9973C23.5927 16.9222 23.6661 16.8295 23.7178 16.725C23.7696 16.6205 23.7985 16.5066 23.8029 16.3905C23.7322 15.8149 22.8484 15.9224 22.4312 15.9189C21.7471 15.9561 21.0888 16.1874 20.5363 16.5847Z" fill="#E8D3C9"/>
<path d="M31.3968 16.2109C31.3987 16.203 31.3987 16.1946 31.3968 16.1867C31.3296 16.0722 31.266 15.9578 31.2094 15.8399C31.1811 15.7879 31.1564 15.7324 31.1246 15.6804C30.7322 14.9869 30.5837 14.2934 29.6574 14.1963H29.5903C29.2565 14.194 28.9346 14.3176 28.6911 14.5416C28.4477 14.7655 28.3013 15.0727 28.2822 15.3995C29.1201 15.5517 29.9468 15.7578 30.7569 16.0168L31.1599 16.152L31.3013 16.2005L31.3685 16.2248C31.3713 16.2259 31.3743 16.2264 31.3772 16.2263C31.3802 16.2261 31.3831 16.2254 31.3858 16.2241C31.3885 16.2228 31.3908 16.2209 31.3927 16.2187C31.3946 16.2164 31.396 16.2138 31.3968 16.2109Z" fill="#53484A"/>
<path d="M37.3074 24.1688C37.3074 24.1688 37.3074 18.8808 36.7912 14.6643C36.8243 14.6515 36.8587 14.6421 36.8938 14.6366C37.2124 14.5443 37.4929 14.355 37.6947 14.0961C37.8964 13.8371 38.009 13.5219 38.016 13.1961C38.0231 12.8703 37.9244 12.5507 37.7341 12.2836C37.5438 12.0164 37.2718 11.8156 36.9574 11.71H36.915C36.2494 11.4871 35.6744 11.0604 35.2746 10.4929C33.4858 7.90618 30.8096 6.58853 28.4693 5.91236C26.8626 5.44647 25.1953 5.21284 23.5199 5.21886C21.7302 5.22164 19.9514 5.49293 18.2453 6.02332C15.9898 6.71682 13.4727 8.03794 11.7617 10.4999C11.362 11.066 10.7867 11.4904 10.1213 11.71C9.80718 11.8134 9.5349 12.0124 9.34414 12.2781C9.15337 12.5438 9.05408 12.8623 9.06073 13.1872C9.05457 13.522 9.16351 13.8492 9.37002 14.1159C9.57653 14.3826 9.86857 14.5733 10.1991 14.6574L10.2627 14.6782C10.093 16.0201 9.9799 17.4522 9.90919 18.8184C9.75011 21.7207 9.75011 24.1826 9.75011 24.1826C9.75011 24.1826 3.69776 32.2688 3.18161 39.5298C2.91293 43.1533 4.023 46.5653 7.91885 48.6562C14.657 52.0509 17.7221 47.5813 17.7221 47.5813C17.7221 47.5813 19.7124 45.2581 15.1767 42.8932V36.4784C15.1786 36.246 15.274 36.0237 15.4422 35.8601C15.6104 35.6964 15.8377 35.6046 16.0747 35.6046H17.7963V34.7793C17.7963 34.5954 17.8708 34.419 18.0034 34.2889C18.136 34.1589 18.3159 34.0858 18.5034 34.0858H20.872C21.0595 34.0858 21.2394 34.1589 21.372 34.2889C21.5046 34.419 21.5791 34.5954 21.5791 34.7793V35.6046H25.4537V34.7793C25.4537 34.5954 25.5282 34.419 25.6608 34.2889C25.7934 34.1589 25.9732 34.0858 26.1607 34.0858H28.5294C28.7169 34.0858 28.8967 34.1589 29.0293 34.2889C29.1619 34.419 29.2364 34.5954 29.2364 34.7793V35.6046H30.9616C31.1973 35.6055 31.423 35.6979 31.5893 35.8617C31.7556 36.0255 31.849 36.2472 31.849 36.4784V42.8863C27.3203 45.2511 29.3142 47.5744 29.3142 47.5744C29.3142 47.5744 32.3686 52.044 39.1139 48.6493C50.8333 42.3558 37.3074 24.1688 37.3074 24.1688ZM35.3241 19.5396C35.1923 21.4996 34.4115 23.3636 33.1004 24.8484C30.6682 27.6536 26.8289 29.3873 23.527 31.0379C20.218 29.3873 16.3681 27.6536 13.9288 24.8484C12.6245 23.3602 11.8468 21.4976 11.7122 19.5396C11.5283 16.4397 12.5324 11.2558 16.0535 10.1254C19.4933 9.01924 21.6745 11.9215 22.4523 13.2461C22.5618 13.4267 22.7169 13.5764 22.9027 13.6809C23.0885 13.7854 23.2987 13.841 23.5128 13.8425C23.7275 13.8435 23.9386 13.7888 24.1248 13.6841C24.311 13.5794 24.4658 13.4283 24.5734 13.2461C25.3688 11.9215 27.543 9.01578 30.9864 10.1254C34.5039 11.2558 35.5009 16.4397 35.3241 19.5396Z" fill="#87574C"/>
<path d="M31.1383 19.3899C31.0595 19.3376 30.9681 19.3066 30.8732 19.2997H30.8308C30.5585 19.3344 30.6611 19.6465 30.7671 19.7956C31.1497 20.32 31.3516 20.9505 31.3434 21.5952C31.3406 21.9107 31.2519 22.2198 31.0866 22.4904C30.9213 22.7611 30.6853 22.9835 30.403 23.1348C29.3424 23.7277 28.448 22.9372 27.4793 22.58C26.3745 22.1903 25.2133 21.976 24.0395 21.9454V20.4822C25.4435 20.1748 26.7157 19.4479 27.6809 18.4017C27.8071 18.2645 27.902 18.1024 27.9592 17.9263C28.0164 17.7502 28.0346 17.5641 28.0125 17.3806C27.9904 17.197 27.9286 17.0202 27.8311 16.862C27.7337 16.7038 27.6029 16.5679 27.4475 16.4633C26.2898 15.6599 24.9047 15.2319 23.4865 15.2394C22.0683 15.2468 20.6881 15.6894 19.5392 16.5049C19.3963 16.6073 19.2766 16.7377 19.1878 16.8878C19.0991 17.038 19.0431 17.2046 19.0235 17.3771C19.0039 17.5496 19.021 17.7242 19.0739 17.8898C19.1268 18.0555 19.2142 18.2085 19.3306 18.3392C20.2954 19.4228 21.5869 20.1769 23.0179 20.4926V21.9558C22.0221 21.9817 21.0343 22.1368 20.0801 22.417C19.6477 22.5376 19.2267 22.6942 18.8215 22.8851C18.0791 23.2319 17.3402 23.492 16.5696 23.0516C16.3008 22.9019 16.0777 22.6843 15.9235 22.4215C15.7694 22.1587 15.6897 21.8603 15.6928 21.5571C15.6889 20.9279 15.8881 20.3137 16.262 19.8025C16.3327 19.7054 16.3893 19.5598 16.2973 19.4558C16.2054 19.3518 16.0251 19.4558 15.912 19.4974C15.6523 19.6317 15.4218 19.8142 15.2332 20.0348C14.8534 20.4713 14.6485 21.0284 14.657 21.6022C14.6629 22.0752 14.7949 22.5386 15.0398 22.9461C15.2848 23.3537 15.6342 23.6913 16.0534 23.9254C16.4906 24.176 16.9866 24.3109 17.4929 24.317C17.9992 24.3231 18.4984 24.2001 18.9417 23.9601C20.3614 23.2456 21.9426 22.896 23.5375 22.9441C23.5503 22.9473 23.5637 22.9473 23.5764 22.9441C25.1984 22.9007 26.8037 23.2749 28.2324 24.0294C28.645 24.2635 29.1132 24.3867 29.5899 24.3867C30.0666 24.3867 30.5348 24.2635 30.9474 24.0294C31.3871 23.7812 31.7521 23.4234 32.0054 22.9923C32.2588 22.5612 32.3914 22.072 32.3898 21.5744C32.4133 21.1315 32.3082 20.6911 32.0867 20.3044C31.8651 19.9177 31.5363 19.6006 31.1383 19.3899ZM21.8088 17.5452C21.4553 17.8261 21.1406 18.3496 20.6245 18.0272C20.5405 17.97 20.4623 17.905 20.3912 17.833C20.3367 17.779 20.2957 17.7133 20.2714 17.6411C20.2471 17.569 20.2401 17.4923 20.2511 17.4171C20.2621 17.3418 20.2906 17.2701 20.3345 17.2075C20.3785 17.1449 20.4366 17.0932 20.5043 17.0563C21.3114 16.5752 22.2435 16.3343 23.1875 16.3628L21.8088 17.5452Z" fill="#53484A"/>
<path d="M25.779 24.1791C25.5155 24.5229 25.1741 24.802 24.7817 24.9941C24.3893 25.1863 23.9568 25.2864 23.5182 25.2864C23.0797 25.2864 22.6471 25.1863 22.2547 24.9941C21.8624 24.802 21.5209 24.5229 21.2574 24.1791C21.1759 24.0719 21.0542 24.001 20.9193 23.9818C20.7844 23.9626 20.6472 23.9968 20.538 24.0768C20.4288 24.1568 20.3564 24.2761 20.3369 24.4084C20.3173 24.5407 20.3521 24.6753 20.4337 24.7824C20.7935 25.2506 21.2592 25.6304 21.7942 25.8919C22.3292 26.1535 22.9187 26.2896 23.5165 26.2896C24.1142 26.2896 24.7038 26.1535 25.2387 25.8919C25.7737 25.6304 26.2394 25.2506 26.5992 24.7824C26.6396 24.7296 26.669 24.6695 26.6857 24.6055C26.7024 24.5416 26.7061 24.475 26.6966 24.4096C26.687 24.3443 26.6645 24.2814 26.6302 24.2246C26.5959 24.1678 26.5505 24.1181 26.4967 24.0785C26.4428 24.0389 26.3815 24.0101 26.3163 23.9937C26.2511 23.9773 26.1832 23.9737 26.1166 23.983C26.05 23.9923 25.9859 24.0145 25.9279 24.0481C25.87 24.0817 25.8194 24.1262 25.779 24.1791Z" fill="#53484A"/>
<path d="M29.0103 22.057C29.2876 22.057 29.5123 21.8366 29.5123 21.5646C29.5123 21.2927 29.2876 21.0723 29.0103 21.0723C28.7331 21.0723 28.5083 21.2927 28.5083 21.5646C28.5083 21.8366 28.7331 22.057 29.0103 22.057Z" fill="#53484A"/>
<path d="M27.4161 21.1342C27.6933 21.1342 27.9181 20.9137 27.9181 20.6418C27.9181 20.3699 27.6933 20.1494 27.4161 20.1494C27.1388 20.1494 26.9141 20.3699 26.9141 20.6418C26.9141 20.9137 27.1388 21.1342 27.4161 21.1342Z" fill="#53484A"/>
<path d="M18.0264 22.057C18.3037 22.057 18.5284 21.8366 18.5284 21.5646C18.5284 21.2927 18.3037 21.0723 18.0264 21.0723C17.7492 21.0723 17.5244 21.2927 17.5244 21.5646C17.5244 21.8366 17.7492 22.057 18.0264 22.057Z" fill="#53484A"/>
<path d="M19.6207 21.1342C19.8979 21.1342 20.1227 20.9137 20.1227 20.6418C20.1227 20.3699 19.8979 20.1494 19.6207 20.1494C19.3434 20.1494 19.1187 20.3699 19.1187 20.6418C19.1187 20.9137 19.3434 21.1342 19.6207 21.1342Z" fill="#53484A"/>
<path d="M15.6398 16.2109C15.6377 16.2029 15.6377 16.1946 15.6398 16.1866C15.7069 16.0722 15.7706 15.9578 15.8307 15.8399C15.8589 15.7879 15.8837 15.7324 15.912 15.6804C16.3044 14.9869 16.4529 14.2934 17.3826 14.1963H17.4463C17.7794 14.1958 18.1 14.3207 18.3421 14.5452C18.5841 14.7697 18.7291 15.0767 18.7472 15.403C17.9092 15.5542 17.0825 15.7604 16.2726 16.0202L15.866 16.1554L15.7246 16.204L15.661 16.2282C15.661 16.2282 15.6398 16.2248 15.6398 16.2109Z" fill="#53484A"/>
<path d="M34.7163 38.5796C34.716 39.0406 34.6396 39.4984 34.4901 39.9354C34.3506 40.3512 34.1544 40.7467 33.9068 41.1109C33.8006 41.2883 33.6825 41.4586 33.5532 41.6206C33.4089 41.7661 33.2567 41.9039 33.0972 42.0333L33.0371 42.0887C32.8603 42.2378 32.6624 42.3765 32.475 42.5152L32.4114 42.5638L32.3336 42.6089C32.277 42.6435 32.2311 42.6782 32.1745 42.7059C32.1179 42.7337 32.0684 42.7753 32.0189 42.803L31.9341 42.8516L31.8563 42.8932C31.8492 42.7985 31.8492 42.7035 31.8563 42.6089V40.3342C31.8563 39.4673 31.8563 38.6004 31.8563 37.7266V36.4783C31.8563 36.2472 31.7629 36.0254 31.5966 35.8617C31.4303 35.6979 31.2046 35.6054 30.969 35.6045H29.2402V34.7792C29.2402 34.5953 29.1657 34.4189 29.0331 34.2889C28.9005 34.1588 28.7207 34.0857 28.5332 34.0857H26.161C25.9735 34.0857 25.7937 34.1588 25.6611 34.2889C25.5285 34.4189 25.454 34.5953 25.454 34.7792V35.6045H21.5829V34.7792C21.5829 34.5953 21.5084 34.4189 21.3758 34.2889C21.2432 34.1588 21.0634 34.0857 20.8758 34.0857H18.5072C18.3197 34.0857 18.1398 34.1588 18.0073 34.2889C17.8747 34.4189 17.8002 34.5953 17.8002 34.7792V35.6045H16.075C15.9575 35.604 15.8411 35.6263 15.7324 35.67C15.6237 35.7136 15.5249 35.7779 15.4415 35.859C15.3581 35.9401 15.2918 36.0366 15.2464 36.1429C15.2011 36.2491 15.1775 36.3631 15.177 36.4783V42.5152C15.187 42.6306 15.187 42.7466 15.177 42.862C14.6216 42.573 14.1129 42.205 13.6675 41.7697C13.466 41.5837 13.2901 41.3727 13.1442 41.1421C13.424 40.7877 13.6836 40.4184 13.922 40.036C13.5967 40.0568 13.0947 40.036 12.6104 40.1053C12.418 39.6151 12.3185 39.0945 12.317 38.5692C12.3158 38.4047 12.3253 38.2402 12.3453 38.0768C12.6613 37.7034 12.9462 37.3057 13.1973 36.8875H12.6599C13.8866 33.9817 18.288 31.8006 23.5202 31.8006C26.0896 31.7619 28.6293 32.343 30.9159 33.4928C30.7321 33.7459 30.5624 34.0025 30.4458 34.1863C30.9377 34.1869 31.429 34.1545 31.9164 34.0892C33.6558 35.2994 34.7163 36.8632 34.7163 38.5796Z" fill="#775049"/>
<path d="M11.8607 24.7723C7.89059 27.8826 4.59574 34.6546 3.18164 39.5299C3.69779 32.269 9.72892 24.1689 9.72892 24.1689C9.72892 24.1689 9.72892 21.707 9.88801 18.8047C9.98876 20.1199 10.3138 21.4092 10.8496 22.6189C10.5502 22.9879 10.2762 23.3759 10.0294 23.7806C10.3511 23.7597 10.8637 23.7805 11.341 23.7112C11.5178 24.0718 11.691 24.429 11.8607 24.7723Z" fill="#775049"/>
<path d="M23.5202 5.20119C21.7305 5.20397 19.9517 5.47526 18.2456 6.00565C18.7971 6.25878 19.3062 6.52578 19.7834 6.79971C19.5324 7.12219 19.3239 7.49321 19.1506 7.729C19.7608 7.74058 20.3703 7.68475 20.9677 7.56256C21.2188 7.74287 21.445 7.93011 21.6748 8.11389C21.5581 8.28727 21.4556 8.46064 21.3637 8.58894C21.5723 8.58894 21.8516 8.58894 22.1521 8.5612C22.3911 8.79839 22.6109 9.05344 22.8096 9.32405C22.8621 9.39496 22.9309 9.45268 23.0105 9.49247C23.0901 9.53227 23.1781 9.55302 23.2674 9.55302C23.3568 9.55302 23.4448 9.53227 23.5244 9.49247C23.604 9.45268 23.6728 9.39496 23.7252 9.32405C24.6197 8.06881 26.2636 6.8968 28.4802 5.90856C26.8708 5.43697 25.1998 5.19866 23.5202 5.20119Z" fill="#775049"/>
<path d="M41.8787 32.2274C41.6913 31.7939 41.5004 31.3605 41.2989 30.9479C40.7722 29.8209 40.2101 28.7807 39.6798 27.8687C39.4394 27.4492 39.2096 27.0643 38.9727 26.7071C38.0147 25.1363 37.29 24.1689 37.29 24.1689C37.29 24.1689 37.29 21.707 37.1309 18.8047C36.9753 21.1973 35.9855 23.0766 35.1582 24.7723C35.5565 25.0913 35.9501 25.438 36.339 25.8125C36.6925 26.1593 37.046 26.5407 37.3748 26.9394C37.5304 27.1128 37.6682 27.2862 37.8167 27.4769C37.5586 27.8063 37.3465 28.1704 37.1733 28.4097C37.5021 28.3889 37.9935 28.4097 38.4743 28.3507C39.186 29.3275 39.8354 30.3466 40.4187 31.4021C40.0717 31.7893 39.7639 32.2085 39.4995 32.6539C40.0128 32.6553 40.5256 32.6205 41.0338 32.5499C42.1887 34.7855 43.1273 37.1224 43.8372 39.5299C43.6746 37.0749 42.8686 34.5229 41.8787 32.2274Z" fill="#775049"/>
</g>
<defs>
<clipPath id="clip0_632_2542">
<rect width="52" height="51" fill="white"/>
</clipPath>
</defs>
</svg>
