<?xml version="1.0" encoding="iso-8859-1"?>
<!-- Generator: Adobe Illustrator 16.0.0, SVG Export Plug-In . SVG Version: 6.00 Build 0)  -->
<!DOCTYPE svg PUBLIC "-//W3C//DTD SVG 1.1//EN" "http://www.w3.org/Graphics/SVG/1.1/DTD/svg11.dtd">
<svg version="1.1" id="Capa_1" xmlns="http://www.w3.org/2000/svg" xmlns:xlink="http://www.w3.org/1999/xlink" x="0px" y="0px"
	viewBox="0 0 782.992 782.992" style="enable-background:new 0 0 782.992 782.992;"
	 xml:space="preserve">
<g>
	<g id="pinterest">
		<g>
			<path d="M687.954,195.445c-11.845-40.159-30.895-73.998-58.222-103.42c-26.738-28.765-57.477-50.567-93.981-66.655
				C509.463,13.802,466.983,0,413.87,0c-4.624,0-9.316,0.104-13.992,0.329c-15.985,0.728-32.956,1.645-49.182,3.983
				c-45.337,6.494-85.237,20.054-121.967,41.441c-46.965,27.344-83.609,64.525-108.91,110.52
				c-13.179,23.933-26.132,66.101-31.622,93.636c-6.529,32.609-0.762,89.116,12.33,120.928
				c16.174,39.276,30.253,57.667,62.741,81.946c0.208,0.139,20.036,14.857,34.912,14.857h0.017
				c25.907-0.484,30.964-24.902,33.371-36.625c0.433-2.096,0.848-4.174,1.368-6.096c0.45-1.732,1.022-3.586,1.611-5.49
				c3.533-11.498,8.381-27.24,0.19-41.493c-3.013-5.265-6.546-9.282-9.681-12.832c-1.61-1.836-3.221-3.602-4.52-5.542
				c-11.378-17.006-17.162-38.289-17.162-63.295c0-32.972,7.429-62.828,22.738-91.28c27.708-51.554,73.772-84.111,133.137-94.138
				c33.267-5.593,73.999-3.065,102.832,6.2c26.895,8.642,49.788,23.95,66.223,44.298c17.387,21.491,27.326,48.818,29.543,81.219
				c1.091,15.933,0.468,33.613-1.991,55.624c-5.992,53.494-21.474,96.527-46.03,127.923c-19.933,25.51-41.354,38.289-65.478,39.121
				l-3.255,0.053c-13.924,0-24.453-3.117-34.168-10.098c-9.767-7.014-15.586-15.637-18.339-27.135
				c-3.135-13.18,0.71-27.104,4.78-41.84l0.658-2.39c3.619-13.109,7.377-25.093,11.065-36.886
				c5.854-18.703,11.897-38.029,16.902-60.473c5.68-25.474,6.425-46.099,2.286-63.053c-5.144-21.162-16.486-37.025-33.735-47.173
				c-17.733-10.373-44.246-12.676-65.754-5.265c-32.124,10.997-56.628,40.211-67.209,80.128c-5.369,20.175-6.91,41.354-4.606,62.932
				c1.766,16.746,5.472,31.933,12.295,50.186c-0.19,0.624-0.381,1.247-0.572,1.87c-0.502,1.68-0.97,3.273-1.316,4.676
				c-7.499,31.396-14.789,62.377-22.062,93.307c-6.771,28.746-13.525,57.459-20.435,86.467l-1.542,6.477
				c-7.187,29.959-14.599,60.939-16.33,98.033l-0.762,15.326c-1.506,28.748-3.065,58.465,0.797,86.137
				c0.727,5.145,2.58,18.098,15.083,22.738c2.251,1.646,6.096,3.74,11.395,3.74l0,0c10.079,0,16.556-6.857,27.119-18.945
				c24.418-27.863,45.182-63.053,63.503-107.541c8.191-19.914,13.612-41.32,18.859-61.996l3.134-12.262
				c3.654-14.061,7.239-28.314,10.771-42.428c6.39,5.334,13.646,10.234,21.924,14.842c19.674,10.943,41.857,17.316,65.963,18.945
				c23.413,1.662,46.221-1.334,72.37-8.885c19.846-5.68,38.878-14.32,56.559-25.664c63.227-40.627,106.329-111.662,121.361-200.017
				c4.485-26.392,6.407-47.588,6.407-70.846C697.496,241.285,694.275,216.798,687.954,195.445z M656.938,333.223
				c-13.369,78.621-51,141.38-105.948,176.691c-14.824,9.523-30.773,16.764-47.398,21.525c-22.253,6.406-41.042,8.918-60.455,7.619
				c-19.257-1.299-36.09-6.096-51.485-14.668c-15.447-8.59-25.422-17.785-32.401-29.838c-3.533-6.096-10.391-9.473-17.352-8.486
				c-6.962,0.971-12.659,6.045-14.408,12.867l-7.793,30.877c-3.637,14.529-7.325,29.232-11.101,43.727l-3.169,12.469
				c-5.161,20.418-10.044,39.693-17.317,57.322c-15.517,37.699-32.713,67.832-52.403,91.869c-1.16-19.812-0.018-41.701,1.091-63.002
				l0.779-15.533c1.559-33.805,8.607-63.174,15.413-91.559l1.559-6.51c6.927-29.025,13.698-57.771,20.469-86.57
				c7.273-30.895,14.547-61.824,22.028-93.134l0.814-2.892c1.853-6.234,3.966-13.3,1.143-20.435
				c-6.581-16.919-10.044-30.41-11.603-45.164c-1.836-17.37-0.624-34.341,3.654-50.411c7.568-28.557,23.95-49.061,44.991-56.265
				c4.936-1.697,10.252-2.563,15.828-2.563c7.966,0,15.863,1.853,21.145,4.953c8.97,5.265,14.737,13.612,17.629,25.491
				c2.824,11.517,1.992,27.448-2.442,47.329c-4.693,21.023-10.252,38.809-16.157,57.65c-3.81,12.157-7.671,24.521-11.412,38.046
				l-0.658,2.355c-4.814,17.457-10.287,37.232-5.074,59.088c4.71,19.828,15.118,35.293,31.83,47.26
				c15.534,11.152,33.319,16.59,54.36,16.59l4.433-0.07c34.514-1.178,65.339-18.807,91.593-52.402
				c28.557-36.506,46.445-85.427,53.164-145.397c2.702-24.158,3.377-43.813,2.13-61.858c-2.719-39.64-15.222-73.478-37.163-100.615
				c-20.677-25.595-49.216-44.783-82.569-55.502c-34.012-10.945-80.51-13.889-119.18-7.377
				c-70.309,11.88-124.911,50.567-157.883,111.888c-18.08,33.613-26.859,68.854-26.859,107.698c0,31.985,7.741,59.763,23.015,82.552
				c2.13,3.169,4.659,6.13,7.273,9.126c2.251,2.563,4.381,4.987,5.472,6.788c0.624,2.529-1.766,10.322-3.065,14.512
				c-0.745,2.408-1.438,4.711-2.009,6.875c-0.658,2.512-1.212,5.195-1.784,7.898c-0.468,2.232-1.126,5.471-1.836,7.879
				c-3.654-1.68-8.832-4.641-11.793-6.84c-27.518-20.574-37.614-33.805-51.45-67.4c-10.391-25.249-15.534-75.245-10.408-100.961
				c5.784-28.902,18.08-65.702,28.002-83.73c22.236-40.419,54.533-73.149,95.974-97.272c32.834-19.102,68.629-31.241,109.481-37.094
				c14.703-2.113,30.063-2.944,45.84-3.654c52.16-2.338,95.056,11.014,120.322,22.132c32.106,14.148,59.104,33.284,82.569,58.533
				c23.604,25.422,40.09,54.741,50.395,89.653c5.386,18.166,8.104,39.345,8.104,62.932
				C662.861,289.41,661.077,308.857,656.938,333.223z"/>
		</g>
	</g>
</g>
<g>
</g>
<g>
</g>
<g>
</g>
<g>
</g>
<g>
</g>
<g>
</g>
<g>
</g>
<g>
</g>
<g>
</g>
<g>
</g>
<g>
</g>
<g>
</g>
<g>
</g>
<g>
</g>
<g>
</g>
</svg>
