<svg xmlns="http://www.w3.org/2000/svg" viewBox="0 0 92 92" width="84" height="84">
	<style>
		tspan { white-space:pre }
		.shp0 { fill: #ff4081 } 
	</style>
	<g id="Page-1" style="opacity: 0.502">
		<g id="Reset-settings">
			<path id="Shape" class="shp0" d="M66.6,16.75c-1.72,-1.24 -4.11,-0.85 -5.35,0.87c-1.24,1.72 -0.85,4.11 0.86,5.35c13.61,9.82 18.02,27.86 10.48,42.89c-4.08,8.14 -11.09,14.2 -19.73,17.07c-8.64,2.87 -17.88,2.2 -26.01,-1.88c-8.13,-4.08 -14.2,-11.09 -17.07,-19.72c-2.87,-8.64 -2.2,-17.88 1.89,-26.01c4.96,-9.89 14.46,-16.78 25.41,-18.43c0.07,-0.01 0.14,-0.04 0.21,-0.05l0.16,7.57c0.02,0.84 0.54,1.59 1.32,1.89c0.78,0.3 1.67,0.11 2.25,-0.5l10.9,-11.38c0.79,-0.83 0.76,-2.14 -0.06,-2.93l-11.38,-10.9c-0.61,-0.58 -1.5,-0.74 -2.27,-0.4c-0.25,0.11 -0.48,0.27 -0.66,0.46c-0.37,0.39 -0.59,0.92 -0.58,1.48l0.15,7.21c-0.38,-0.06 -0.78,-0.09 -1.19,-0.03c-13.42,2.02 -25.05,10.46 -31.13,22.57c-10.32,20.58 -1.97,45.71 18.6,56.03c5.99,3.01 12.36,4.43 18.65,4.43c15.31,0 30.07,-8.44 37.38,-23.03c9.24,-18.42 3.83,-40.52 -12.85,-52.55z" />
		</g>
	</g>
</svg>
