<svg width="199" height="156" viewBox="0 0 199 156" fill="none" xmlns="http://www.w3.org/2000/svg">
<path d="M163.846 102.564C180.535 106.518 198.187 92.3636 198.187 92.3636C198.187 92.3636 188.768 71.8065 172.072 67.8649C155.382 63.9109 137.735 78.0531 137.735 78.0531C137.735 78.0531 147.155 98.6103 163.846 102.564Z" fill="url(#paint0_linear_333_629)"/>
<path d="M57.6574 62.3048C42.5258 72.7269 19.4092 65.4413 19.4092 65.4413C19.4092 65.4413 20.8405 41.2604 35.982 30.8482C51.1136 20.4261 74.2199 27.7013 74.2199 27.7013C74.2199 27.7013 72.7886 51.8823 57.6574 62.3048Z" fill="url(#paint1_linear_333_629)"/>
<path d="M91.7018 27.9272C94.567 27.9272 96.8898 25.6044 96.8898 22.7391C96.8898 19.8738 94.567 17.551 91.7018 17.551C88.8365 17.551 86.5137 19.8738 86.5137 22.7391C86.5137 25.6044 88.8365 27.9272 91.7018 27.9272Z" fill="#E1E4E5"/>
<path d="M152.147 127.577C153.723 127.577 155 126.619 155 125.437C155 124.255 153.723 123.297 152.147 123.297C150.571 123.297 149.293 124.255 149.293 125.437C149.293 126.619 150.571 127.577 152.147 127.577Z" fill="#E1E4E5"/>
<path d="M189.24 66.5866C190.816 66.5866 192.093 65.6285 192.093 64.4466C192.093 63.2648 190.816 62.3066 189.24 62.3066C187.664 62.3066 186.387 63.2648 186.387 64.4466C186.387 65.6285 187.664 66.5866 189.24 66.5866Z" fill="#E1E4E5"/>
<path d="M72.9666 121.157C74.5425 121.157 75.8199 120.199 75.8199 119.017C75.8199 117.835 74.5425 116.877 72.9666 116.877C71.3908 116.877 70.1133 117.835 70.1133 119.017C70.1133 120.199 71.3908 121.157 72.9666 121.157Z" fill="#E1E4E5"/>
<path d="M161.42 46.6133C162.996 46.6133 164.274 45.6551 164.274 44.4733C164.274 43.2914 162.996 42.3333 161.42 42.3333C159.844 42.3333 158.567 43.2914 158.567 44.4733C158.567 45.6551 159.844 46.6133 161.42 46.6133Z" fill="#E1E4E5"/>
<path d="M22.5859 98.6575H22.4995C21.9884 105.775 16.6021 105.885 16.6021 105.885C16.6021 105.885 22.5416 105.999 22.5416 114.223C22.5416 105.999 28.4812 105.885 28.4812 105.885C28.4812 105.885 23.0973 105.775 22.5859 98.6575Z" fill="#E1E4E5"/>
<path d="M111.13 146.123H94.0098V104.393H111.13V146.123Z" fill="white" stroke="#E1E4E5" stroke-width="3.92333"/>
<path d="M124.327 153.257H80.4565V142.2H124.327V153.257Z" fill="white" stroke="#E1E4E5" stroke-width="3.92333" stroke-linejoin="round"/>
<path fill-rule="evenodd" clip-rule="evenodd" d="M137.602 43.2432H62.8297C49.6904 43.2432 39.0386 53.895 39.0386 67.0343V104.42C39.0386 108.173 42.0841 111.218 45.8363 111.218H154.595C158.348 111.218 161.393 108.173 161.393 104.42V67.0343C161.393 53.895 150.741 43.2432 137.602 43.2432Z" fill="white" stroke="#E1E4E5" stroke-width="3.92333"/>
<path d="M113.811 22.8511V70.4333" stroke="#E1E4E5" stroke-width="3.92333"/>
<path d="M113.804 67.8835C113.128 67.8868 112.482 68.1575 112.005 68.6365C111.529 69.1155 111.261 69.7638 111.262 70.4394C111.262 71.8465 112.404 72.9885 113.811 72.9817C114.487 72.9815 115.135 72.7128 115.613 72.2348C116.091 71.7568 116.36 71.1086 116.36 70.4326C116.36 69.0256 115.218 67.8835 113.804 67.8835Z" stroke="#E1E4E5" stroke-width="4.71906" stroke-linecap="round" stroke-linejoin="round"/>
<path fill-rule="evenodd" clip-rule="evenodd" d="M62.8301 43.2432C75.9697 43.2432 86.6212 53.895 86.6212 67.0343V111.218" fill="white"/>
<path d="M62.8301 43.2432C75.9697 43.2432 86.6212 53.895 86.6212 67.0343V111.218" stroke="#E1E4E5" stroke-width="3.92333"/>
<path d="M161.88 28.0688C162.341 28.8524 161.776 29.84 160.867 29.84H112.049C111.737 29.84 111.438 29.7161 111.217 29.4957C110.997 29.2752 110.873 28.9762 110.873 28.6644V4.37897C110.873 2.48863 112.402 0.959961 114.292 0.959961H160.902C161.813 0.959961 162.377 1.94971 161.915 2.73331L154.787 14.8036C154.68 14.9844 154.624 15.1903 154.623 15.4002C154.623 15.61 154.679 15.8161 154.785 15.997L161.88 28.0688Z" fill="#63A18F"/>
<path d="M18.0887 52.5475L10.1857 80.1688C10.0569 80.6177 10.0178 81.0876 10.0707 81.5516C10.1235 82.0157 10.2673 82.4647 10.4937 82.8732C10.7201 83.2817 11.0247 83.6416 11.3902 83.9323C11.7557 84.223 12.1749 84.4389 12.6239 84.5676L60.5945 98.2903C62.0811 98.7144 63.6172 98.1259 64.4657 96.9336C64.7011 96.6044 64.8782 96.2373 64.9893 95.8482L72.8881 68.2383C73.4309 66.3505 72.3377 64.3824 70.4538 63.8438L22.4832 50.1171C20.5993 49.5782 18.6387 50.6636 18.0887 52.5475Z" fill="white" stroke="#E1E4E5" stroke-width="3.92333"/>
<path d="M10.0591 81.3844C10.1082 82.1142 10.3811 82.811 10.8406 83.38C11.3002 83.9491 11.924 84.3625 12.6271 84.5641L60.5941 98.2908C61.3004 98.4923 62.0519 98.47 62.745 98.2271C63.4382 97.9841 64.0391 97.5324 64.465 96.934L40.0344 74.6741L10.0591 81.3844Z" fill="white" stroke="#E1E4E5" stroke-width="3.92333"/>
<path d="M18.0889 52.5475L39.5652 79.2137L72.4834 69.6521L72.8882 68.2383C73.431 66.3505 72.3379 64.3824 70.4539 63.8438L22.4834 50.1171C20.5994 49.5782 18.6388 50.6636 18.0889 52.5475Z" fill="white" stroke="#E1E4E5" stroke-width="3.92333"/>
<path d="M18.7532 66.9434C28.9963 66.9434 37.2999 58.6398 37.2999 48.3968C37.2999 38.1537 28.9963 29.8501 18.7532 29.8501C8.51017 29.8501 0.206543 38.1537 0.206543 48.3968C0.206543 58.6398 8.51017 66.9434 18.7532 66.9434Z" fill="#63A18F"/>
<path fill-rule="evenodd" clip-rule="evenodd" d="M14.5471 39.8367C11.0867 39.8367 8.7666 43.0253 8.7666 45.9945C8.7666 52.0218 18.3995 56.9567 18.5749 56.9567C18.7504 56.9567 28.3833 52.0218 28.3833 45.9945C28.3833 43.0253 26.0632 39.8367 22.6028 39.8367C20.6247 39.8367 19.3257 40.805 18.5749 41.6674C17.8242 40.805 16.5248 39.8367 14.5471 39.8367ZM141.09 155.04V142.2V155.04Z" fill="white"/>
<path d="M141.09 155.04V142.2" stroke="#E1E4E5" stroke-width="3.92333"/>
<path d="M166.057 155.04V147.193" stroke="#E1E4E5" stroke-width="3.92333"/>
<path d="M135.383 155.04V146.123" stroke="#E1E4E5" stroke-width="3.92333"/>
<path d="M160.35 155.04V149.69" stroke="#E1E4E5" stroke-width="3.92333"/>
<path d="M146.44 155.04V146.123" stroke="#E1E4E5" stroke-width="3.92333"/>
<path d="M171.407 155.04V149.69" stroke="#E1E4E5" stroke-width="3.92333"/>
<path d="M64.0498 155.04V142.2" stroke="#E1E4E5" stroke-width="3.92333"/>
<path d="M39.0835 155.04V147.193" stroke="#E1E4E5" stroke-width="3.92333"/>
<path d="M69.7568 155.04V146.123" stroke="#E1E4E5" stroke-width="3.92333"/>
<path d="M44.79 155.04V149.69" stroke="#E1E4E5" stroke-width="3.92333"/>
<path d="M58.7002 155.04V146.123" stroke="#E1E4E5" stroke-width="3.92333"/>
<path d="M33.7334 155.04V149.69" stroke="#E1E4E5" stroke-width="3.92333"/>
<defs>
<linearGradient id="paint0_linear_333_629" x1="226.695" y1="112.395" x2="80.592" y2="43.3705" gradientUnits="userSpaceOnUse">
<stop stop-color="white"/>
<stop offset="1" stop-color="#EEEEEE"/>
</linearGradient>
<linearGradient id="paint1_linear_333_629" x1="-1.28569" y1="96.5016" x2="117.825" y2="-29.0971" gradientUnits="userSpaceOnUse">
<stop stop-color="white"/>
<stop offset="1" stop-color="#EEEEEE"/>
</linearGradient>
</defs>
</svg>
