<?xml version="1.0" encoding="UTF-8"?>
<svg width="512px" height="406px" viewBox="0 0 512 406" version="1.1" xmlns="http://www.w3.org/2000/svg" xmlns:xlink="http://www.w3.org/1999/xlink">
    <!-- Generator: Sketch 50.2 (55047) - http://www.bohemiancoding.com/sketch -->
    <title>cloud-computing@2x</title>
    <desc>Created with Sketch.</desc>
    <defs>
        <linearGradient x1="100%" y1="50%" x2="0%" y2="50%" id="linearGradient-1">
            <stop stop-color="#0294FF" offset="0%"></stop>
            <stop stop-color="#78C6FF" offset="100%"></stop>
        </linearGradient>
    </defs>
    <g id="Page-1" stroke="none" stroke-width="1" fill="none" fill-rule="evenodd">
        <g id="cloud-computing" fill="url(#linearGradient-1)" fill-rule="nonzero">
            <path d="M405.967,142.112 C404.898,64.051 341.065,0.873 262.754,0.873 C227.919,0.873 194.358,13.545 168.256,36.555 C144.96,57.09 129.024,84.532 122.713,114.661 C122.252,114.656 121.795,114.652 121.339,114.652 C54.434,114.652 0,169.085 0,235.991 C0,302.897 54.434,357.33 121.34,357.33 L206.083,357.33 C212.112,357.33 217.002,352.442 217.002,346.411 C217.002,340.38 212.112,335.492 206.083,335.492 L121.34,335.492 C66.474,335.492 21.838,290.856 21.838,235.991 C21.838,181.126 66.474,136.49 121.34,136.49 C124.263,136.49 127.353,136.647 130.788,136.97 C136.61,137.515 141.837,133.374 142.63,127.574 C146.562,98.754 160.791,72.247 182.697,52.936 C204.808,33.444 233.239,22.71 262.753,22.71 C329.688,22.71 384.142,77.165 384.142,144.099 C384.142,146.509 383.963,148.993 383.774,151.623 L383.693,152.741 C383.466,155.953 384.668,159.102 386.98,161.345 C389.289,163.588 392.468,164.696 395.677,164.375 C398.581,164.082 401.511,163.935 404.385,163.935 C451.682,163.935 490.163,202.415 490.163,249.713 C490.163,297.01 451.683,335.49 404.385,335.49 L315.274,335.49 C309.245,335.49 304.355,340.378 304.355,346.409 C304.355,352.44 309.245,357.328 315.274,357.328 L404.385,357.328 C463.724,357.328 512.001,309.053 512.001,249.713 C512,190.906 464.58,142.961 405.967,142.112 Z" id="Shape"></path>
            <path d="M262.755,52.192 C217.097,52.192 178.013,86.313 171.841,131.559 C171.026,137.534 175.21,143.039 181.184,143.854 C181.685,143.922 182.182,143.956 182.673,143.956 C188.048,143.956 192.732,139.986 193.477,134.512 C198.18,100.032 227.963,74.03 262.754,74.03 C268.785,74.03 273.673,69.142 273.673,63.111 C273.674,57.081 268.785,52.192 262.755,52.192 Z" id="Shape"></path>
            <path d="M312.41,267.052 L272.692,231.572 C265.845,225.452 255.515,225.453 248.665,231.571 L208.947,267.053 C204.449,271.07 204.061,277.973 208.078,282.471 C212.095,286.967 218.997,287.358 223.496,283.34 L249.76,259.878 L249.76,394.209 C249.76,400.24 254.648,405.128 260.679,405.128 C266.709,405.128 271.598,400.24 271.598,394.209 L271.598,259.876 L297.863,283.339 C299.945,285.2 302.544,286.115 305.133,286.115 C308.135,286.115 311.123,284.886 313.281,282.47 C317.296,277.972 316.907,271.07 312.41,267.052 Z" id="Shape"></path>
        </g>
    </g>
</svg>