 <svg version="1.0" xmlns="http://www.w3.org/2000/svg" width="11.500000pt" height="11.500000pt" viewBox="0 0 700.000000 700.000000" preserveAspectRatio="xMidYMid meet">
<metadata>
Created by potrace 1.12, written by Peter Selinger 2001-2015
</metadata>
<g transform="translate(0.000000,700.000000) scale(0.100000,-0.100000)" fill="#000000" stroke="none">
<path d="M3187 6986 c-11 -27 -55 -47 -179 -81 -146 -39 -281 -91 -335 -128
-21 -14 -56 -33 -78 -40 -59 -21 -179 -106 -316 -224 -27 -24 -53 -43 -58 -43
-8 0 -78 -82 -233 -273 -15 -19 -44 -63 -64 -98 -19 -35 -42 -71 -50 -80 -8
-8 -24 -40 -37 -70 -12 -30 -34 -74 -48 -99 -15 -25 -32 -70 -39 -100 -7 -30
-25 -86 -41 -125 -30 -75 -42 -157 -59 -382 -17 -225 14 -552 64 -672 13 -31
31 -79 39 -107 8 -29 31 -82 51 -119 20 -38 36 -74 36 -81 0 -6 16 -36 36 -65
20 -30 44 -70 54 -90 10 -19 26 -42 36 -50 9 -7 28 -32 42 -54 14 -22 39 -58
56 -79 37 -47 238 -246 248 -246 4 0 24 -14 44 -32 48 -42 148 -111 205 -142
26 -14 49 -32 53 -41 6 -17 -34 -65 -54 -65 -7 0 -44 -15 -83 -34 -40 -19 -94
-37 -122 -41 -27 -4 -91 -27 -141 -51 -51 -24 -96 -44 -100 -44 -5 0 -29 -14
-54 -30 -25 -16 -67 -37 -95 -46 -27 -9 -72 -31 -100 -49 -27 -18 -70 -45 -95
-59 -25 -15 -70 -44 -101 -64 -30 -20 -78 -51 -105 -69 -75 -48 -131 -94 -313
-256 -148 -133 -381 -376 -381 -398 0 -5 -19 -31 -43 -58 -88 -105 -176 -230
-218 -313 -12 -24 -32 -57 -45 -74 -13 -17 -31 -50 -39 -75 -9 -24 -26 -60
-39 -79 -12 -19 -33 -62 -45 -95 -12 -33 -33 -78 -46 -100 -13 -22 -31 -67
-40 -100 -10 -33 -30 -90 -46 -127 -16 -37 -40 -121 -53 -185 -13 -65 -33
-138 -44 -163 -13 -28 -25 -89 -32 -160 -6 -63 -17 -158 -25 -210 -7 -52 -16
-151 -20 -220 l-6 -125 35 -72 c20 -39 36 -78 36 -87 0 -15 294 -16 3300 -16
3006 0 3300 1 3300 16 0 9 16 48 36 87 l35 72 -6 125 c-4 69 -13 168 -20 220
-8 52 -19 147 -25 210 -7 71 -19 132 -32 160 -11 25 -31 98 -44 163 -13 64
-37 148 -53 185 -16 37 -36 94 -46 127 -9 33 -27 78 -40 100 -13 22 -34 67
-46 100 -12 33 -33 76 -45 95 -13 19 -30 55 -39 79 -8 25 -26 58 -39 75 -13
17 -33 50 -45 74 -42 83 -130 208 -218 313 -24 27 -43 54 -43 58 0 5 -48 62
-106 127 -137 154 -483 467 -559 507 -17 8 -47 28 -67 44 -21 15 -74 51 -118
78 -44 28 -104 65 -133 84 -29 18 -77 42 -107 52 -30 11 -71 30 -90 44 -19 13
-58 33 -85 43 -28 11 -66 29 -86 41 -19 11 -73 30 -120 42 -108 27 -266 95
-272 119 -7 27 11 50 56 71 48 22 148 90 201 137 20 18 40 32 44 32 10 0 211
199 248 246 17 21 42 57 56 79 14 22 33 47 42 54 10 8 26 31 36 50 10 20 34
60 54 90 20 29 36 59 36 65 0 7 16 43 36 81 20 37 43 90 51 119 8 28 26 76 39
107 50 120 81 447 64 672 -17 225 -29 307 -59 382 -16 39 -34 95 -41 125 -7
30 -24 75 -39 100 -14 25 -36 69 -48 99 -13 30 -29 62 -37 70 -8 9 -31 45 -50
80 -20 35 -49 79 -64 98 -155 191 -225 273 -233 273 -5 0 -31 19 -58 43 -137
118 -257 203 -316 224 -22 7 -57 26 -78 40 -54 37 -189 89 -335 128 -124 34
-168 54 -179 81 -8 21 -618 21 -626 0z m468 -307 c33 -5 97 -13 142 -19 45 -5
108 -19 140 -30 32 -12 99 -35 148 -52 50 -17 102 -40 117 -50 15 -10 56 -32
90 -49 35 -16 90 -52 123 -79 33 -28 83 -68 112 -90 28 -21 88 -81 133 -132
44 -51 92 -105 105 -120 14 -14 35 -44 47 -65 12 -21 32 -52 44 -68 13 -17 32
-53 44 -80 12 -28 32 -66 45 -85 13 -19 33 -75 45 -125 11 -49 32 -123 46
-163 55 -160 55 -555 -1 -716 -13 -39 -31 -102 -40 -141 -15 -66 -125 -307
-146 -320 -5 -4 -19 -25 -30 -47 -64 -124 -362 -414 -499 -483 -19 -10 -53
-30 -75 -45 -22 -15 -65 -35 -95 -45 -30 -10 -76 -28 -102 -42 -55 -27 -142
-49 -254 -63 -44 -5 -127 -17 -187 -27 -101 -16 -113 -16 -215 0 -59 10 -142
22 -186 27 -112 14 -199 36 -254 63 -26 14 -72 32 -102 42 -30 10 -73 30 -95
45 -22 15 -56 35 -75 45 -137 69 -435 359 -499 483 -11 22 -25 43 -30 47 -21
13 -131 254 -146 320 -9 39 -27 102 -40 141 -56 161 -56 556 -1 716 14 40 35
114 46 163 12 50 32 106 45 125 13 19 33 57 45 85 12 27 31 63 44 80 12 16 32
47 44 68 12 21 33 51 47 65 13 15 61 69 105 120 45 51 105 111 133 132 29 22
79 62 112 90 33 27 88 63 123 79 34 17 75 39 90 49 15 10 68 33 117 50 50 17
116 40 148 52 52 18 157 36 357 59 70 9 140 6 235 -10z m320 -3468 c50 -12
135 -30 190 -41 175 -36 405 -108 500 -157 22 -11 65 -28 95 -38 30 -10 72
-29 94 -42 21 -14 59 -34 85 -44 25 -11 69 -35 96 -53 28 -19 64 -42 81 -52
79 -48 156 -104 241 -173 50 -42 115 -94 144 -116 66 -50 226 -212 339 -342
157 -181 187 -218 205 -253 10 -19 31 -51 46 -70 16 -19 29 -40 29 -46 0 -7
16 -36 36 -65 20 -30 50 -81 66 -114 17 -33 38 -71 48 -85 9 -14 25 -50 35
-80 9 -30 27 -73 40 -95 13 -22 33 -74 45 -115 12 -41 33 -96 45 -121 13 -25
33 -95 45 -155 11 -60 31 -147 45 -194 26 -91 51 -329 40 -386 -3 -18 -17 -42
-32 -54 l-26 -20 -3007 0 -3007 0 -26 20 c-15 12 -29 36 -32 54 -11 57 14 295
40 386 14 47 34 134 45 194 12 60 32 130 45 155 12 25 33 80 45 121 12 41 31
89 41 107 11 17 31 64 44 104 14 39 35 86 48 103 13 17 33 51 44 76 11 25 37
69 57 99 20 29 36 59 36 66 0 8 11 27 25 43 14 16 36 49 49 73 54 94 428 504
542 592 27 21 96 76 154 123 58 47 119 92 135 101 17 9 44 27 60 40 61 50 355
208 425 228 14 4 50 20 80 35 31 16 76 33 100 40 25 6 74 25 110 40 40 17 123
39 210 55 79 14 176 35 217 46 116 32 215 38 568 34 290 -3 341 -6 420 -24z"></path>
<path d="M3255 2961 c-78 -5 -155 -17 -220 -34 -55 -15 -126 -31 -158 -38 -51
-9 -62 -16 -88 -52 -42 -57 -46 -82 -21 -133 33 -67 59 -79 170 -77 52 2 132
12 180 23 48 12 158 27 245 35 165 15 199 24 229 65 35 48 39 84 13 132 -35
66 -59 79 -151 83 -43 2 -133 0 -199 -4z"></path>
<path d="M2038 2546 c-31 -13 -71 -35 -89 -50 -17 -15 -45 -34 -63 -43 -33
-17 -53 -32 -199 -154 -157 -130 -376 -367 -467 -504 -19 -29 -47 -72 -62 -94
-97 -144 -128 -201 -234 -431 -36 -81 -94 -242 -126 -355 -27 -98 -21 -180 15
-211 15 -13 45 -29 67 -35 35 -11 45 -10 76 7 59 31 81 58 99 120 9 32 27 77
40 99 13 22 30 74 39 115 10 41 29 97 43 125 14 27 34 74 44 102 10 29 29 68
42 85 14 18 37 56 51 83 26 48 65 113 120 200 13 22 53 72 87 110 33 39 82 94
108 123 87 100 225 234 275 268 28 18 83 58 121 89 39 30 86 66 105 79 60 41
121 111 128 147 13 64 4 87 -46 119 -57 36 -98 38 -174 6z"></path>
</g>
</svg>
