 <svg version="1.0" xmlns="http://www.w3.org/2000/svg" width="20.000000pt" height="20.000000pt" viewBox="0 0 700.000000 1000.000000" preserveAspectRatio="xMidYMid meet">
<metadata>
Created by potrace 1.12, written by Peter Selinger 2001-2015
</metadata>
<g transform="translate(0.000000,1000.000000) scale(0.100000,-0.100000)" fill="#000000" stroke="none">
<path d="M2701 9961 c-6 -22 -29 -63 -51 -92 -23 -31 -43 -72 -50 -101 -12
-56 -16 -2983 -4 -3344 6 -189 4 -224 -9 -257 -26 -60 -50 -49 -118 53 -67
100 -82 146 -108 336 -11 78 -30 165 -41 195 -44 110 -51 132 -79 288 -18 94
-44 198 -65 253 -20 54 -46 156 -61 238 -15 85 -38 171 -54 210 -40 92 -48
119 -71 260 -12 68 -29 147 -39 175 -105 286 -101 278 -154 336 -29 31 -79 89
-112 129 -33 40 -82 98 -109 129 -26 31 -67 81 -89 111 -38 53 -71 91 -183
218 -28 31 -56 65 -61 76 -6 10 -33 44 -62 75 -107 117 -159 177 -188 221 -17
25 -41 54 -53 65 -12 11 -49 54 -80 95 -72 93 -166 186 -203 199 -37 14 -97
13 -123 -2 -22 -12 -92 -95 -112 -133 -12 -23 -37 -175 -52 -321 -6 -55 -24
-133 -44 -195 -23 -69 -41 -154 -55 -258 -36 -264 -40 -282 -71 -380 -17 -54
-39 -156 -50 -240 -57 -416 -54 -357 -26 -530 27 -165 49 -254 90 -363 15 -37
33 -111 42 -165 20 -128 38 -196 68 -258 14 -29 32 -87 40 -130 8 -44 24 -127
36 -186 11 -59 33 -140 49 -180 32 -79 91 -362 91 -431 0 -45 -27 -114 -52
-135 -8 -6 -51 -30 -95 -51 -67 -33 -89 -50 -134 -106 -112 -138 -114 -142
-129 -302 -11 -112 -1 -247 23 -304 25 -60 161 -211 239 -265 40 -28 80 -64
88 -80 13 -25 15 -266 17 -1959 2 -1333 6 -1959 14 -2024 12 -107 28 -158 63
-204 13 -17 37 -59 54 -92 27 -54 194 -255 211 -255 4 0 51 -29 105 -64 84
-56 110 -67 192 -86 105 -24 148 -51 159 -100 l7 -30 2024 0 c1821 0 2024 2
2024 15 0 57 54 94 165 115 74 15 135 41 183 78 20 16 52 37 70 46 54 28 197
176 227 236 15 30 41 74 57 98 40 59 54 94 75 198 16 83 18 214 23 2044 5
1843 6 1957 23 1983 9 14 43 46 75 69 82 60 209 193 228 236 22 52 54 207 54
265 0 65 -36 241 -59 286 -11 20 -34 50 -52 67 -19 17 -49 48 -67 68 -20 22
-63 51 -105 70 -40 18 -80 42 -89 52 -27 31 -48 90 -48 136 0 62 26 204 57
306 44 150 52 191 78 417 21 187 48 360 81 515 10 46 120 158 191 193 60 31
202 166 228 217 9 19 37 64 61 100 47 70 63 125 84 295 18 140 16 267 -9 570
-26 332 -52 521 -80 592 -21 53 -64 269 -76 378 -8 70 -35 131 -108 236 -28
42 -57 84 -62 94 -10 16 -13 15 -44 -11 -19 -16 -71 -56 -117 -89 -45 -33
-110 -80 -144 -105 -34 -25 -85 -66 -113 -91 -29 -25 -68 -56 -87 -69 -19 -13
-41 -32 -48 -42 -7 -10 -39 -37 -70 -60 -72 -53 -176 -146 -354 -318 -150
-144 -247 -253 -315 -352 -23 -33 -53 -73 -66 -87 -40 -43 -56 -84 -104 -269
-54 -214 -54 -258 1 -431 65 -202 60 -277 -23 -385 -21 -28 -52 -78 -69 -111
-16 -33 -43 -77 -60 -98 -16 -20 -42 -67 -57 -105 -14 -37 -41 -85 -58 -107
-17 -21 -46 -77 -65 -124 -18 -46 -49 -104 -67 -128 -19 -25 -41 -70 -50 -101
-35 -128 -66 -164 -128 -148 -54 13 -52 -56 -55 1520 -1 962 -6 1472 -12 1497
-6 21 -29 60 -52 86 -43 50 -68 99 -68 133 0 20 -2 20 -808 20 l-809 0 -12
-39z m1297 -401 c58 -18 98 -57 112 -109 14 -53 8 -248 -9 -280 -25 -46 -91
-64 -266 -70 -177 -7 -179 -7 -258 -88 -50 -52 -57 -96 -27 -157 16 -33 35
-54 68 -74 45 -26 55 -27 217 -33 180 -7 227 -18 254 -61 19 -31 34 -201 21
-248 -21 -77 -71 -97 -278 -108 -128 -7 -143 -10 -180 -35 -109 -72 -136 -118
-112 -192 29 -86 96 -115 295 -124 212 -10 253 -33 276 -156 14 -75 4 -155
-24 -197 -39 -58 -84 -72 -242 -78 -130 -5 -144 -7 -198 -35 -81 -41 -106 -71
-113 -131 -7 -67 9 -92 90 -139 l69 -39 146 -7 c155 -6 190 -15 233 -56 52
-49 60 -192 17 -291 -27 -63 -61 -74 -249 -82 -175 -8 -221 -21 -269 -75 -35
-40 -48 -103 -31 -145 7 -18 40 -48 87 -79 l75 -51 91 0 c112 0 218 -15 257
-35 56 -29 64 -54 64 -201 0 -157 -9 -178 -90 -206 -43 -15 -102 -17 -509 -17
-426 -1 -463 1 -500 18 -22 10 -50 30 -63 43 l-23 26 0 1702 0 1703 26 38 c26
40 69 68 118 78 16 3 221 6 455 5 334 0 436 -3 470 -14z m2399 -216 c59 -37
83 -152 134 -639 11 -110 25 -222 30 -249 22 -118 -10 -370 -60 -477 -23 -48
-157 -191 -201 -214 -14 -7 -79 -29 -145 -50 -130 -39 -140 -39 -295 -8 -107
21 -184 61 -267 140 -65 61 -77 79 -119 173 -70 160 -76 184 -71 276 4 71 11
96 53 190 29 63 64 122 84 143 19 20 52 59 72 86 38 52 261 278 313 317 17 13
49 41 71 63 23 22 74 67 114 100 40 33 94 81 120 107 69 69 108 79 167 42z
m-5571 -219 c13 -8 36 -35 51 -58 15 -23 48 -65 73 -93 25 -28 81 -95 125
-149 44 -54 99 -119 121 -145 23 -27 56 -69 73 -93 17 -25 45 -55 61 -67 17
-12 39 -39 50 -60 11 -21 38 -59 60 -85 22 -25 40 -55 40 -65 0 -10 -22 -45
-50 -77 -27 -32 -50 -61 -50 -65 0 -4 -33 -26 -72 -49 -40 -23 -82 -50 -93
-60 -84 -75 -398 -117 -603 -80 -92 16 -122 40 -129 101 -9 81 53 440 96 552
9 24 38 222 56 383 8 66 25 108 52 125 23 14 109 5 139 -15z m800 -1281 c58
-39 94 -131 135 -349 21 -110 41 -184 64 -235 25 -55 41 -116 59 -228 18 -102
38 -184 62 -245 23 -61 44 -143 61 -242 17 -102 36 -178 60 -237 42 -105 63
-181 63 -228 0 -52 -32 -97 -77 -109 -24 -7 -213 -11 -521 -11 -531 0 -524 -1
-589 62 -40 39 -46 56 -77 241 -14 81 -39 182 -55 225 -37 97 -45 128 -71 282
-12 68 -29 147 -39 175 -10 27 -28 77 -41 110 -12 33 -30 108 -40 167 -10 58
-30 143 -44 188 -31 97 -32 134 -7 159 30 30 81 39 271 45 240 7 320 25 490
110 74 37 151 83 172 101 43 39 83 45 124 19z m3923 -399 c45 -31 88 -50 136
-61 164 -39 175 -44 215 -86 51 -52 68 -105 52 -161 -23 -79 -41 -172 -51
-267 -34 -302 -42 -354 -76 -457 -19 -60 -44 -164 -55 -233 -23 -138 -36 -165
-96 -195 -37 -19 -62 -20 -444 -23 -481 -4 -522 -1 -562 38 -40 41 -38 84 8
145 20 26 51 88 69 139 18 50 49 117 69 150 19 32 45 87 56 121 11 34 35 84
52 111 17 27 48 88 68 135 21 48 51 107 68 131 17 25 43 75 57 111 15 37 40
85 57 108 16 22 47 77 69 122 26 55 60 105 102 150 81 86 108 89 206 22z m497
-1870 c99 -51 146 -143 123 -244 -17 -76 -67 -115 -189 -144 -58 -14 -333 -16
-2670 -14 l-2605 2 -75 23 c-91 28 -115 43 -136 84 -23 45 -24 153 -1 195 31
59 96 104 174 122 21 5 1203 8 2679 7 l2640 -1 60 -30z m-311 -779 c19 -15 43
-41 53 -59 16 -30 17 -140 17 -1902 l0 -1870 -28 -110 c-16 -60 -34 -119 -40
-131 -22 -41 -175 -192 -213 -212 -22 -11 -90 -34 -152 -52 l-114 -32 -1936 1
c-1886 0 -1939 1 -2012 20 -176 45 -230 79 -342 212 -70 85 -77 96 -99 183
-17 66 -18 177 -20 1973 -1 1842 0 1904 18 1935 10 18 36 42 58 53 40 20 59
20 2407 19 l2368 -1 35 -27z"></path>
<path d="M1341 4366 c-53 -19 -75 -56 -79 -134 -3 -57 -1 -71 18 -95 27 -34
109 -77 148 -77 36 0 149 81 163 118 14 37 3 105 -23 138 -45 56 -148 79 -227
50z"></path>
<path d="M1355 3605 c-50 -18 -71 -43 -90 -108 -13 -44 -15 -209 -15 -1246 0
-723 4 -1219 10 -1255 11 -69 34 -98 89 -115 85 -25 181 1 225 62 21 28 21 35
24 1269 1 819 -1 1253 -8 1278 -13 50 -43 86 -91 110 -45 23 -88 25 -144 5z"></path>
</g>
</svg>
