 <svg version="1.0" xmlns="http://www.w3.org/2000/svg" width="20.000000pt" height="20.000000pt" viewBox="0 0 700.000000 824.000000" preserveAspectRatio="xMidYMid meet">
<metadata>
Created by potrace 1.12, written by Peter Selinger 2001-2015
</metadata>
<g transform="translate(0.000000,824.000000) scale(0.100000,-0.100000)" fill="#000000" stroke="none">
<path d="M3443 8203 c-10 -21 -33 -47 -51 -58 -18 -11 -54 -35 -80 -53 -26
-18 -75 -46 -110 -62 -34 -16 -77 -40 -95 -54 -18 -13 -58 -36 -89 -49 -32
-14 -77 -39 -101 -56 -24 -16 -68 -39 -98 -50 -29 -12 -73 -34 -96 -51 -23
-17 -67 -39 -97 -50 -30 -10 -78 -34 -107 -54 -30 -20 -76 -43 -103 -52 -27
-9 -74 -32 -105 -50 -31 -18 -82 -42 -114 -53 -32 -11 -83 -34 -112 -51 -30
-17 -85 -41 -123 -54 -38 -13 -87 -35 -110 -49 -22 -15 -71 -36 -109 -48 -37
-12 -92 -35 -121 -50 -29 -16 -92 -40 -140 -55 -48 -14 -111 -39 -142 -54 -30
-15 -91 -37 -135 -49 -44 -12 -106 -35 -137 -51 -31 -16 -101 -40 -156 -53
-54 -14 -121 -36 -150 -51 -28 -14 -91 -35 -141 -46 -50 -11 -132 -35 -183
-55 -51 -19 -133 -44 -183 -55 -104 -24 -127 -41 -152 -114 -17 -47 -18 -118
-18 -1006 0 -1247 12 -1528 80 -1805 19 -77 39 -176 45 -220 13 -96 25 -142
56 -217 13 -31 33 -101 45 -155 12 -54 36 -127 55 -165 19 -38 41 -98 50 -136
8 -37 31 -95 50 -129 19 -34 45 -93 58 -131 13 -38 35 -85 49 -103 14 -19 37
-65 51 -103 15 -39 37 -84 50 -100 13 -17 38 -60 55 -96 18 -36 41 -74 51 -85
10 -11 32 -47 49 -80 17 -33 46 -79 64 -101 17 -23 44 -63 60 -90 27 -49 60
-94 137 -189 22 -27 54 -68 70 -90 37 -49 93 -118 186 -227 140 -163 556 -554
659 -620 22 -14 51 -38 65 -53 14 -15 41 -35 60 -45 19 -10 44 -28 54 -39 11
-12 47 -38 80 -58 34 -20 75 -48 91 -63 17 -16 50 -38 75 -50 25 -13 58 -34
74 -47 16 -13 56 -38 90 -55 34 -17 75 -41 91 -53 17 -13 59 -35 94 -49 35
-14 79 -37 98 -52 18 -14 66 -36 106 -50 39 -13 96 -37 127 -53 30 -16 100
-38 154 -50 107 -22 131 -37 141 -82 l7 -29 89 0 c81 0 89 2 89 19 0 45 40 70
143 90 61 12 118 31 150 49 29 16 84 39 122 52 39 13 89 36 113 52 24 17 70
41 103 54 32 13 80 40 105 59 25 19 52 35 59 35 8 0 43 20 79 45 36 24 86 55
113 68 26 14 57 35 68 47 11 12 45 35 76 50 31 16 76 47 100 69 24 23 47 41
51 41 5 0 30 19 56 43 26 24 64 54 84 66 21 12 41 28 45 35 5 7 34 32 66 55
31 24 57 46 57 50 0 4 21 23 48 43 114 89 572 579 637 684 11 17 35 49 53 70
55 65 131 173 156 222 13 26 34 56 46 67 12 11 33 43 47 70 14 28 35 64 48 80
12 17 37 59 55 95 18 36 43 79 56 95 12 17 32 55 44 85 12 30 37 82 56 116 19
33 43 87 54 119 11 33 34 83 50 112 17 29 40 88 51 130 12 43 36 108 54 144
19 36 41 100 49 142 9 43 34 130 55 195 22 64 47 166 56 227 8 60 27 145 40
188 64 201 87 736 83 1922 l-3 850 -23 52 c-32 69 -46 80 -128 99 -38 8 -112
31 -164 49 -52 19 -140 46 -196 59 -55 14 -130 39 -165 55 -35 17 -105 39
-155 50 -53 11 -115 33 -146 50 -30 17 -91 40 -137 51 -46 12 -113 36 -149 54
-37 19 -94 42 -126 51 -33 9 -89 31 -125 50 -36 18 -93 40 -126 50 -32 9 -91
34 -130 55 -38 21 -95 45 -126 54 -30 8 -75 29 -100 46 -24 16 -73 39 -109 50
-36 12 -87 36 -115 54 -27 18 -75 41 -105 50 -30 10 -74 31 -97 47 -23 16 -72
42 -110 57 -37 16 -85 40 -105 54 -20 14 -63 35 -95 48 -32 13 -73 34 -91 47
-18 14 -63 38 -99 55 -37 16 -81 40 -97 53 -17 13 -59 36 -93 53 -34 16 -76
40 -94 52 -17 13 -54 35 -82 48 -34 18 -58 38 -76 68 -22 36 -31 43 -58 44
-26 0 -34 -6 -50 -37z m112 -393 c14 -5 43 -23 63 -39 20 -15 53 -34 72 -41
19 -8 60 -31 90 -51 30 -21 74 -45 96 -53 23 -8 63 -30 90 -48 27 -19 72 -43
99 -53 28 -10 70 -32 95 -49 24 -16 75 -43 113 -58 38 -15 82 -38 99 -49 16
-12 64 -34 105 -50 41 -15 92 -39 112 -54 21 -14 73 -37 117 -51 43 -14 94
-37 112 -51 18 -13 64 -35 103 -48 39 -13 94 -38 122 -54 29 -16 84 -39 122
-51 39 -13 93 -35 120 -51 28 -15 86 -37 130 -49 44 -12 103 -35 132 -50 28
-16 93 -41 145 -56 51 -15 119 -40 151 -56 31 -15 97 -38 145 -49 48 -11 121
-36 162 -54 41 -18 104 -39 140 -46 86 -16 259 -85 290 -115 l25 -24 0 -958
c0 -1109 -6 -1259 -60 -1492 -19 -80 -44 -203 -55 -274 -12 -73 -34 -159 -50
-200 -16 -39 -38 -114 -49 -165 -12 -52 -36 -126 -55 -165 -19 -39 -42 -100
-51 -136 -9 -36 -32 -92 -50 -125 -18 -33 -43 -89 -55 -125 -12 -36 -33 -80
-48 -99 -14 -19 -38 -66 -54 -105 -16 -39 -40 -85 -54 -103 -14 -18 -36 -57
-49 -86 -13 -29 -34 -66 -48 -83 -13 -16 -36 -52 -50 -80 -14 -27 -42 -70 -62
-94 -20 -24 -45 -60 -55 -80 -10 -20 -26 -43 -36 -51 -9 -7 -28 -31 -41 -52
-108 -171 -451 -540 -745 -799 -113 -101 -160 -139 -210 -171 -29 -19 -62 -44
-73 -57 -11 -12 -40 -32 -65 -45 -25 -13 -54 -33 -65 -45 -11 -12 -40 -32 -65
-45 -25 -13 -63 -37 -85 -55 -22 -18 -67 -46 -100 -62 -33 -17 -72 -41 -87
-54 -15 -12 -53 -32 -85 -44 -31 -12 -75 -34 -97 -50 -21 -16 -69 -39 -105
-51 -36 -12 -94 -37 -127 -56 -66 -36 -187 -63 -280 -63 -80 0 -204 29 -262
61 -29 16 -88 42 -132 58 -44 16 -92 38 -107 49 -16 10 -55 31 -88 46 -32 15
-73 37 -90 50 -16 13 -59 38 -95 56 -36 18 -83 47 -105 65 -22 18 -58 42 -80
53 -22 11 -49 30 -60 42 -11 12 -37 31 -58 41 -21 11 -55 35 -75 53 -20 18
-56 45 -79 60 -80 49 -313 258 -487 434 -210 213 -379 406 -442 507 -10 17
-38 54 -61 83 -24 29 -43 56 -43 60 0 4 -19 30 -41 57 -23 28 -51 70 -62 95
-11 25 -34 63 -52 85 -18 22 -42 62 -54 89 -12 28 -33 65 -47 83 -13 18 -38
65 -54 104 -16 39 -35 78 -43 87 -21 24 -51 88 -72 152 -10 30 -28 71 -40 90
-25 41 -38 74 -60 153 -9 32 -29 84 -46 115 -16 32 -38 101 -50 155 -11 54
-34 129 -50 167 -18 43 -36 116 -49 197 -11 70 -36 196 -55 278 -55 240 -60
375 -60 1482 l0 963 25 24 c34 33 175 88 295 116 55 12 125 35 156 51 31 15
98 38 150 50 52 12 119 34 150 50 31 15 97 39 147 53 50 14 121 42 159 61 37
19 74 35 81 35 24 0 136 42 162 60 14 10 64 31 110 46 47 15 112 42 145 60 33
18 92 44 132 57 39 14 85 34 101 45 16 12 64 35 107 51 43 17 94 41 114 54 20
13 54 30 76 37 48 15 110 46 145 71 14 10 51 27 82 38 32 11 77 33 100 49 24
16 73 43 110 60 37 17 82 42 100 55 18 14 56 35 85 46 29 11 74 36 100 54 26
19 70 44 98 56 27 12 59 30 70 41 40 37 107 50 160 30z"></path>
<path d="M2285 6793 c-49 -12 -85 -37 -99 -68 -36 -75 -7 -178 58 -209 111
-53 233 28 223 147 -5 53 -30 95 -68 114 -30 15 -88 23 -114 16z"></path>
<path d="M1710 6571 c-30 -10 -75 -30 -100 -44 -25 -14 -83 -35 -130 -47 -47
-12 -109 -35 -138 -51 -29 -16 -94 -39 -145 -51 -50 -11 -117 -33 -148 -49
-30 -15 -84 -35 -120 -44 -79 -21 -98 -31 -136 -75 -54 -63 -53 -55 -53 -430
0 -283 3 -356 14 -378 22 -42 108 -102 146 -102 43 0 94 32 122 78 22 36 23
45 25 277 1 132 2 250 2 262 1 12 17 36 36 54 66 63 114 87 213 110 53 12 126
37 162 54 36 18 101 42 145 54 44 12 99 33 122 46 23 13 66 31 95 40 91 30
108 43 135 101 19 42 23 63 18 93 -8 51 -39 99 -71 111 -39 15 -133 11 -194
-9z"></path>
<path d="M4879 5682 c-59 -20 -124 -50 -145 -66 -32 -24 -366 -356 -907 -903
-48 -48 -95 -95 -103 -103 -9 -8 -168 -169 -354 -358 -355 -360 -382 -382
-449 -365 -16 4 -139 120 -336 317 l-310 312 -99 49 c-93 46 -105 49 -191 53
-121 6 -172 -7 -280 -67 -126 -70 -227 -184 -254 -286 -27 -102 -31 -183 -16
-291 16 -116 26 -141 76 -205 79 -99 913 -947 1077 -1094 90 -81 96 -85 203
-119 144 -47 184 -47 332 3 136 46 149 56 345 255 70 71 142 143 159 160 18
17 63 62 100 101 38 38 109 109 158 157 50 48 93 91 97 95 4 5 148 151 320
325 172 175 347 352 390 395 42 43 91 93 110 112 18 18 44 43 57 55 13 11 36
34 50 49 14 16 139 142 276 281 321 324 353 366 376 493 14 73 6 283 -13 343
-17 53 -93 152 -170 220 -45 40 -70 52 -168 83 -147 47 -191 47 -331 -1z m278
-321 c78 -37 95 -67 101 -177 3 -62 1 -88 -12 -113 -9 -17 -216 -232 -459
-478 -243 -245 -512 -517 -597 -603 -703 -712 -1087 -1093 -1118 -1109 -59
-30 -123 -35 -192 -15 -59 16 -68 24 -238 194 -97 98 -186 188 -197 201 -11
13 -59 61 -105 106 -100 96 -132 128 -168 167 -15 16 -38 38 -52 50 -13 12
-36 33 -50 48 -14 16 -87 92 -164 170 -76 79 -145 157 -152 175 -17 39 -18
148 -3 192 13 37 116 119 166 133 19 5 48 6 65 3 62 -14 174 -105 309 -252 14
-15 36 -37 48 -48 13 -11 127 -125 253 -253 195 -198 240 -238 292 -263 69
-33 96 -32 161 6 22 13 296 281 609 597 313 315 718 723 900 907 213 214 349
344 381 362 69 40 137 40 222 0z"></path>
<path d="M5355 2652 c-39 -24 -90 -82 -114 -130 -11 -21 -27 -45 -36 -52 -9
-8 -32 -37 -51 -65 -37 -54 -70 -97 -167 -214 -84 -101 -393 -410 -496 -496
-173 -143 -231 -213 -231 -274 0 -28 10 -44 58 -93 77 -76 99 -77 207 -6 86
56 115 79 274 227 161 148 228 216 342 343 169 189 195 221 296 368 21 30 52
72 70 94 76 92 83 228 13 291 -31 28 -125 32 -165 7z"></path>
<path d="M3968 1302 c-9 -4 -42 -31 -72 -61 -52 -49 -56 -57 -56 -98 0 -58 10
-74 68 -112 97 -62 203 -22 232 87 10 38 9 49 -9 86 -38 77 -110 120 -163 98z"></path>
</g>
</svg>
