 <svg version="1.0" xmlns="http://www.w3.org/2000/svg" width="20.000000pt" height="20.000000pt" viewBox="0 0 700.000000 700.000000" preserveAspectRatio="xMidYMid meet">
<metadata>
Created by potrace 1.12, written by Peter Selinger 2001-2015
</metadata>
<g transform="translate(0.000000,700.000000) scale(0.100000,-0.100000)" fill="#000000" stroke="none">
<path d="M3040 6976 c-11 -31 -41 -50 -104 -66 -38 -10 -66 -30 -133 -93 -46
-44 -97 -103 -111 -130 -15 -27 -35 -63 -44 -80 -10 -19 -26 -100 -39 -197
-12 -91 -30 -188 -41 -216 -18 -51 -20 -53 -120 -103 -130 -66 -169 -66 -247
0 -20 16 -60 50 -89 74 -29 25 -57 45 -62 45 -5 0 -24 13 -42 29 -18 15 -43
33 -54 39 -36 19 -249 72 -288 72 -43 0 -227 -52 -260 -73 -83 -54 -623 -595
-682 -683 -22 -32 -74 -215 -74 -259 0 -65 57 -265 88 -307 15 -21 36 -53 47
-71 20 -32 58 -82 121 -156 71 -83 73 -128 8 -248 -26 -46 -55 -93 -66 -102
-21 -20 -128 -45 -262 -61 -134 -16 -187 -29 -233 -59 -23 -14 -61 -37 -84
-51 -66 -40 -164 -163 -183 -230 -17 -59 -41 -90 -69 -90 -16 0 -17 -37 -17
-460 0 -440 1 -460 18 -460 28 0 50 -30 68 -91 37 -124 211 -278 354 -314 30
-8 96 -19 145 -25 133 -15 242 -40 263 -61 11 -9 40 -56 66 -102 65 -120 63
-165 -8 -248 -61 -71 -101 -123 -121 -155 -11 -17 -32 -49 -47 -70 -17 -24
-39 -85 -59 -159 -36 -139 -36 -176 5 -308 24 -75 36 -98 86 -155 116 -133
580 -592 635 -628 32 -21 219 -74 261 -74 39 0 252 53 288 72 11 6 35 23 52
37 17 14 44 34 60 43 16 10 56 40 89 68 90 75 102 82 148 87 38 5 57 -2 145
-47 99 -52 102 -54 121 -104 10 -28 28 -125 40 -216 13 -97 29 -178 39 -197 9
-17 29 -53 44 -80 14 -27 65 -86 111 -130 67 -63 95 -83 133 -93 63 -16 93
-35 104 -66 l10 -24 450 0 450 0 10 24 c11 31 41 50 104 66 38 10 66 30 133
93 46 44 97 103 111 130 15 27 35 63 44 80 10 19 25 97 38 194 21 165 38 233
67 265 24 27 193 108 224 108 39 0 77 -16 118 -51 20 -16 60 -50 89 -74 29
-25 57 -45 62 -45 5 0 24 -13 42 -29 18 -15 43 -33 54 -39 36 -19 249 -72 288
-72 42 0 229 53 261 74 55 36 519 495 635 628 50 57 62 80 86 155 41 132 41
169 5 308 -20 74 -42 135 -59 159 -15 21 -36 53 -47 70 -20 32 -60 84 -121
155 -71 83 -73 128 -8 248 26 46 55 93 66 102 21 21 130 46 263 61 162 19 234
47 345 132 61 46 136 148 154 207 18 61 40 91 68 91 17 0 18 20 18 460 0 423
-1 460 -17 460 -28 0 -52 31 -69 90 -19 67 -117 190 -183 230 -23 14 -61 37
-84 51 -46 30 -99 43 -233 59 -134 16 -241 41 -262 61 -11 9 -40 56 -66 102
-65 120 -63 165 8 248 63 74 101 124 121 156 11 18 32 50 47 71 31 42 88 242
88 307 0 44 -52 226 -74 261 -36 54 -505 528 -628 635 -51 44 -82 62 -125 74
-32 9 -78 23 -102 31 -65 21 -110 18 -238 -16 -128 -34 -144 -40 -191 -81 -18
-16 -37 -29 -42 -29 -5 0 -33 -20 -62 -45 -29 -24 -69 -58 -89 -74 -78 -66
-117 -66 -247 0 -100 51 -102 52 -121 105 -11 29 -30 126 -41 216 -13 98 -28
176 -38 195 -9 17 -29 53 -44 80 -14 27 -65 86 -111 130 -67 63 -95 83 -133
93 -63 16 -93 35 -104 66 l-10 24 -450 0 -450 0 -10 -24z m894 -306 c58 -18
72 -27 116 -80 56 -68 64 -94 80 -235 13 -123 57 -351 75 -385 18 -35 107 -86
185 -105 36 -9 88 -30 117 -46 57 -33 185 -79 217 -79 33 0 116 43 168 86 46
38 97 79 203 164 53 43 176 90 233 90 18 0 59 -11 93 -24 54 -22 86 -52 337
-303 263 -263 279 -281 302 -342 22 -59 23 -68 11 -125 -24 -116 -67 -185
-243 -389 -42 -49 -88 -140 -88 -176 0 -33 58 -188 86 -231 13 -19 29 -62 37
-95 21 -90 69 -169 118 -195 25 -14 244 -55 398 -74 138 -18 145 -21 218 -82
42 -36 55 -56 72 -106 20 -58 21 -83 21 -438 0 -355 -1 -380 -21 -438 -17 -50
-30 -70 -72 -106 -73 -61 -80 -64 -218 -82 -197 -25 -381 -62 -409 -82 -42
-31 -86 -106 -104 -178 -9 -38 -28 -86 -42 -107 -41 -63 -87 -204 -79 -246 9
-48 41 -108 84 -158 20 -24 52 -61 71 -83 37 -43 61 -76 111 -150 39 -59 73
-172 65 -221 -15 -95 -36 -121 -321 -405 -280 -281 -307 -302 -399 -320 -68
-12 -191 29 -266 90 -25 20 -69 55 -98 79 -29 23 -74 60 -100 81 -51 43 -135
86 -167 86 -32 0 -164 -48 -219 -79 -28 -16 -80 -37 -116 -46 -78 -20 -167
-70 -185 -106 -17 -33 -62 -260 -75 -386 -16 -139 -25 -165 -80 -233 -44 -53
-58 -62 -116 -80 -61 -19 -92 -20 -434 -20 -342 0 -373 1 -434 20 -58 18 -72
27 -116 80 -55 68 -64 94 -80 233 -13 126 -58 353 -75 386 -18 36 -107 86
-185 106 -36 9 -88 30 -116 46 -56 32 -187 79 -220 79 -31 0 -129 -54 -165
-90 -17 -16 -35 -30 -39 -30 -5 0 -31 -19 -58 -43 -93 -80 -147 -119 -187
-137 -63 -27 -142 -43 -181 -36 -92 18 -119 39 -399 320 -285 284 -306 310
-321 405 -14 86 54 228 176 371 19 22 51 59 71 83 43 50 75 110 84 158 8 42
-38 183 -79 246 -14 21 -32 67 -41 103 -19 76 -53 138 -94 173 -24 20 -61 30
-193 55 -90 17 -205 35 -257 41 -107 13 -117 17 -188 77 -42 36 -55 56 -72
106 -20 58 -21 83 -21 438 0 355 1 380 21 438 17 50 30 70 72 106 71 60 81 64
188 77 52 6 167 24 257 41 132 25 169 35 193 55 42 36 78 103 95 175 8 35 25
79 38 98 28 43 86 198 86 231 0 36 -46 127 -88 176 -176 204 -219 273 -243
389 -12 57 -11 66 11 125 23 61 39 79 302 342 251 251 283 281 338 303 33 13
74 24 92 24 57 0 180 -47 233 -90 28 -22 74 -59 103 -83 29 -23 70 -56 91 -74
47 -41 146 -93 175 -93 33 0 164 47 220 79 28 16 80 37 116 46 78 19 167 70
185 105 18 34 62 262 75 385 16 141 24 167 80 235 44 51 58 62 113 79 57 18
92 20 433 20 347 1 376 0 438 -19z"></path>
<path d="M3380 4844 c-14 -3 -83 -14 -155 -24 -96 -15 -146 -28 -190 -50 -33
-16 -80 -37 -105 -45 -24 -9 -66 -30 -94 -47 -27 -18 -61 -39 -77 -47 -73 -42
-309 -256 -309 -282 0 -5 -20 -31 -45 -59 -25 -28 -45 -56 -45 -64 0 -7 -16
-35 -35 -62 -19 -27 -40 -65 -46 -84 -6 -19 -26 -66 -45 -105 -27 -56 -39
-101 -59 -230 -31 -201 -31 -289 0 -490 20 -129 32 -174 59 -230 19 -38 39
-86 45 -105 6 -19 27 -57 46 -84 19 -27 35 -55 35 -62 0 -8 20 -36 45 -64 25
-28 45 -54 45 -59 0 -26 236 -240 309 -282 16 -8 50 -29 77 -47 28 -17 70 -38
94 -47 25 -8 72 -29 105 -45 195 -97 734 -97 930 0 33 16 83 38 111 48 28 10
72 33 97 50 25 18 50 32 56 32 5 0 31 18 58 40 135 112 177 150 225 208 29 35
70 84 91 108 20 25 37 51 37 58 0 7 16 35 35 62 19 27 40 65 46 84 6 19 26 67
45 105 27 56 39 101 59 230 31 201 31 289 0 490 -20 129 -32 174 -59 230 -19
39 -39 86 -45 105 -6 19 -27 57 -46 84 -19 27 -35 55 -35 62 0 8 -20 36 -45
64 -25 28 -45 54 -45 59 0 26 -236 240 -309 282 -16 8 -50 29 -77 47 -28 17
-70 38 -94 47 -25 8 -72 29 -105 45 -42 21 -97 36 -185 50 -120 20 -348 34
-400 24z m267 -274 c180 -25 185 -26 263 -65 36 -18 76 -36 90 -40 49 -15 187
-121 278 -213 50 -52 92 -97 92 -101 0 -5 14 -26 31 -47 33 -42 132 -241 143
-289 4 -16 16 -94 26 -172 19 -140 19 -146 0 -286 -10 -78 -22 -156 -26 -172
-11 -48 -110 -247 -143 -289 -17 -21 -31 -42 -31 -46 0 -4 -42 -50 -92 -101
-91 -93 -229 -199 -278 -214 -14 -4 -54 -22 -90 -40 -70 -36 -113 -46 -293
-70 -106 -14 -128 -14 -235 0 -179 24 -222 34 -292 70 -36 18 -76 36 -90 40
-49 15 -187 121 -277 213 -51 52 -93 97 -93 101 0 5 -14 26 -31 47 -33 42
-132 241 -143 289 -4 16 -16 94 -26 172 -19 140 -19 146 0 286 10 78 22 156
26 172 11 48 110 247 143 289 17 21 31 42 31 47 0 4 42 49 93 101 90 92 228
198 277 213 14 4 55 23 91 41 63 32 105 42 314 73 88 13 89 13 242 -9z"></path>
<path d="M5393 3605 c-53 -23 -61 -47 -72 -200 -6 -77 -19 -174 -30 -215 -12
-41 -28 -115 -37 -165 -9 -49 -29 -115 -44 -146 -16 -31 -35 -79 -44 -107 -8
-28 -33 -81 -55 -118 -23 -37 -41 -73 -41 -79 0 -6 -13 -26 -28 -45 -16 -19
-39 -53 -52 -75 -34 -58 -81 -112 -207 -238 -123 -123 -165 -160 -233 -203
-25 -16 -61 -41 -80 -55 -19 -14 -51 -32 -70 -39 -19 -8 -53 -26 -75 -41 -22
-15 -63 -34 -91 -42 -27 -8 -96 -38 -153 -66 -94 -48 -104 -56 -122 -96 -14
-31 -17 -50 -10 -67 12 -31 84 -96 114 -103 28 -7 102 10 132 31 11 8 57 26
102 39 45 14 85 30 89 36 3 6 44 28 89 49 45 21 86 43 89 49 4 6 29 22 55 35
26 14 67 40 92 60 24 19 66 52 93 73 78 60 335 322 355 362 11 20 29 45 41 56
12 11 33 43 47 70 14 28 36 61 49 75 13 14 30 45 39 70 9 24 29 65 44 90 16
25 36 69 45 99 9 29 29 81 45 115 15 33 34 95 41 136 7 41 23 116 36 165 30
114 51 322 38 389 -8 42 -16 55 -52 83 -48 36 -86 41 -139 18z"></path>
<path d="M3395 1667 c-45 -29 -50 -36 -53 -74 -4 -53 9 -77 58 -108 45 -28 85
-31 135 -11 42 18 56 43 57 106 2 56 -17 84 -69 106 -49 21 -73 17 -128 -19z"></path>
</g>
</svg>
