 <svg version="1.0" xmlns="http://www.w3.org/2000/svg" width="11.500000pt" height="11.500000pt" viewBox="0 0 700.000000 630.000000" preserveAspectRatio="xMidYMid meet">
<metadata>
Created by potrace 1.12, written by Peter Selinger 2001-2015
</metadata>
<g transform="translate(0.000000,630.000000) scale(0.100000,-0.100000)" fill="#000000" stroke="none">
<path d="M893 6199 c-52 -15 -90 -62 -114 -142 -12 -40 -28 -84 -36 -100 -7
-15 -25 -77 -38 -138 -14 -60 -36 -138 -50 -172 -15 -35 -32 -109 -41 -172 -8
-60 -26 -166 -39 -235 -39 -199 -48 -298 -49 -565 l-1 -251 -52 -86 c-28 -47
-67 -107 -85 -132 -64 -87 -108 -162 -127 -216 -10 -30 -31 -76 -45 -101 -14
-25 -32 -66 -40 -90 -8 -24 -26 -71 -39 -104 -14 -33 -35 -116 -47 -185 -26
-156 -36 -187 -66 -207 l-24 -15 0 -415 0 -414 25 -22 c29 -26 45 -94 70 -302
9 -78 27 -171 40 -210 13 -38 33 -110 45 -160 11 -49 27 -100 35 -112 9 -12
28 -63 44 -113 16 -49 38 -102 49 -118 10 -15 31 -52 46 -82 42 -85 99 -184
124 -216 13 -16 38 -50 55 -76 120 -178 413 -462 541 -523 26 -13 60 -34 74
-48 49 -44 357 -191 457 -218 28 -7 73 -23 100 -35 28 -13 106 -32 175 -44 69
-11 186 -32 260 -45 187 -35 452 -45 1295 -52 920 -7 1312 8 1470 56 33 11 96
24 140 30 114 17 175 31 217 52 20 10 72 28 115 40 43 12 98 32 123 45 25 13
72 33 105 45 62 23 205 100 240 130 11 9 39 26 62 38 124 62 364 278 509 458
43 53 144 202 144 212 0 4 13 26 28 47 37 50 148 279 157 323 4 18 20 61 36
95 16 35 38 108 49 164 10 55 28 130 39 166 11 36 27 116 36 178 21 151 31
186 66 220 l29 30 0 445 0 445 -25 20 c-29 22 -47 81 -70 218 -16 100 -58 222
-131 380 -24 52 -44 100 -44 106 0 6 -13 29 -29 51 -16 22 -37 55 -46 74 -10
19 -29 48 -43 64 -14 17 -36 54 -49 84 -13 29 -35 68 -48 85 -34 44 -44 130
-44 366 1 243 -14 409 -51 570 -16 69 -34 161 -40 205 -6 44 -28 135 -50 202
-22 67 -40 130 -40 139 0 9 -16 51 -35 94 -19 43 -35 82 -35 88 0 6 -10 37
-21 68 -19 50 -26 58 -66 76 -55 24 -108 19 -234 -23 -48 -15 -141 -37 -208
-48 -67 -12 -140 -30 -162 -41 -22 -12 -68 -30 -102 -40 -34 -11 -78 -30 -97
-43 -19 -13 -57 -32 -85 -42 -27 -10 -63 -28 -80 -40 -16 -12 -55 -35 -85 -50
-30 -15 -64 -35 -75 -45 -11 -10 -43 -31 -71 -47 -89 -48 -155 -87 -187 -110
-18 -12 -54 -35 -80 -50 -27 -16 -63 -38 -80 -50 -18 -12 -66 -41 -107 -64
-95 -53 -145 -59 -266 -31 -136 32 -336 44 -704 44 -362 0 -569 -12 -722 -43
-53 -10 -112 -19 -130 -19 -35 0 -153 57 -233 113 -87 60 -178 119 -194 124
-9 4 -36 20 -60 36 -24 17 -67 39 -94 49 -27 10 -68 31 -91 47 -23 15 -67 38
-99 50 -31 13 -60 27 -63 32 -7 12 -266 139 -283 139 -7 0 -48 15 -90 34 -43
20 -123 44 -186 56 -60 12 -124 28 -142 35 -29 12 -94 27 -168 38 -16 2 -44 0
-62 -4z m256 -289 c24 -11 80 -30 124 -41 44 -11 101 -31 126 -44 26 -13 74
-31 106 -40 33 -9 80 -30 105 -45 25 -16 71 -40 103 -54 32 -14 69 -34 83 -45
14 -11 50 -29 81 -41 30 -11 69 -31 86 -44 18 -13 49 -31 70 -40 21 -9 55 -29
75 -45 21 -16 54 -36 76 -45 21 -9 54 -29 72 -46 19 -16 54 -40 77 -51 23 -12
56 -32 72 -45 42 -32 174 -74 232 -74 26 0 122 10 213 21 131 17 245 22 554
26 400 5 610 -3 816 -33 207 -31 293 -8 498 133 26 18 72 45 102 59 30 15 64
35 76 46 11 10 47 33 80 51 64 35 125 72 207 126 29 18 80 46 113 61 34 15 64
33 68 39 4 6 39 20 79 32 40 12 98 35 131 51 32 16 93 36 135 44 42 7 106 26
144 41 113 44 161 18 192 -105 9 -34 27 -86 41 -116 16 -35 31 -101 44 -187
11 -74 27 -161 35 -194 35 -133 47 -252 54 -570 l7 -320 42 -86 c23 -48 42
-90 42 -94 0 -4 13 -24 29 -44 15 -20 40 -59 55 -88 14 -28 30 -54 36 -58 6
-4 24 -34 41 -68 17 -33 42 -77 54 -96 13 -20 31 -63 40 -96 10 -33 28 -79 42
-103 15 -26 34 -90 48 -160 12 -64 32 -152 44 -195 28 -108 35 -309 22 -642
-9 -221 -14 -281 -31 -333 -11 -34 -26 -106 -35 -160 -23 -144 -102 -447 -134
-511 -16 -31 -36 -81 -46 -111 -23 -72 -108 -242 -130 -260 -9 -8 -32 -37 -51
-65 -36 -52 -98 -137 -149 -202 -37 -48 -128 -138 -179 -178 -101 -79 -187
-138 -246 -169 -36 -19 -103 -53 -150 -78 -47 -24 -96 -51 -110 -60 -14 -9
-52 -24 -85 -33 -33 -10 -89 -30 -125 -45 -36 -16 -112 -38 -170 -49 -58 -12
-130 -30 -160 -40 -127 -43 -478 -61 -1235 -61 -591 0 -1349 21 -1460 41 -33
6 -91 19 -130 30 -38 10 -121 26 -184 34 -74 10 -133 24 -169 40 -30 14 -82
32 -116 41 -62 16 -300 126 -311 144 -4 6 -24 19 -46 31 -74 37 -206 140 -309
239 -138 134 -291 333 -346 449 -13 29 -35 67 -48 85 -13 17 -31 56 -41 86 -9
30 -30 78 -46 107 -20 36 -35 88 -49 167 -12 64 -30 142 -41 173 -11 32 -29
109 -39 172 -11 62 -27 139 -35 170 -34 133 -47 325 -42 621 4 254 7 294 27
365 12 44 32 128 45 186 13 58 34 128 48 155 13 27 34 80 46 119 13 38 31 81
40 95 10 14 27 45 38 71 11 25 35 66 54 91 43 59 85 125 186 293 16 27 18 68
24 355 4 179 12 351 17 382 6 32 18 95 26 140 9 46 27 151 41 234 16 96 36
179 55 227 16 41 30 84 30 94 0 11 7 42 15 71 27 89 90 114 184 72z"></path>
<path d="M4590 3479 c-873 -34 -1445 -44 -1762 -30 -415 18 -808 24 -873 13
-208 -37 -295 -62 -397 -115 -146 -75 -230 -143 -355 -287 -53 -60 -132 -185
-150 -235 -7 -22 -27 -63 -43 -92 -24 -42 -35 -84 -56 -214 -23 -145 -25 -182
-21 -358 4 -217 28 -432 57 -519 48 -146 89 -254 103 -270 8 -9 27 -42 42 -72
36 -72 73 -118 174 -218 87 -87 215 -178 291 -208 25 -10 62 -28 82 -42 20
-13 76 -34 125 -47 48 -13 120 -34 158 -48 39 -13 107 -30 153 -36 45 -7 119
-23 164 -37 133 -39 449 -62 1042 -73 456 -8 540 -7 805 10 426 27 512 36 594
64 40 13 109 31 154 39 45 9 99 23 120 31 21 9 85 28 143 41 58 14 128 38 155
53 28 15 73 36 101 45 87 28 344 230 379 296 7 14 24 36 36 49 29 30 124 188
134 221 4 14 22 59 41 100 24 55 38 111 53 205 11 72 28 150 38 175 16 39 18
72 15 260 -2 149 -7 232 -17 270 -8 30 -24 95 -35 144 -11 49 -34 114 -50 145
-17 31 -39 76 -50 101 -73 162 -304 411 -450 485 -30 15 -66 36 -81 47 -15 11
-55 28 -90 38 -35 10 -104 30 -154 45 -78 23 -111 27 -245 29 -85 1 -234 -1
-330 -5z m585 -278 c28 -13 75 -33 105 -46 93 -37 289 -194 321 -258 11 -21
34 -58 52 -82 80 -110 110 -167 128 -244 10 -44 29 -99 41 -123 21 -40 23 -58
26 -241 4 -190 3 -200 -23 -290 -15 -50 -35 -137 -45 -192 -14 -79 -28 -121
-69 -202 -28 -56 -56 -105 -61 -108 -6 -4 -26 -30 -44 -58 -32 -49 -53 -70
-166 -166 -62 -52 -201 -125 -280 -147 -36 -10 -85 -26 -110 -36 -25 -11 -102
-32 -172 -48 -70 -16 -135 -33 -145 -38 -39 -21 -177 -42 -348 -52 -99 -6
-253 -19 -342 -30 -152 -19 -186 -20 -515 -10 -871 26 -1110 43 -1288 95 -47
14 -120 31 -164 40 -43 8 -98 26 -123 40 -25 14 -71 32 -102 40 -70 18 -235
101 -291 146 -128 104 -204 201 -271 346 -48 104 -56 133 -69 253 -5 52 -22
142 -36 199 -24 94 -26 116 -21 245 3 107 9 155 25 201 11 33 26 92 32 131 6
40 19 85 28 102 9 17 32 59 51 93 63 118 181 247 296 324 73 48 96 57 230 92
l150 38 275 -1 c1167 -4 1662 -2 1965 5 193 5 476 8 630 7 271 -1 282 -2 330
-25z"></path>
<path d="M2217 2820 c-61 -17 -108 -36 -125 -52 -15 -13 -51 -42 -80 -64 -66
-48 -145 -153 -201 -263 -37 -73 -44 -98 -57 -205 -15 -121 -14 -211 7 -343
10 -69 85 -223 149 -309 51 -68 184 -172 273 -212 70 -31 76 -32 187 -29 109
3 119 5 190 40 100 49 198 128 256 207 62 84 132 225 144 289 18 98 23 235 11
346 -11 93 -19 124 -54 200 -55 120 -121 209 -209 282 -103 84 -111 89 -225
117 -123 31 -142 31 -266 -4z m253 -256 c41 -19 90 -50 108 -67 45 -42 118
-156 132 -204 19 -69 23 -260 6 -352 -13 -75 -22 -95 -73 -170 -52 -76 -66
-89 -138 -130 -70 -41 -86 -46 -140 -46 -51 1 -72 7 -143 44 -77 41 -88 50
-134 120 -66 99 -74 119 -88 229 -18 140 5 318 49 379 15 21 39 59 53 84 30
50 75 85 164 123 80 34 116 33 204 -10z"></path>
<path d="M4595 2812 c-46 -15 -99 -42 -124 -62 -112 -90 -158 -137 -186 -184
-16 -29 -40 -65 -51 -81 -23 -33 -31 -55 -71 -195 -65 -230 -9 -493 152 -713
55 -75 172 -161 285 -209 66 -29 86 -32 165 -32 82 0 98 4 176 38 120 52 273
180 306 256 8 19 26 50 39 68 33 42 50 86 58 147 4 28 16 84 27 127 24 96 24
142 -1 245 -10 45 -24 110 -29 144 -7 44 -21 79 -45 114 -19 27 -43 68 -54 90
-20 40 -80 100 -181 182 -70 57 -158 84 -286 89 -89 4 -109 1 -180 -24z m290
-251 c127 -63 184 -142 248 -341 6 -19 11 -80 10 -135 0 -95 -2 -106 -43 -205
-58 -141 -113 -204 -222 -255 -95 -45 -130 -44 -237 5 -100 46 -155 109 -206
236 -40 98 -40 100 -40 230 0 129 0 132 40 229 52 128 101 184 209 236 104 51
138 51 241 0z"></path>
</g>
</svg>
