<?xml version="1.0" standalone="no"?>
<!DOCTYPE svg PUBLIC "-//W3C//DTD SVG 20010904//EN"
 "http://www.w3.org/TR/2001/REC-SVG-20010904/DTD/svg10.dtd">
<svg version="1.0" xmlns="http://www.w3.org/2000/svg"
 width="20.000000pt" height="20.000000pt" viewBox="0 0 80.000000 72.000000"
 preserveAspectRatio="xMidYMid meet">
<metadata>
Created by potrace 1.15, written by Peter Selinger 2001-2017
</metadata>
<g transform="translate(0.000000,72.000000) scale(0.100000,-0.100000)"
fill="#000000" stroke="none">
<path d="M405 701 c-52 -24 -91 -66 -108 -116 l-14 -40 -104 -6 c-174 -9 -179
-15 -179 -240 l0 -167 29 -30 c30 -29 71 -42 142 -42 26 0 43 -8 64 -30 38
-40 65 -40 65 0 l0 30 68 0 c89 0 135 14 166 51 23 27 26 39 26 109 l0 79 43
3 c34 2 48 -2 75 -25 18 -15 37 -25 43 -22 5 4 9 26 9 51 0 36 7 53 32 85 29
36 33 49 36 112 3 87 -19 134 -86 182 -42 29 -49 30 -155 33 -93 2 -119 -1
-152 -17z m235 -31 c64 -18 120 -93 120 -161 0 -33 -30 -98 -54 -118 -9 -8
-16 -25 -16 -40 0 -19 -3 -22 -9 -12 -7 10 -26 14 -65 12 l-56 -2 0 50 c0 100
-35 132 -153 139 -74 4 -77 6 -71 26 16 50 58 90 113 106 38 12 150 12 191 0z
m-144 -201 c17 -19 19 -38 19 -171 0 -190 1 -188 -146 -188 -94 0 -100 -1
-108 -22 l-8 -22 -12 22 c-10 19 -20 22 -80 22 -54 0 -74 4 -95 21 -26 20 -26
21 -26 167 0 204 -15 192 240 192 187 0 198 -1 216 -21z"/>
</g>
</svg>
