<?xml version="1.0" standalone="no"?>
<!DOCTYPE svg PUBLIC "-//W3C//DTD SVG 20010904//EN"
 "http://www.w3.org/TR/2001/REC-SVG-20010904/DTD/svg10.dtd">
<svg version="1.0" xmlns="http://www.w3.org/2000/svg"
 width="20.000000pt" height="20.000000pt" viewBox="0 0 80.000000 80.000000"
 preserveAspectRatio="xMidYMid meet">
<metadata>
Created by potrace 1.15, written by Peter Selinger 2001-2017
</metadata>
<g transform="translate(0.000000,80.000000) scale(0.100000,-0.100000)"
fill="#44affe" stroke="none">
<path d="M193 687 c-113 -66 -192 -118 -193 -127 0 -8 25 -29 56 -46 l56 -31
-56 -34 c-31 -19 -56 -41 -56 -49 0 -9 24 -29 54 -45 30 -16 52 -33 50 -37 -3
-4 -27 -19 -54 -34 -28 -15 -50 -34 -50 -43 1 -18 370 -236 400 -236 30 0 399
218 400 236 0 9 -22 28 -50 43 -27 15 -51 30 -54 34 -2 4 20 21 50 37 30 16
54 36 54 45 0 8 -25 30 -56 49 l-56 34 56 31 c31 17 56 38 56 46 -1 15 -379
241 -402 239 -7 0 -99 -51 -205 -112z m380 -32 c86 -49 157 -92 157 -95 0 -3
-74 -47 -165 -98 l-165 -93 -165 93 c-91 51 -165 95 -165 98 1 11 316 189 331
187 8 -1 86 -42 172 -92z m-275 -279 l102 -58 123 70 c116 66 123 69 147 55
38 -22 64 -42 59 -46 -17 -15 -321 -187 -329 -187 -12 0 -329 183 -330 190 0
3 19 17 42 32 37 23 46 25 63 14 11 -7 66 -39 123 -70z m-21 -151 c62 -36 117
-65 123 -65 6 0 63 30 126 67 l116 67 44 -24 c24 -14 44 -27 44 -30 -1 -9
-314 -185 -330 -185 -16 0 -329 176 -330 185 0 7 72 49 85 50 5 0 60 -29 122
-65z"/>
</g>
</svg>
