 <svg version="1.0" xmlns="http://www.w3.org/2000/svg" width="11.500000pt" height="11.500000pt" viewBox="0 0 700.000000 700.000000" preserveAspectRatio="xMidYMid meet">
<metadata>
Created by potrace 1.12, written by Peter Selinger 2001-2015
</metadata>
<g transform="translate(0.000000,700.000000) scale(0.100000,-0.100000)" fill="#000000" stroke="none">
<path d="M6280 6984 c0 -19 -373 -399 -412 -420 -15 -8 -36 -14 -47 -14 -11 0
-59 34 -106 75 -52 45 -101 79 -125 86 -38 12 -42 11 -88 -22 -54 -38 -1893
-1873 -1910 -1905 -6 -12 -14 -59 -18 -104 l-7 -83 -1268 -1266 c-697 -696
-1279 -1284 -1293 -1305 -20 -30 -26 -51 -26 -95 0 -33 -8 -73 -19 -96 -12
-26 -102 -123 -256 -275 -287 -285 -338 -345 -360 -428 -8 -34 -26 -82 -39
-109 -13 -26 -32 -84 -41 -128 -10 -44 -27 -98 -38 -120 -11 -22 -35 -87 -53
-145 -18 -58 -44 -139 -58 -180 -13 -41 -30 -97 -38 -125 -11 -40 -20 -53 -46
-65 l-32 -15 0 -82 c0 -74 2 -83 18 -83 22 0 47 -25 56 -57 7 -21 13 -23 89
-23 82 0 83 0 93 29 12 30 28 38 169 79 106 32 254 81 310 104 28 11 96 33
153 49 57 16 120 38 141 48 20 11 66 27 102 36 42 11 81 30 114 55 28 22 163
152 300 291 162 163 264 258 290 270 23 11 63 19 95 19 46 0 63 5 101 33 25
17 612 599 1304 1291 l1258 1259 86 9 c47 5 94 14 106 20 11 6 270 260 575
565 305 304 572 565 594 580 l38 28 47 -26 c57 -32 91 -80 91 -128 0 -33 -11
-47 -127 -162 -71 -70 -173 -173 -229 -230 -56 -57 -350 -351 -654 -653 l-552
-549 5 -41 c4 -33 15 -49 49 -78 45 -40 75 -46 124 -28 40 16 1676 1656 1698
1704 30 65 14 96 -124 237 -69 70 -120 130 -120 141 0 40 36 83 243 290 117
117 228 234 245 260 30 43 32 52 23 84 -11 39 -40 80 -113 162 -51 55 -57 77
-34 120 21 38 402 412 420 412 13 0 16 13 16 65 0 55 -3 65 -18 65 -22 0 -572
550 -572 573 0 14 -10 17 -65 17 -53 0 -65 -3 -65 -16z m98 -338 c37 -19 268
-256 276 -282 11 -37 -9 -66 -128 -186 -126 -128 -161 -152 -203 -142 -34 9
-280 254 -289 288 -10 42 23 90 143 202 108 102 146 133 166 134 4 0 20 -6 35
-14z m-774 -261 c18 -9 201 -185 408 -393 387 -388 406 -411 379 -459 -5 -10
-60 -68 -123 -130 -62 -61 -421 -421 -798 -798 -377 -378 -701 -698 -720 -711
-19 -13 -44 -24 -55 -24 -13 0 -160 140 -423 404 -381 382 -402 406 -396 433
4 15 15 39 25 53 27 38 1622 1627 1639 1633 24 9 30 8 64 -8z m-1506 -2273
c160 -160 295 -300 301 -311 6 -11 11 -34 11 -51 0 -28 -121 -152 -1207 -1241
-665 -665 -1218 -1212 -1231 -1215 -12 -4 -36 0 -53 7 -42 17 -598 574 -615
616 -8 18 -14 40 -14 49 0 15 303 332 443 463 27 25 485 482 1018 1015 l969
969 44 -5 c42 -5 55 -17 334 -296z m-2666 -2679 c187 -186 228 -232 228 -255
0 -18 -16 -47 -48 -85 -57 -68 -385 -384 -412 -397 -42 -19 -75 6 -278 207
-202 200 -232 236 -232 277 0 14 63 87 178 207 200 210 272 273 310 273 20 0
75 -49 254 -227z m-694 -687 c79 -77 148 -149 153 -158 6 -11 5 -26 -2 -41
-14 -30 -141 -89 -242 -112 -37 -8 -100 -28 -139 -45 -145 -62 -180 -27 -118
119 17 39 38 104 47 144 19 87 75 210 104 231 12 8 29 12 38 9 9 -3 80 -69
159 -147z"></path>
</g>
</svg>
