<?xml version="1.0" standalone="no"?>
<!DOCTYPE svg PUBLIC "-//W3C//DTD SVG 20010904//EN"
 "http://www.w3.org/TR/2001/REC-SVG-20010904/DTD/svg10.dtd">
<svg version="1.0" xmlns="http://www.w3.org/2000/svg"
 width="12.500000pt" height="12.500000pt" viewBox="0 0 80.000000 64.000000"
 preserveAspectRatio="xMidYMid meet">
<metadata>
Created by potrace 1.15, written by Peter Selinger 2001-2017
</metadata>
<g transform="translate(0.000000,64.000000) scale(0.100000,-0.100000)"
fill="#000000" stroke="none">
<path d="M744 621 c-53 -32 -72 -34 -120 -11 -107 52 -244 -20 -244 -128 0
-29 0 -29 -44 -21 -70 13 -135 49 -192 106 l-54 53 -13 -28 c-25 -47 -29 -98
-12 -138 14 -33 13 -36 -1 -30 -14 6 -16 1 -10 -35 4 -22 15 -57 25 -78 11
-20 28 -57 39 -83 13 -28 33 -53 51 -64 17 -10 31 -22 31 -26 0 -13 -82 -30
-142 -30 -74 0 -75 -15 0 -51 198 -97 398 -66 537 84 74 80 125 196 125 285 0
19 6 34 15 37 18 7 65 81 65 102 0 13 -4 14 -20 5 -24 -13 -25 -8 -5 30 19 36
7 44 -31 21z m-122 -62 c15 -10 31 -19 37 -19 5 0 7 -8 4 -19 -3 -10 -1 -21 4
-24 18 -11 -5 -165 -34 -224 -82 -167 -235 -244 -439 -218 l-57 7 55 22 c60
25 118 62 118 77 0 5 -11 9 -25 9 -32 0 -86 22 -103 42 -11 14 -7 17 33 22 62
10 64 22 5 36 -47 11 -110 57 -110 81 0 5 18 9 40 9 45 0 51 11 16 29 -31 17
-66 81 -66 121 l0 32 37 -32 c56 -50 154 -92 226 -97 l62 -5 0 48 c0 111 107
167 197 103z"/>
</g>
</svg>
