 <svg version="1.0" xmlns="http://www.w3.org/2000/svg" width="11.500000pt" height="11.500000pt" viewBox="0 0 700.000000 700.000000" preserveAspectRatio="xMidYMid meet">
<metadata>
Created by potrace 1.12, written by Peter Selinger 2001-2015
</metadata>
<g transform="translate(0.000000,700.000000) scale(0.100000,-0.100000)" fill="#000000" stroke="none">
<path d="M4822 6974 c-14 -30 -76 -59 -147 -68 -123 -16 -157 -27 -199 -65
-22 -20 -65 -52 -94 -70 -29 -18 -61 -46 -73 -62 -11 -16 -52 -45 -92 -64 -40
-20 -94 -48 -120 -64 -74 -43 -197 -168 -243 -246 -36 -62 -52 -78 -136 -135
-122 -83 -220 -181 -293 -293 -39 -61 -70 -96 -98 -114 -159 -97 -281 -222
-362 -368 -15 -27 -36 -56 -48 -64 -56 -39 -180 -162 -212 -211 -50 -75 -60
-96 -75 -160 -7 -30 -27 -89 -46 -131 -18 -41 -43 -118 -55 -169 -20 -89 -25
-97 -73 -146 -50 -49 -57 -53 -149 -74 -53 -12 -118 -33 -144 -46 -27 -14 -87
-35 -135 -48 -48 -13 -113 -38 -145 -57 -60 -35 -185 -156 -230 -221 -13 -20
-41 -44 -61 -54 -102 -47 -287 -211 -342 -303 -50 -84 -80 -121 -112 -137
-103 -53 -252 -194 -337 -320 -55 -82 -72 -98 -154 -153 -134 -88 -207 -175
-292 -348 -20 -41 -49 -82 -66 -95 -16 -12 -46 -47 -66 -78 -20 -30 -51 -71
-70 -91 -32 -33 -36 -46 -54 -154 -22 -131 -38 -170 -74 -187 l-25 -11 0 -402
c0 -391 1 -403 19 -408 34 -8 58 -64 80 -180 15 -80 28 -120 46 -146 14 -20
41 -58 60 -85 19 -26 56 -72 82 -100 27 -29 60 -75 74 -102 75 -141 96 -174
148 -227 54 -55 84 -76 231 -155 36 -19 85 -54 110 -78 25 -23 68 -58 95 -78
28 -19 66 -46 85 -60 25 -18 70 -32 159 -50 123 -24 171 -48 171 -83 0 -11 75
-13 403 -13 l404 0 11 25 c16 35 58 53 164 70 136 23 136 22 181 64 23 21 62
51 87 66 25 15 63 46 85 69 22 22 58 47 80 55 22 7 54 23 70 36 17 12 48 31
70 43 60 31 185 159 231 238 36 61 52 77 136 134 122 84 221 182 293 293 39
61 70 96 98 114 89 54 123 81 197 153 77 75 143 162 176 233 10 20 21 37 25
37 4 0 48 37 98 83 112 102 175 197 203 304 10 42 30 98 43 124 14 26 34 87
46 135 28 111 47 151 97 196 33 30 56 39 138 58 55 12 125 36 156 51 32 16 88
36 125 45 77 18 85 22 173 80 62 41 164 145 205 208 10 15 38 36 61 46 116 50
288 217 376 364 17 29 45 57 74 74 122 72 247 192 330 316 52 78 70 95 149
148 138 92 216 184 299 353 20 39 55 90 81 115 26 25 53 56 60 70 7 14 32 48
54 75 41 50 44 60 72 215 13 79 32 117 64 132 l25 11 0 404 c0 328 -2 403 -13
403 -16 0 -51 37 -61 65 -4 11 -16 67 -26 125 -15 83 -25 113 -50 145 -16 22
-46 64 -65 93 -20 29 -55 71 -78 95 -23 23 -54 65 -68 92 -69 132 -96 174
-143 225 -48 52 -83 75 -236 158 -36 19 -83 52 -105 73 -36 35 -84 72 -186
144 -26 19 -66 31 -140 45 -57 10 -113 22 -124 26 -28 10 -65 45 -65 61 0 11
-75 13 -403 13 l-404 0 -11 -26z m563 -279 c263 -38 349 -56 400 -84 27 -16
83 -36 123 -46 40 -9 87 -28 105 -41 17 -13 48 -32 67 -43 19 -10 74 -64 122
-119 48 -56 123 -129 167 -164 47 -37 90 -82 106 -108 14 -25 37 -60 49 -77
13 -18 32 -65 41 -105 10 -40 30 -95 45 -123 28 -49 70 -229 70 -297 0 -16 8
-77 17 -134 14 -91 15 -118 4 -216 -29 -261 -52 -380 -86 -448 -13 -25 -33
-81 -45 -125 -12 -44 -35 -96 -49 -115 -15 -19 -40 -56 -55 -83 -15 -26 -44
-58 -64 -72 -41 -27 -161 -156 -182 -195 -19 -37 -220 -239 -255 -257 -42 -21
-163 -141 -185 -183 -22 -41 -207 -225 -265 -263 -40 -26 -144 -137 -177 -187
-44 -68 -267 -226 -352 -250 -33 -9 -55 -25 -85 -60 -30 -35 -56 -54 -96 -69
-30 -11 -79 -34 -109 -51 -35 -20 -89 -38 -157 -51 -94 -18 -132 -20 -409 -16
-374 5 -373 5 -575 123 -33 19 -78 53 -100 74 -22 21 -68 52 -102 68 -34 16
-74 38 -90 49 -15 11 -38 23 -50 27 -12 4 -53 37 -90 75 -52 51 -81 92 -122
171 -31 60 -75 127 -103 157 -55 59 -62 97 -25 130 35 31 50 33 149 16 65 -10
111 -25 153 -48 33 -18 87 -44 121 -58 73 -29 140 -82 254 -201 95 -99 107
-107 205 -131 39 -9 121 -32 183 -51 104 -31 124 -34 245 -34 134 0 189 9 297
49 30 11 80 23 110 26 97 11 112 20 229 140 61 63 122 117 134 121 66 20 252
178 302 255 107 165 97 155 264 264 80 52 153 136 236 271 31 49 56 74 96 94
19 10 42 26 49 35 8 9 35 27 61 40 26 14 56 39 68 57 11 18 33 45 48 59 17 16
36 50 47 85 9 33 32 84 51 114 18 30 36 66 39 80 4 14 25 63 47 111 32 69 43
109 58 215 22 155 20 179 -41 374 -25 80 -51 171 -58 202 -8 41 -22 71 -49
103 -21 26 -44 65 -51 88 -16 53 -81 149 -123 181 -18 14 -72 43 -118 65 -47
21 -91 46 -99 56 -20 24 -55 40 -172 79 -171 57 -294 86 -368 86 -84 0 -240
-31 -317 -64 -32 -13 -84 -32 -116 -41 -32 -9 -73 -29 -90 -45 -18 -15 -69
-42 -114 -59 -45 -18 -97 -44 -117 -59 -19 -15 -47 -35 -61 -45 -14 -10 -41
-41 -60 -70 -80 -120 -113 -159 -160 -190 -115 -76 -143 -98 -198 -152 -31
-31 -65 -71 -74 -88 -8 -18 -28 -46 -42 -63 -14 -17 -33 -45 -42 -62 -16 -27
-46 -51 -178 -137 -63 -41 -147 -133 -214 -235 -31 -47 -66 -94 -77 -105 -125
-117 -210 -214 -220 -252 -7 -22 -21 -56 -32 -74 l-19 -32 -97 6 c-155 10
-252 52 -252 110 0 13 9 32 20 42 11 10 35 51 54 91 19 40 50 87 69 104 21 19
43 54 56 89 12 32 33 76 48 97 14 22 39 58 55 81 36 53 119 136 232 233 49 41
95 89 103 105 21 40 220 243 258 262 44 23 164 142 186 184 10 20 32 48 49 63
17 14 61 58 97 98 37 40 83 82 103 93 52 28 165 131 205 187 20 27 53 57 77
69 23 12 58 34 78 49 19 16 67 37 105 48 39 11 98 32 133 47 73 30 163 49 346
71 72 9 133 18 135 20 9 9 112 3 216 -11z m-45 -636 c19 -4 77 -13 128 -19 52
-6 108 -17 125 -24 18 -8 68 -51 112 -95 44 -45 93 -94 108 -109 108 -104 190
-191 203 -215 8 -16 20 -70 25 -120 5 -51 17 -124 25 -164 14 -63 14 -80 1
-155 -9 -45 -18 -114 -22 -152 -11 -113 -26 -141 -134 -251 -54 -55 -113 -127
-132 -159 -48 -83 -201 -238 -301 -305 -68 -46 -92 -70 -133 -131 -69 -103
-195 -230 -301 -303 -76 -53 -97 -74 -145 -147 -76 -115 -162 -189 -279 -241
-61 -27 -100 -39 -115 -35 -33 8 -101 90 -121 144 -9 26 -29 74 -44 107 -15
33 -39 85 -54 115 -24 53 -76 104 -208 206 -23 17 -55 49 -72 72 -120 155
-147 180 -251 230 -55 27 -124 57 -153 66 -58 20 -147 85 -163 120 -8 18 -3
41 27 115 47 118 114 198 239 284 74 52 98 76 139 137 62 94 219 251 311 312
80 52 100 73 140 143 42 73 216 243 300 292 42 25 110 80 168 137 53 53 109
101 124 107 15 5 79 17 143 25 63 8 133 19 155 23 41 9 95 5 155 -10z m-2265
-1768 c158 -20 246 -45 299 -84 17 -13 54 -36 81 -51 28 -16 68 -46 90 -67 22
-21 66 -50 99 -64 32 -14 73 -37 91 -50 17 -14 37 -25 43 -25 17 0 144 -118
166 -154 10 -17 27 -43 37 -58 11 -15 28 -51 40 -80 12 -32 42 -76 75 -110 64
-67 71 -103 27 -138 -25 -20 -36 -21 -100 -16 -86 8 -162 29 -194 55 -13 10
-59 31 -102 46 -90 32 -153 79 -288 217 -83 84 -101 97 -151 112 -31 9 -60 16
-65 16 -5 0 -70 18 -144 41 l-134 40 -155 -4 c-139 -3 -162 -6 -224 -30 -39
-15 -109 -34 -158 -42 -48 -8 -95 -18 -105 -24 -10 -5 -65 -57 -122 -115 -57
-59 -121 -116 -143 -127 -143 -73 -247 -176 -365 -362 -20 -31 -50 -61 -77
-76 -165 -97 -277 -208 -356 -352 -10 -21 -32 -47 -47 -59 -41 -31 -94 -67
-128 -87 -41 -25 -150 -134 -168 -169 -8 -16 -22 -52 -31 -81 -10 -29 -29 -69
-43 -90 -14 -21 -34 -60 -43 -88 -10 -27 -32 -80 -49 -116 -35 -74 -74 -297
-64 -366 3 -21 24 -99 48 -173 23 -74 50 -170 60 -213 13 -60 25 -87 55 -123
20 -25 43 -64 50 -87 16 -53 81 -149 123 -181 18 -14 70 -42 117 -64 47 -21
91 -47 99 -56 20 -24 51 -38 171 -79 173 -60 288 -87 367 -87 92 0 238 30 333
68 42 17 95 35 118 41 23 7 57 25 75 40 18 16 69 43 114 60 45 18 97 44 117
59 19 15 47 35 61 45 14 10 41 41 60 70 80 120 113 159 160 190 190 126 232
169 346 351 17 28 58 63 130 111 120 81 193 154 272 275 31 47 66 94 77 105
116 108 210 214 220 250 19 62 39 95 63 104 28 10 155 -4 226 -26 64 -20 111
-56 111 -87 0 -12 -13 -38 -30 -58 -16 -20 -39 -58 -51 -85 -11 -26 -38 -66
-59 -88 -22 -23 -48 -65 -60 -97 -11 -31 -33 -74 -47 -95 -15 -21 -39 -56 -54
-78 -15 -22 -46 -60 -68 -84 -23 -24 -41 -47 -41 -51 0 -3 -15 -14 -32 -25
-48 -27 -177 -148 -201 -187 -27 -46 -215 -236 -252 -255 -44 -24 -164 -142
-186 -184 -10 -20 -32 -48 -49 -63 -17 -14 -61 -58 -97 -98 -37 -40 -85 -83
-107 -95 -35 -19 -91 -71 -231 -214 -50 -51 -161 -117 -223 -134 -33 -8 -93
-29 -133 -46 -77 -33 -193 -56 -419 -85 -128 -16 -142 -16 -270 1 -256 33
-358 53 -413 84 -29 16 -85 36 -125 46 -40 9 -87 28 -105 41 -17 13 -48 32
-67 43 -19 10 -78 68 -131 128 -52 59 -127 133 -166 163 -41 32 -83 74 -98
100 -14 25 -37 60 -49 77 -13 18 -32 65 -41 105 -10 40 -30 96 -45 123 -29 51
-70 229 -70 302 0 19 -7 79 -16 132 -16 90 -16 106 1 251 26 226 49 346 83
421 17 36 38 94 47 129 9 35 29 80 44 100 15 19 40 56 55 83 15 26 44 58 64
72 50 33 164 161 191 213 12 23 25 42 30 42 4 0 48 41 97 91 49 50 105 99 124
109 40 20 180 161 180 180 0 20 199 219 255 255 28 18 79 68 115 110 138 166
280 279 409 327 38 15 70 36 101 69 30 32 63 55 100 69 30 12 75 34 100 50 51
32 87 42 270 69 163 25 320 25 505 2z m-522 -771 l49 -50 -4 -61 c-4 -58 -7
-64 -46 -98 -126 -111 -154 -133 -198 -157 -28 -14 -75 -55 -109 -93 -33 -37
-73 -76 -88 -87 -16 -10 -40 -39 -54 -64 -33 -58 -138 -166 -183 -190 -19 -10
-63 -47 -97 -83 -52 -54 -62 -72 -68 -112 -21 -137 64 -195 187 -128 36 19
147 123 362 336 171 170 322 315 336 322 14 6 46 17 72 24 57 13 78 7 161 -52
74 -52 102 -80 197 -195 71 -86 80 -93 178 -141 57 -28 107 -51 112 -51 49 0
210 -114 210 -148 0 -10 -16 -55 -35 -102 -44 -111 -123 -206 -225 -273 -98
-63 -104 -70 -157 -152 -57 -88 -217 -247 -308 -307 -80 -52 -100 -73 -140
-143 -41 -73 -216 -244 -300 -293 -42 -24 -109 -79 -167 -136 -53 -53 -109
-101 -124 -107 -29 -10 -213 -37 -321 -46 -34 -3 -101 2 -155 11 -51 8 -118
18 -149 21 -75 8 -103 25 -196 118 -43 42 -90 90 -106 105 -148 146 -190 191
-203 215 -8 16 -20 70 -25 120 -5 51 -17 124 -25 164 -14 63 -14 80 -1 155 9
45 18 112 22 148 9 97 25 139 69 184 123 128 176 190 204 239 44 79 191 227
293 297 75 51 98 74 149 148 74 108 171 204 287 285 72 51 97 76 137 137 78
118 171 201 280 249 50 22 100 40 110 40 10 1 41 -21 69 -49z"></path>
<path d="M1505 2271 c-60 -15 -73 -27 -77 -77 -3 -43 -1 -49 25 -65 42 -25
146 -43 179 -30 48 18 72 82 52 136 -15 38 -99 55 -179 36z"></path>
</g>
</svg>
